<?xml version="1.0" encoding="UTF-8"?>
<svg id="Layer_1" data-name="Layer 1" xmlns="http://www.w3.org/2000/svg" xmlns:xlink="http://www.w3.org/1999/xlink" viewBox="0 0 5006 2906">
  <defs>
    <style>
      .cls-1, .cls-2 {
        fill: none;
      }

      .cls-2 {
        stroke: #231f20;
        stroke-miterlimit: 10;
        stroke-width: 6px;
      }

      .cls-3 {
        fill: #fff;
      }

      .cls-4 {
        clip-path: url(#clippath);
      }
    </style>
    <clipPath id="clippath">
      <rect class="cls-1" x="3" y="203" width="5000" height="2500"/>
    </clipPath>
  </defs>
  <g class="cls-4">
    <rect class="cls-3" x="3" y="203" width="5000" height="2500"/>
    <g>
      <path class="cls-2" d="M64.54,0C64.54,55.85,3,55.85,3,111.7c0,55.85,61.54,55.85,61.54,111.71S3,279.26,3,335.11c0,55.85,61.54,55.85,61.54,111.71S3,502.67,3,558.52c0,55.85,61.54,55.85,61.54,111.7S3,726.07,3,781.93c0,55.85,61.54,55.85,61.54,111.7S3,949.48,3,1005.34c0,55.85,61.54,55.85,61.54,111.71s-61.54,55.85-61.54,111.71c0,55.85,61.54,55.85,61.54,111.71s-61.54,55.85-61.54,111.71c0,55.85,61.54,55.85,61.54,111.71s-61.54,55.85-61.54,111.71c0,55.85,61.54,55.85,61.54,111.71s-61.54,55.85-61.54,111.71c0,55.85,61.54,55.85,61.54,111.7s-61.54,55.85-61.54,111.71c0,55.85,61.54,55.85,61.54,111.71s-61.54,55.85-61.54,111.71c0,55.86,61.54,55.86,61.54,111.71s-61.54,55.85-61.54,111.71c0,55.86,61.54,55.86,61.54,111.71s-61.54,55.86-61.54,111.71"/>
      <path class="cls-2" d="M128,113.33c0,55.85-61.54,55.85-61.54,111.7s61.54,55.85,61.54,111.71-61.54,55.85-61.54,111.7,61.54,55.85,61.54,111.71-61.54,55.85-61.54,111.7,61.54,55.85,61.54,111.7-61.54,55.85-61.54,111.71,61.54,55.85,61.54,111.7-61.54,55.85-61.54,111.7,61.54,55.85,61.54,111.71-61.54,55.85-61.54,111.71,61.54,55.85,61.54,111.71-61.54,55.85-61.54,111.71,61.54,55.85,61.54,111.71-61.54,55.85-61.54,111.71,61.54,55.85,61.54,111.71-61.54,55.85-61.54,111.71,61.54,55.85,61.54,111.7-61.54,55.85-61.54,111.71,61.54,55.85,61.54,111.71-61.54,55.85-61.54,111.71,61.54,55.86,61.54,111.71-61.54,55.85-61.54,111.71,61.54,55.86,61.54,111.71-61.54,55.86-61.54,111.71"/>
      <path class="cls-2" d="M189.54,0c0,55.85-61.54,55.85-61.54,111.7s61.54,55.85,61.54,111.71-61.54,55.85-61.54,111.7,61.54,55.85,61.54,111.71-61.54,55.85-61.54,111.7,61.54,55.85,61.54,111.7-61.54,55.85-61.54,111.71,61.54,55.85,61.54,111.7-61.54,55.85-61.54,111.7,61.54,55.85,61.54,111.71-61.54,55.85-61.54,111.71,61.54,55.85,61.54,111.71-61.54,55.85-61.54,111.71,61.54,55.85,61.54,111.71-61.54,55.85-61.54,111.71,61.54,55.85,61.54,111.71-61.54,55.85-61.54,111.71,61.54,55.85,61.54,111.7-61.54,55.85-61.54,111.71,61.54,55.85,61.54,111.71-61.54,55.85-61.54,111.71,61.54,55.86,61.54,111.71-61.54,55.85-61.54,111.71,61.54,55.86,61.54,111.71-61.54,55.86-61.54,111.71"/>
      <path class="cls-2" d="M253,113.33c0,55.85-61.54,55.85-61.54,111.7s61.54,55.85,61.54,111.71-61.54,55.85-61.54,111.7,61.54,55.85,61.54,111.71-61.54,55.85-61.54,111.7,61.54,55.85,61.54,111.7-61.54,55.85-61.54,111.71,61.54,55.85,61.54,111.7-61.54,55.85-61.54,111.7,61.54,55.85,61.54,111.71-61.54,55.85-61.54,111.71,61.54,55.85,61.54,111.71-61.54,55.85-61.54,111.71,61.54,55.85,61.54,111.71-61.54,55.85-61.54,111.71,61.54,55.85,61.54,111.71-61.54,55.85-61.54,111.71,61.54,55.85,61.54,111.7-61.54,55.85-61.54,111.71,61.54,55.85,61.54,111.71-61.54,55.85-61.54,111.71,61.54,55.86,61.54,111.71-61.54,55.85-61.54,111.71,61.54,55.86,61.54,111.71-61.54,55.86-61.54,111.71"/>
      <path class="cls-2" d="M314.54,0c0,55.85-61.54,55.85-61.54,111.7s61.54,55.85,61.54,111.71-61.54,55.85-61.54,111.7,61.54,55.85,61.54,111.71-61.54,55.85-61.54,111.7,61.54,55.85,61.54,111.7-61.54,55.85-61.54,111.71,61.54,55.85,61.54,111.7-61.54,55.85-61.54,111.7,61.54,55.85,61.54,111.71-61.54,55.85-61.54,111.71,61.54,55.85,61.54,111.71-61.54,55.85-61.54,111.71,61.54,55.85,61.54,111.71-61.54,55.85-61.54,111.71,61.54,55.85,61.54,111.71-61.54,55.85-61.54,111.71,61.54,55.85,61.54,111.7-61.54,55.85-61.54,111.71,61.54,55.85,61.54,111.71-61.54,55.85-61.54,111.71,61.54,55.86,61.54,111.71-61.54,55.85-61.54,111.71,61.54,55.86,61.54,111.71-61.54,55.86-61.54,111.71"/>
      <path class="cls-2" d="M378,113.33c0,55.85-61.54,55.85-61.54,111.7s61.54,55.85,61.54,111.71-61.54,55.85-61.54,111.7,61.54,55.85,61.54,111.71-61.54,55.85-61.54,111.7,61.54,55.85,61.54,111.7-61.54,55.85-61.54,111.71,61.54,55.85,61.54,111.7-61.54,55.85-61.54,111.7,61.54,55.85,61.54,111.71-61.54,55.85-61.54,111.71,61.54,55.85,61.54,111.71-61.54,55.85-61.54,111.71,61.54,55.85,61.54,111.71-61.54,55.85-61.54,111.71,61.54,55.85,61.54,111.71-61.54,55.85-61.54,111.71,61.54,55.85,61.54,111.7-61.54,55.85-61.54,111.71,61.54,55.85,61.54,111.71-61.54,55.85-61.54,111.71,61.54,55.86,61.54,111.71-61.54,55.85-61.54,111.71,61.54,55.86,61.54,111.71-61.54,55.86-61.54,111.71"/>
      <path class="cls-2" d="M439.54,0c0,55.85-61.54,55.85-61.54,111.7s61.54,55.85,61.54,111.71-61.54,55.85-61.54,111.7,61.54,55.85,61.54,111.71-61.54,55.85-61.54,111.7,61.54,55.85,61.54,111.7-61.54,55.85-61.54,111.71,61.54,55.85,61.54,111.7-61.54,55.85-61.54,111.7,61.54,55.85,61.54,111.71-61.54,55.85-61.54,111.71,61.54,55.85,61.54,111.71-61.54,55.85-61.54,111.71,61.54,55.85,61.54,111.71-61.54,55.85-61.54,111.71,61.54,55.85,61.54,111.71-61.54,55.85-61.54,111.71,61.54,55.85,61.54,111.7-61.54,55.85-61.54,111.71,61.54,55.85,61.54,111.71-61.54,55.85-61.54,111.71,61.54,55.86,61.54,111.71-61.54,55.85-61.54,111.71,61.54,55.86,61.54,111.71-61.54,55.86-61.54,111.71"/>
      <path class="cls-2" d="M503,113.33c0,55.85-61.54,55.85-61.54,111.7s61.54,55.85,61.54,111.71-61.54,55.85-61.54,111.7,61.54,55.85,61.54,111.71-61.54,55.85-61.54,111.7,61.54,55.85,61.54,111.7-61.54,55.85-61.54,111.71,61.54,55.85,61.54,111.7-61.54,55.85-61.54,111.7,61.54,55.85,61.54,111.71-61.54,55.85-61.54,111.71,61.54,55.85,61.54,111.71-61.54,55.85-61.54,111.71,61.54,55.85,61.54,111.71-61.54,55.85-61.54,111.71,61.54,55.85,61.54,111.71-61.54,55.85-61.54,111.71,61.54,55.85,61.54,111.7-61.54,55.85-61.54,111.71,61.54,55.85,61.54,111.71-61.54,55.85-61.54,111.71,61.54,55.86,61.54,111.71-61.54,55.85-61.54,111.71,61.54,55.86,61.54,111.71-61.54,55.86-61.54,111.71"/>
      <path class="cls-2" d="M564.54,0c0,55.85-61.54,55.85-61.54,111.7s61.54,55.85,61.54,111.71-61.54,55.85-61.54,111.7,61.54,55.85,61.54,111.71-61.54,55.85-61.54,111.7,61.54,55.85,61.54,111.7-61.54,55.85-61.54,111.71,61.54,55.85,61.54,111.7-61.54,55.85-61.54,111.7,61.54,55.85,61.54,111.71-61.54,55.85-61.54,111.71,61.54,55.85,61.54,111.71-61.54,55.85-61.54,111.71,61.54,55.85,61.54,111.71-61.54,55.85-61.54,111.71,61.54,55.85,61.54,111.71-61.54,55.85-61.54,111.71,61.54,55.85,61.54,111.7-61.54,55.85-61.54,111.71,61.54,55.85,61.54,111.71-61.54,55.85-61.54,111.71,61.54,55.86,61.54,111.71-61.54,55.85-61.54,111.71,61.54,55.86,61.54,111.71-61.54,55.86-61.54,111.71"/>
      <path class="cls-2" d="M628,113.33c0,55.85-61.54,55.85-61.54,111.7s61.54,55.85,61.54,111.71-61.54,55.85-61.54,111.7,61.54,55.85,61.54,111.71-61.54,55.85-61.54,111.7,61.54,55.85,61.54,111.7-61.54,55.85-61.54,111.71,61.54,55.85,61.54,111.7-61.54,55.85-61.54,111.7,61.54,55.85,61.54,111.71-61.54,55.85-61.54,111.71,61.54,55.85,61.54,111.71-61.54,55.85-61.54,111.71,61.54,55.85,61.54,111.71-61.54,55.85-61.54,111.71,61.54,55.85,61.54,111.71-61.54,55.85-61.54,111.71,61.54,55.85,61.54,111.7-61.54,55.85-61.54,111.71,61.54,55.85,61.54,111.71-61.54,55.85-61.54,111.71,61.54,55.86,61.54,111.71-61.54,55.85-61.54,111.71,61.54,55.86,61.54,111.71-61.54,55.86-61.54,111.71"/>
      <path class="cls-2" d="M689.54,0c0,55.85-61.54,55.85-61.54,111.7s61.54,55.85,61.54,111.71-61.54,55.85-61.54,111.7,61.54,55.85,61.54,111.71-61.54,55.85-61.54,111.7,61.54,55.85,61.54,111.7-61.54,55.85-61.54,111.71,61.54,55.85,61.54,111.7-61.54,55.85-61.54,111.7,61.54,55.85,61.54,111.71-61.54,55.85-61.54,111.71,61.54,55.85,61.54,111.71-61.54,55.85-61.54,111.71,61.54,55.85,61.54,111.71-61.54,55.85-61.54,111.71,61.54,55.85,61.54,111.71-61.54,55.85-61.54,111.71,61.54,55.85,61.54,111.7-61.54,55.85-61.54,111.71,61.54,55.85,61.54,111.71-61.54,55.85-61.54,111.71,61.54,55.86,61.54,111.71-61.54,55.85-61.54,111.71,61.54,55.86,61.54,111.71-61.54,55.86-61.54,111.71"/>
      <path class="cls-2" d="M753,113.33c0,55.85-61.54,55.85-61.54,111.7s61.54,55.85,61.54,111.71-61.54,55.85-61.54,111.7,61.54,55.85,61.54,111.71-61.54,55.85-61.54,111.7,61.54,55.85,61.54,111.7-61.54,55.85-61.54,111.71,61.54,55.85,61.54,111.7-61.54,55.85-61.54,111.7,61.54,55.85,61.54,111.71-61.54,55.85-61.54,111.71,61.54,55.85,61.54,111.71-61.54,55.85-61.54,111.71,61.54,55.85,61.54,111.71-61.54,55.85-61.54,111.71,61.54,55.85,61.54,111.71-61.54,55.85-61.54,111.71,61.54,55.85,61.54,111.7-61.54,55.85-61.54,111.71,61.54,55.85,61.54,111.71-61.54,55.85-61.54,111.71,61.54,55.86,61.54,111.71-61.54,55.85-61.54,111.71,61.54,55.86,61.54,111.71-61.54,55.86-61.54,111.71"/>
      <path class="cls-2" d="M814.54,0c0,55.85-61.54,55.85-61.54,111.7s61.54,55.85,61.54,111.71-61.54,55.85-61.54,111.7,61.54,55.85,61.54,111.71-61.54,55.85-61.54,111.7,61.54,55.85,61.54,111.7-61.54,55.85-61.54,111.71,61.54,55.85,61.54,111.7-61.54,55.85-61.54,111.7,61.54,55.85,61.54,111.71-61.54,55.85-61.54,111.71,61.54,55.85,61.54,111.71-61.54,55.85-61.54,111.71,61.54,55.85,61.54,111.71-61.54,55.85-61.54,111.71,61.54,55.85,61.54,111.71-61.54,55.85-61.54,111.71,61.54,55.85,61.54,111.7-61.54,55.85-61.54,111.71,61.54,55.85,61.54,111.71-61.54,55.85-61.54,111.71,61.54,55.86,61.54,111.71-61.54,55.85-61.54,111.71,61.54,55.86,61.54,111.71-61.54,55.86-61.54,111.71"/>
      <path class="cls-2" d="M878,113.33c0,55.85-61.54,55.85-61.54,111.7s61.54,55.85,61.54,111.71-61.54,55.85-61.54,111.7,61.54,55.85,61.54,111.71-61.54,55.85-61.54,111.7,61.54,55.85,61.54,111.7-61.54,55.85-61.54,111.71,61.54,55.85,61.54,111.7-61.54,55.85-61.54,111.7,61.54,55.85,61.54,111.71-61.54,55.85-61.54,111.71,61.54,55.85,61.54,111.71-61.54,55.85-61.54,111.71,61.54,55.85,61.54,111.71-61.54,55.85-61.54,111.71,61.54,55.85,61.54,111.71-61.54,55.85-61.54,111.71,61.54,55.85,61.54,111.7-61.54,55.85-61.54,111.71,61.54,55.85,61.54,111.71-61.54,55.85-61.54,111.71,61.54,55.86,61.54,111.71-61.54,55.85-61.54,111.71,61.54,55.86,61.54,111.71-61.54,55.86-61.54,111.71"/>
      <path class="cls-2" d="M939.54,0c0,55.85-61.54,55.85-61.54,111.7s61.54,55.85,61.54,111.71-61.54,55.85-61.54,111.7,61.54,55.85,61.54,111.71-61.54,55.85-61.54,111.7,61.54,55.85,61.54,111.7-61.54,55.85-61.54,111.71,61.54,55.85,61.54,111.7-61.54,55.85-61.54,111.7,61.54,55.85,61.54,111.71-61.54,55.85-61.54,111.71,61.54,55.85,61.54,111.71-61.54,55.85-61.54,111.71,61.54,55.85,61.54,111.71-61.54,55.85-61.54,111.71,61.54,55.85,61.54,111.71-61.54,55.85-61.54,111.71,61.54,55.85,61.54,111.7-61.54,55.85-61.54,111.71,61.54,55.85,61.54,111.71-61.54,55.85-61.54,111.71,61.54,55.86,61.54,111.71-61.54,55.85-61.54,111.71,61.54,55.86,61.54,111.71-61.54,55.86-61.54,111.71"/>
      <path class="cls-2" d="M1003,113.33c0,55.85-61.54,55.85-61.54,111.7s61.54,55.85,61.54,111.71-61.54,55.85-61.54,111.7,61.54,55.85,61.54,111.71-61.54,55.85-61.54,111.7,61.54,55.85,61.54,111.7-61.54,55.85-61.54,111.71,61.54,55.85,61.54,111.7-61.54,55.85-61.54,111.7,61.54,55.85,61.54,111.71-61.54,55.85-61.54,111.71,61.54,55.85,61.54,111.71-61.54,55.85-61.54,111.71,61.54,55.85,61.54,111.71-61.54,55.85-61.54,111.71,61.54,55.85,61.54,111.71-61.54,55.85-61.54,111.71,61.54,55.85,61.54,111.7-61.54,55.85-61.54,111.71,61.54,55.85,61.54,111.71-61.54,55.85-61.54,111.71,61.54,55.86,61.54,111.71-61.54,55.85-61.54,111.71,61.54,55.86,61.54,111.71-61.54,55.86-61.54,111.71"/>
      <path class="cls-2" d="M1064.54,0c0,55.85-61.54,55.85-61.54,111.7s61.54,55.85,61.54,111.71-61.54,55.85-61.54,111.7,61.54,55.85,61.54,111.71-61.54,55.85-61.54,111.7,61.54,55.85,61.54,111.7-61.54,55.85-61.54,111.71,61.54,55.85,61.54,111.7-61.54,55.85-61.54,111.7,61.54,55.85,61.54,111.71-61.54,55.85-61.54,111.71,61.54,55.85,61.54,111.71-61.54,55.85-61.54,111.71,61.54,55.85,61.54,111.71-61.54,55.85-61.54,111.71,61.54,55.85,61.54,111.71-61.54,55.85-61.54,111.71,61.54,55.85,61.54,111.7-61.54,55.85-61.54,111.71,61.54,55.85,61.54,111.71-61.54,55.85-61.54,111.71,61.54,55.86,61.54,111.71-61.54,55.85-61.54,111.71,61.54,55.86,61.54,111.71-61.54,55.86-61.54,111.71"/>
      <path class="cls-2" d="M1128,113.33c0,55.85-61.54,55.85-61.54,111.7s61.54,55.85,61.54,111.71-61.54,55.85-61.54,111.7,61.54,55.85,61.54,111.71-61.54,55.85-61.54,111.7,61.54,55.85,61.54,111.7-61.54,55.85-61.54,111.71,61.54,55.85,61.54,111.7-61.54,55.85-61.54,111.7,61.54,55.85,61.54,111.71-61.54,55.85-61.54,111.71,61.54,55.85,61.54,111.71-61.54,55.85-61.54,111.71,61.54,55.85,61.54,111.71-61.54,55.85-61.54,111.71,61.54,55.85,61.54,111.71-61.54,55.85-61.54,111.71,61.54,55.85,61.54,111.7-61.54,55.85-61.54,111.71,61.54,55.85,61.54,111.71-61.54,55.85-61.54,111.71,61.54,55.86,61.54,111.71-61.54,55.85-61.54,111.71,61.54,55.86,61.54,111.71-61.54,55.86-61.54,111.71"/>
      <path class="cls-2" d="M1189.54,0c0,55.85-61.54,55.85-61.54,111.7s61.54,55.85,61.54,111.71-61.54,55.85-61.54,111.7,61.54,55.85,61.54,111.71-61.54,55.85-61.54,111.7,61.54,55.85,61.54,111.7-61.54,55.85-61.54,111.71,61.54,55.85,61.54,111.7-61.54,55.85-61.54,111.7,61.54,55.85,61.54,111.71-61.54,55.85-61.54,111.71,61.54,55.85,61.54,111.71-61.54,55.85-61.54,111.71,61.54,55.85,61.54,111.71-61.54,55.85-61.54,111.71,61.54,55.85,61.54,111.71-61.54,55.85-61.54,111.71,61.54,55.85,61.54,111.7-61.54,55.85-61.54,111.71,61.54,55.85,61.54,111.71-61.54,55.85-61.54,111.71,61.54,55.86,61.54,111.71-61.54,55.85-61.54,111.71,61.54,55.86,61.54,111.71-61.54,55.86-61.54,111.71"/>
      <path class="cls-2" d="M1253,113.33c0,55.85-61.54,55.85-61.54,111.7s61.54,55.85,61.54,111.71-61.54,55.85-61.54,111.7,61.54,55.85,61.54,111.71-61.54,55.85-61.54,111.7,61.54,55.85,61.54,111.7-61.54,55.85-61.54,111.71,61.54,55.85,61.54,111.7-61.54,55.85-61.54,111.7,61.54,55.85,61.54,111.71-61.54,55.85-61.54,111.71,61.54,55.85,61.54,111.71-61.54,55.85-61.54,111.71,61.54,55.85,61.54,111.71-61.54,55.85-61.54,111.71,61.54,55.85,61.54,111.71-61.54,55.85-61.54,111.71,61.54,55.85,61.54,111.7-61.54,55.85-61.54,111.71,61.54,55.85,61.54,111.71-61.54,55.85-61.54,111.71,61.54,55.86,61.54,111.71-61.54,55.85-61.54,111.71,61.54,55.86,61.54,111.71-61.54,55.86-61.54,111.71"/>
      <path class="cls-2" d="M1314.54,0c0,55.85-61.54,55.85-61.54,111.7s61.54,55.85,61.54,111.71-61.54,55.85-61.54,111.7,61.54,55.85,61.54,111.71-61.54,55.85-61.54,111.7,61.54,55.85,61.54,111.7-61.54,55.85-61.54,111.71,61.54,55.85,61.54,111.7-61.54,55.85-61.54,111.7,61.54,55.85,61.54,111.71-61.54,55.85-61.54,111.71,61.54,55.85,61.54,111.71-61.54,55.85-61.54,111.71,61.54,55.85,61.54,111.71-61.54,55.85-61.54,111.71,61.54,55.85,61.54,111.71-61.54,55.85-61.54,111.71,61.54,55.85,61.54,111.7-61.54,55.85-61.54,111.71,61.54,55.85,61.54,111.71-61.54,55.85-61.54,111.71,61.54,55.86,61.54,111.71-61.54,55.85-61.54,111.71,61.54,55.86,61.54,111.71-61.54,55.86-61.54,111.71"/>
      <path class="cls-2" d="M1378,113.33c0,55.85-61.54,55.85-61.54,111.7s61.54,55.85,61.54,111.71-61.54,55.85-61.54,111.7,61.54,55.85,61.54,111.71-61.54,55.85-61.54,111.7,61.54,55.85,61.54,111.7-61.54,55.85-61.54,111.71,61.54,55.85,61.54,111.7-61.54,55.85-61.54,111.7,61.54,55.85,61.54,111.71-61.54,55.85-61.54,111.71,61.54,55.85,61.54,111.71-61.54,55.85-61.54,111.71,61.54,55.85,61.54,111.71-61.54,55.85-61.54,111.71,61.54,55.85,61.54,111.71-61.54,55.85-61.54,111.71,61.54,55.85,61.54,111.7-61.54,55.85-61.54,111.71,61.54,55.85,61.54,111.71-61.54,55.85-61.54,111.71,61.54,55.86,61.54,111.71-61.54,55.85-61.54,111.71,61.54,55.86,61.54,111.71-61.54,55.86-61.54,111.71"/>
      <path class="cls-2" d="M1439.54,0c0,55.85-61.54,55.85-61.54,111.7s61.54,55.85,61.54,111.71-61.54,55.85-61.54,111.7,61.54,55.85,61.54,111.71-61.54,55.85-61.54,111.7,61.54,55.85,61.54,111.7-61.54,55.85-61.54,111.71,61.54,55.85,61.54,111.7-61.54,55.85-61.54,111.7,61.54,55.85,61.54,111.71-61.54,55.85-61.54,111.71,61.54,55.85,61.54,111.71-61.54,55.85-61.54,111.71,61.54,55.85,61.54,111.71-61.54,55.85-61.54,111.71,61.54,55.85,61.54,111.71-61.54,55.85-61.54,111.71,61.54,55.85,61.54,111.7-61.54,55.85-61.54,111.71,61.54,55.85,61.54,111.71-61.54,55.85-61.54,111.71,61.54,55.86,61.54,111.71-61.54,55.85-61.54,111.71,61.54,55.86,61.54,111.71-61.54,55.86-61.54,111.71"/>
      <path class="cls-2" d="M1503,113.33c0,55.85-61.54,55.85-61.54,111.7s61.54,55.85,61.54,111.71-61.54,55.85-61.54,111.7,61.54,55.85,61.54,111.71-61.54,55.85-61.54,111.7,61.54,55.85,61.54,111.7-61.54,55.85-61.54,111.71,61.54,55.85,61.54,111.7-61.54,55.85-61.54,111.7,61.54,55.85,61.54,111.71-61.54,55.85-61.54,111.71,61.54,55.85,61.54,111.71-61.54,55.85-61.54,111.71,61.54,55.85,61.54,111.71-61.54,55.85-61.54,111.71,61.54,55.85,61.54,111.71-61.54,55.85-61.54,111.71,61.54,55.85,61.54,111.7-61.54,55.85-61.54,111.71,61.54,55.85,61.54,111.71-61.54,55.85-61.54,111.71,61.54,55.86,61.54,111.71-61.54,55.85-61.54,111.71,61.54,55.86,61.54,111.71-61.54,55.86-61.54,111.71"/>
      <path class="cls-2" d="M1564.54,0c0,55.85-61.54,55.85-61.54,111.7s61.54,55.85,61.54,111.71-61.54,55.85-61.54,111.7,61.54,55.85,61.54,111.71-61.54,55.85-61.54,111.7,61.54,55.85,61.54,111.7-61.54,55.85-61.54,111.71,61.54,55.85,61.54,111.7-61.54,55.85-61.54,111.7,61.54,55.85,61.54,111.71-61.54,55.85-61.54,111.71,61.54,55.85,61.54,111.71-61.54,55.85-61.54,111.71,61.54,55.85,61.54,111.71-61.54,55.85-61.54,111.71,61.54,55.85,61.54,111.71-61.54,55.85-61.54,111.71,61.54,55.85,61.54,111.7-61.54,55.85-61.54,111.71,61.54,55.85,61.54,111.71-61.54,55.85-61.54,111.71,61.54,55.86,61.54,111.71-61.54,55.85-61.54,111.71,61.54,55.86,61.54,111.71-61.54,55.86-61.54,111.71"/>
      <path class="cls-2" d="M1628,113.33c0,55.85-61.54,55.85-61.54,111.7s61.54,55.85,61.54,111.71-61.54,55.85-61.54,111.7,61.54,55.85,61.54,111.71-61.54,55.85-61.54,111.7,61.54,55.85,61.54,111.7-61.54,55.85-61.54,111.71,61.54,55.85,61.54,111.7-61.54,55.85-61.54,111.7,61.54,55.85,61.54,111.71-61.54,55.85-61.54,111.71,61.54,55.85,61.54,111.71-61.54,55.85-61.54,111.71,61.54,55.85,61.54,111.71-61.54,55.85-61.54,111.71,61.54,55.85,61.54,111.71-61.54,55.85-61.54,111.71,61.54,55.85,61.54,111.7-61.54,55.85-61.54,111.71,61.54,55.85,61.54,111.71-61.54,55.85-61.54,111.71,61.54,55.86,61.54,111.71-61.54,55.85-61.54,111.71,61.54,55.86,61.54,111.71-61.54,55.86-61.54,111.71"/>
      <path class="cls-2" d="M1689.54,0c0,55.85-61.54,55.85-61.54,111.7s61.54,55.85,61.54,111.71-61.54,55.85-61.54,111.7,61.54,55.85,61.54,111.71-61.54,55.85-61.54,111.7,61.54,55.85,61.54,111.7-61.54,55.85-61.54,111.71,61.54,55.85,61.54,111.7-61.54,55.85-61.54,111.7,61.54,55.85,61.54,111.71-61.54,55.85-61.54,111.71,61.54,55.85,61.54,111.71-61.54,55.85-61.54,111.71,61.54,55.85,61.54,111.71-61.54,55.85-61.54,111.71,61.54,55.85,61.54,111.71-61.54,55.85-61.54,111.71,61.54,55.85,61.54,111.7-61.54,55.85-61.54,111.71,61.54,55.85,61.54,111.71-61.54,55.85-61.54,111.71,61.54,55.86,61.54,111.71-61.54,55.85-61.54,111.71,61.54,55.86,61.54,111.71-61.54,55.86-61.54,111.71"/>
      <path class="cls-2" d="M1753,113.33c0,55.85-61.54,55.85-61.54,111.7s61.54,55.85,61.54,111.71-61.54,55.85-61.54,111.7,61.54,55.85,61.54,111.71-61.54,55.85-61.54,111.7,61.54,55.85,61.54,111.7-61.54,55.85-61.54,111.71,61.54,55.85,61.54,111.7-61.54,55.85-61.54,111.7,61.54,55.85,61.54,111.71-61.54,55.85-61.54,111.71,61.54,55.85,61.54,111.71-61.54,55.85-61.54,111.71,61.54,55.85,61.54,111.71-61.54,55.85-61.54,111.71,61.54,55.85,61.54,111.71-61.54,55.85-61.54,111.71,61.54,55.85,61.54,111.7-61.54,55.85-61.54,111.71,61.54,55.85,61.54,111.71-61.54,55.85-61.54,111.71,61.54,55.86,61.54,111.71-61.54,55.85-61.54,111.71,61.54,55.86,61.54,111.71-61.54,55.86-61.54,111.71"/>
      <path class="cls-2" d="M1814.54,0c0,55.85-61.54,55.85-61.54,111.7s61.54,55.85,61.54,111.71-61.54,55.85-61.54,111.7,61.54,55.85,61.54,111.71-61.54,55.85-61.54,111.7,61.54,55.85,61.54,111.7-61.54,55.85-61.54,111.71,61.54,55.85,61.54,111.7-61.54,55.85-61.54,111.7,61.54,55.85,61.54,111.71-61.54,55.85-61.54,111.71,61.54,55.85,61.54,111.71-61.54,55.85-61.54,111.71,61.54,55.85,61.54,111.71-61.54,55.85-61.54,111.71,61.54,55.85,61.54,111.71-61.54,55.85-61.54,111.71,61.54,55.85,61.54,111.7-61.54,55.85-61.54,111.71,61.54,55.85,61.54,111.71-61.54,55.85-61.54,111.71,61.54,55.86,61.54,111.71-61.54,55.85-61.54,111.71,61.54,55.86,61.54,111.71-61.54,55.86-61.54,111.71"/>
      <path class="cls-2" d="M1878,113.33c0,55.85-61.54,55.85-61.54,111.7s61.54,55.85,61.54,111.71-61.54,55.85-61.54,111.7,61.54,55.85,61.54,111.71-61.54,55.85-61.54,111.7,61.54,55.85,61.54,111.7-61.54,55.85-61.54,111.71,61.54,55.85,61.54,111.7-61.54,55.85-61.54,111.7,61.54,55.85,61.54,111.71-61.54,55.85-61.54,111.71,61.54,55.85,61.54,111.71-61.54,55.85-61.54,111.71,61.54,55.85,61.54,111.71-61.54,55.85-61.54,111.71,61.54,55.85,61.54,111.71-61.54,55.85-61.54,111.71,61.54,55.85,61.54,111.7-61.54,55.85-61.54,111.71,61.54,55.85,61.54,111.71-61.54,55.85-61.54,111.71,61.54,55.86,61.54,111.71-61.54,55.85-61.54,111.71,61.54,55.86,61.54,111.71-61.54,55.86-61.54,111.71"/>
      <path class="cls-2" d="M1939.54,0c0,55.85-61.54,55.85-61.54,111.7s61.54,55.85,61.54,111.71-61.54,55.85-61.54,111.7,61.54,55.85,61.54,111.71-61.54,55.85-61.54,111.7,61.54,55.85,61.54,111.7-61.54,55.85-61.54,111.71,61.54,55.85,61.54,111.7-61.54,55.85-61.54,111.7,61.54,55.85,61.54,111.71-61.54,55.85-61.54,111.71,61.54,55.85,61.54,111.71-61.54,55.85-61.54,111.71,61.54,55.85,61.54,111.71-61.54,55.85-61.54,111.71,61.54,55.85,61.54,111.71-61.54,55.85-61.54,111.71,61.54,55.85,61.54,111.7-61.54,55.85-61.54,111.71,61.54,55.85,61.54,111.71-61.54,55.85-61.54,111.71,61.54,55.86,61.54,111.71-61.54,55.85-61.54,111.71,61.54,55.86,61.54,111.71-61.54,55.86-61.54,111.71"/>
      <path class="cls-2" d="M2003,113.33c0,55.85-61.54,55.85-61.54,111.7s61.54,55.85,61.54,111.71-61.54,55.85-61.54,111.7,61.54,55.85,61.54,111.71-61.54,55.85-61.54,111.7,61.54,55.85,61.54,111.7-61.54,55.85-61.54,111.71,61.54,55.85,61.54,111.7-61.54,55.85-61.54,111.7,61.54,55.85,61.54,111.71-61.54,55.85-61.54,111.71,61.54,55.85,61.54,111.71-61.54,55.85-61.54,111.71,61.54,55.85,61.54,111.71-61.54,55.85-61.54,111.71,61.54,55.85,61.54,111.71-61.54,55.85-61.54,111.71,61.54,55.85,61.54,111.7-61.54,55.85-61.54,111.71,61.54,55.85,61.54,111.71-61.54,55.85-61.54,111.71,61.54,55.86,61.54,111.71-61.54,55.85-61.54,111.71,61.54,55.86,61.54,111.71-61.54,55.86-61.54,111.71"/>
      <path class="cls-2" d="M2064.54,0c0,55.85-61.54,55.85-61.54,111.7s61.54,55.85,61.54,111.71-61.54,55.85-61.54,111.7,61.54,55.85,61.54,111.71-61.54,55.85-61.54,111.7,61.54,55.85,61.54,111.7-61.54,55.85-61.54,111.71,61.54,55.85,61.54,111.7-61.54,55.85-61.54,111.7,61.54,55.85,61.54,111.71-61.54,55.85-61.54,111.71,61.54,55.85,61.54,111.71-61.54,55.85-61.54,111.71,61.54,55.85,61.54,111.71-61.54,55.85-61.54,111.71,61.54,55.85,61.54,111.71-61.54,55.85-61.54,111.71,61.54,55.85,61.54,111.7-61.54,55.85-61.54,111.71,61.54,55.85,61.54,111.71-61.54,55.85-61.54,111.71,61.54,55.86,61.54,111.71-61.54,55.85-61.54,111.71,61.54,55.86,61.54,111.71-61.54,55.86-61.54,111.71"/>
      <path class="cls-2" d="M2128,113.33c0,55.85-61.54,55.85-61.54,111.7s61.54,55.85,61.54,111.71-61.54,55.85-61.54,111.7,61.54,55.85,61.54,111.71-61.54,55.85-61.54,111.7,61.54,55.85,61.54,111.7-61.54,55.85-61.54,111.71,61.54,55.85,61.54,111.7-61.54,55.85-61.54,111.7,61.54,55.85,61.54,111.71-61.54,55.85-61.54,111.71,61.54,55.85,61.54,111.71-61.54,55.85-61.54,111.71,61.54,55.85,61.54,111.71-61.54,55.85-61.54,111.71,61.54,55.85,61.54,111.71-61.54,55.85-61.54,111.71,61.54,55.85,61.54,111.7-61.54,55.85-61.54,111.71,61.54,55.85,61.54,111.71-61.54,55.85-61.54,111.71,61.54,55.86,61.54,111.71-61.54,55.85-61.54,111.71,61.54,55.86,61.54,111.71-61.54,55.86-61.54,111.71"/>
      <path class="cls-2" d="M2189.54,0c0,55.85-61.54,55.85-61.54,111.7s61.54,55.85,61.54,111.71-61.54,55.85-61.54,111.7,61.54,55.85,61.54,111.71-61.54,55.85-61.54,111.7,61.54,55.85,61.54,111.7-61.54,55.85-61.54,111.71,61.54,55.85,61.54,111.7-61.54,55.85-61.54,111.7,61.54,55.85,61.54,111.71-61.54,55.85-61.54,111.71,61.54,55.85,61.54,111.71-61.54,55.85-61.54,111.71,61.54,55.85,61.54,111.71-61.54,55.85-61.54,111.71,61.54,55.85,61.54,111.71-61.54,55.85-61.54,111.71,61.54,55.85,61.54,111.7-61.54,55.85-61.54,111.71,61.54,55.85,61.54,111.71-61.54,55.85-61.54,111.71,61.54,55.86,61.54,111.71-61.54,55.85-61.54,111.71,61.54,55.86,61.54,111.71-61.54,55.86-61.54,111.71"/>
      <path class="cls-2" d="M2253,113.33c0,55.85-61.54,55.85-61.54,111.7s61.54,55.85,61.54,111.71-61.54,55.85-61.54,111.7,61.54,55.85,61.54,111.71-61.54,55.85-61.54,111.7,61.54,55.85,61.54,111.7-61.54,55.85-61.54,111.71,61.54,55.85,61.54,111.7-61.54,55.85-61.54,111.7,61.54,55.85,61.54,111.71-61.54,55.85-61.54,111.71,61.54,55.85,61.54,111.71-61.54,55.85-61.54,111.71,61.54,55.85,61.54,111.71-61.54,55.85-61.54,111.71,61.54,55.85,61.54,111.71-61.54,55.85-61.54,111.71,61.54,55.85,61.54,111.7-61.54,55.85-61.54,111.71,61.54,55.85,61.54,111.71-61.54,55.85-61.54,111.71,61.54,55.86,61.54,111.71-61.54,55.85-61.54,111.71,61.54,55.86,61.54,111.71-61.54,55.86-61.54,111.71"/>
      <path class="cls-2" d="M2314.54,0c0,55.85-61.54,55.85-61.54,111.7s61.54,55.85,61.54,111.71-61.54,55.85-61.54,111.7,61.54,55.85,61.54,111.71-61.54,55.85-61.54,111.7,61.54,55.85,61.54,111.7-61.54,55.85-61.54,111.71,61.54,55.85,61.54,111.7-61.54,55.85-61.54,111.7,61.54,55.85,61.54,111.71-61.54,55.85-61.54,111.71,61.54,55.85,61.54,111.71-61.54,55.85-61.54,111.71,61.54,55.85,61.54,111.71-61.54,55.85-61.54,111.71,61.54,55.85,61.54,111.71-61.54,55.85-61.54,111.71,61.54,55.85,61.54,111.7-61.54,55.85-61.54,111.71,61.54,55.85,61.54,111.71-61.54,55.85-61.54,111.71,61.54,55.86,61.54,111.71-61.54,55.85-61.54,111.71,61.54,55.86,61.54,111.71-61.54,55.86-61.54,111.71"/>
      <path class="cls-2" d="M2378,113.33c0,55.85-61.54,55.85-61.54,111.7s61.54,55.85,61.54,111.71-61.54,55.85-61.54,111.7,61.54,55.85,61.54,111.71-61.54,55.85-61.54,111.7,61.54,55.85,61.54,111.7-61.54,55.85-61.54,111.71,61.54,55.85,61.54,111.7-61.54,55.85-61.54,111.7,61.54,55.85,61.54,111.71-61.54,55.85-61.54,111.71,61.54,55.85,61.54,111.71-61.54,55.85-61.54,111.71,61.54,55.85,61.54,111.71-61.54,55.85-61.54,111.71,61.54,55.85,61.54,111.71-61.54,55.85-61.54,111.71,61.54,55.85,61.54,111.7-61.54,55.85-61.54,111.71,61.54,55.85,61.54,111.71-61.54,55.85-61.54,111.71,61.54,55.86,61.54,111.71-61.54,55.85-61.54,111.71,61.54,55.86,61.54,111.71-61.54,55.86-61.54,111.71"/>
      <path class="cls-2" d="M2439.54,0c0,55.85-61.54,55.85-61.54,111.7s61.54,55.85,61.54,111.71-61.54,55.85-61.54,111.7,61.54,55.85,61.54,111.71-61.54,55.85-61.54,111.7,61.54,55.85,61.54,111.7-61.54,55.85-61.54,111.71,61.54,55.85,61.54,111.7-61.54,55.85-61.54,111.7,61.54,55.85,61.54,111.71-61.54,55.85-61.54,111.71,61.54,55.85,61.54,111.71-61.54,55.85-61.54,111.71,61.54,55.85,61.54,111.71-61.54,55.85-61.54,111.71,61.54,55.85,61.54,111.71-61.54,55.85-61.54,111.71,61.54,55.85,61.54,111.7-61.54,55.85-61.54,111.71,61.54,55.85,61.54,111.71-61.54,55.85-61.54,111.71,61.54,55.86,61.54,111.71-61.54,55.85-61.54,111.71,61.54,55.86,61.54,111.71-61.54,55.86-61.54,111.71"/>
      <path class="cls-2" d="M2503,113.33c0,55.85-61.54,55.85-61.54,111.7s61.54,55.85,61.54,111.71-61.54,55.85-61.54,111.7,61.54,55.85,61.54,111.71-61.54,55.85-61.54,111.7,61.54,55.85,61.54,111.7-61.54,55.85-61.54,111.71,61.54,55.85,61.54,111.7-61.54,55.85-61.54,111.7,61.54,55.85,61.54,111.71-61.54,55.85-61.54,111.71,61.54,55.85,61.54,111.71-61.54,55.85-61.54,111.71,61.54,55.85,61.54,111.71-61.54,55.85-61.54,111.71,61.54,55.85,61.54,111.71-61.54,55.85-61.54,111.71,61.54,55.85,61.54,111.7-61.54,55.85-61.54,111.71,61.54,55.85,61.54,111.71-61.54,55.85-61.54,111.71,61.54,55.86,61.54,111.71-61.54,55.85-61.54,111.71,61.54,55.86,61.54,111.71-61.54,55.86-61.54,111.71"/>
      <path class="cls-2" d="M2564.54,0c0,55.85-61.54,55.85-61.54,111.7s61.54,55.85,61.54,111.71-61.54,55.85-61.54,111.7,61.54,55.85,61.54,111.71-61.54,55.85-61.54,111.7,61.54,55.85,61.54,111.7-61.54,55.85-61.54,111.71,61.54,55.85,61.54,111.7-61.54,55.85-61.54,111.7,61.54,55.85,61.54,111.71-61.54,55.85-61.54,111.71,61.54,55.85,61.54,111.71-61.54,55.85-61.54,111.71,61.54,55.85,61.54,111.71-61.54,55.85-61.54,111.71,61.54,55.85,61.54,111.71-61.54,55.85-61.54,111.71,61.54,55.85,61.54,111.7-61.54,55.85-61.54,111.71,61.54,55.85,61.54,111.71-61.54,55.85-61.54,111.71,61.54,55.86,61.54,111.71-61.54,55.85-61.54,111.71,61.54,55.86,61.54,111.71-61.54,55.86-61.54,111.71"/>
      <path class="cls-2" d="M2628,113.33c0,55.85-61.54,55.85-61.54,111.7s61.54,55.85,61.54,111.71-61.54,55.85-61.54,111.7,61.54,55.85,61.54,111.71-61.54,55.85-61.54,111.7,61.54,55.85,61.54,111.7-61.54,55.85-61.54,111.71,61.54,55.85,61.54,111.7-61.54,55.85-61.54,111.7,61.54,55.85,61.54,111.71-61.54,55.85-61.54,111.71,61.54,55.85,61.54,111.71-61.54,55.85-61.54,111.71,61.54,55.85,61.54,111.71-61.54,55.85-61.54,111.71,61.54,55.85,61.54,111.71-61.54,55.85-61.54,111.71,61.54,55.85,61.54,111.7-61.54,55.85-61.54,111.71,61.54,55.85,61.54,111.71-61.54,55.85-61.54,111.71,61.54,55.86,61.54,111.71-61.54,55.85-61.54,111.71,61.54,55.86,61.54,111.71-61.54,55.86-61.54,111.71"/>
      <path class="cls-2" d="M2689.54,0c0,55.85-61.54,55.85-61.54,111.7s61.54,55.85,61.54,111.71-61.54,55.85-61.54,111.7,61.54,55.85,61.54,111.71-61.54,55.85-61.54,111.7,61.54,55.85,61.54,111.7-61.54,55.85-61.54,111.71,61.54,55.85,61.54,111.7-61.54,55.85-61.54,111.7,61.54,55.85,61.54,111.71-61.54,55.85-61.54,111.71,61.54,55.85,61.54,111.71-61.54,55.85-61.54,111.71,61.54,55.85,61.54,111.71-61.54,55.85-61.54,111.71,61.54,55.85,61.54,111.71-61.54,55.85-61.54,111.71,61.54,55.85,61.54,111.7-61.54,55.85-61.54,111.71,61.54,55.85,61.54,111.71-61.54,55.85-61.54,111.71,61.54,55.86,61.54,111.71-61.54,55.85-61.54,111.71,61.54,55.86,61.54,111.71-61.54,55.86-61.54,111.71"/>
      <path class="cls-2" d="M2753,113.33c0,55.85-61.54,55.85-61.54,111.7s61.54,55.85,61.54,111.71-61.54,55.85-61.54,111.7,61.54,55.85,61.54,111.71-61.54,55.85-61.54,111.7,61.54,55.85,61.54,111.7-61.54,55.85-61.54,111.71,61.54,55.85,61.54,111.7-61.54,55.85-61.54,111.7,61.54,55.85,61.54,111.71-61.54,55.85-61.54,111.71,61.54,55.85,61.54,111.71-61.54,55.85-61.54,111.71,61.54,55.85,61.54,111.71-61.54,55.85-61.54,111.71,61.54,55.85,61.54,111.71-61.54,55.85-61.54,111.71,61.54,55.85,61.54,111.7-61.54,55.85-61.54,111.71,61.54,55.85,61.54,111.71-61.54,55.85-61.54,111.71,61.54,55.86,61.54,111.71-61.54,55.85-61.54,111.71,61.54,55.86,61.54,111.71-61.54,55.86-61.54,111.71"/>
      <path class="cls-2" d="M2814.54,0c0,55.85-61.54,55.85-61.54,111.7s61.54,55.85,61.54,111.71-61.54,55.85-61.54,111.7,61.54,55.85,61.54,111.71-61.54,55.85-61.54,111.7,61.54,55.85,61.54,111.7-61.54,55.85-61.54,111.71,61.54,55.85,61.54,111.7-61.54,55.85-61.54,111.7,61.54,55.85,61.54,111.71-61.54,55.85-61.54,111.71,61.54,55.85,61.54,111.71-61.54,55.85-61.54,111.71,61.54,55.85,61.54,111.71-61.54,55.85-61.54,111.71,61.54,55.85,61.54,111.71-61.54,55.85-61.54,111.71,61.54,55.85,61.54,111.7-61.54,55.85-61.54,111.71,61.54,55.85,61.54,111.71-61.54,55.85-61.54,111.71,61.54,55.86,61.54,111.71-61.54,55.85-61.54,111.71,61.54,55.86,61.54,111.71-61.54,55.86-61.54,111.71"/>
      <path class="cls-2" d="M2878,113.33c0,55.85-61.54,55.85-61.54,111.7s61.54,55.85,61.54,111.71-61.54,55.85-61.54,111.7,61.54,55.85,61.54,111.71-61.54,55.85-61.54,111.7,61.54,55.85,61.54,111.7-61.54,55.85-61.54,111.71,61.54,55.85,61.54,111.7-61.54,55.85-61.54,111.7,61.54,55.85,61.54,111.71-61.54,55.85-61.54,111.71,61.54,55.85,61.54,111.71-61.54,55.85-61.54,111.71,61.54,55.85,61.54,111.71-61.54,55.85-61.54,111.71,61.54,55.85,61.54,111.71-61.54,55.85-61.54,111.71,61.54,55.85,61.54,111.7-61.54,55.85-61.54,111.71,61.54,55.85,61.54,111.71-61.54,55.85-61.54,111.71,61.54,55.86,61.54,111.71-61.54,55.85-61.54,111.71,61.54,55.86,61.54,111.71-61.54,55.86-61.54,111.71"/>
      <path class="cls-2" d="M2939.54,0c0,55.85-61.54,55.85-61.54,111.7s61.54,55.85,61.54,111.71-61.54,55.85-61.54,111.7,61.54,55.85,61.54,111.71-61.54,55.85-61.54,111.7,61.54,55.85,61.54,111.7-61.54,55.85-61.54,111.71,61.54,55.85,61.54,111.7-61.54,55.85-61.54,111.7,61.54,55.85,61.54,111.71-61.54,55.85-61.54,111.71,61.54,55.85,61.54,111.71-61.54,55.85-61.54,111.71,61.54,55.85,61.54,111.71-61.54,55.85-61.54,111.71,61.54,55.85,61.54,111.71-61.54,55.85-61.54,111.71,61.54,55.85,61.54,111.7-61.54,55.85-61.54,111.71,61.54,55.85,61.54,111.71-61.54,55.85-61.54,111.71,61.54,55.86,61.54,111.71-61.54,55.85-61.54,111.71,61.54,55.86,61.54,111.71-61.54,55.86-61.54,111.71"/>
      <path class="cls-2" d="M3003,113.33c0,55.85-61.54,55.85-61.54,111.7s61.54,55.85,61.54,111.71-61.54,55.85-61.54,111.7,61.54,55.85,61.54,111.71-61.54,55.85-61.54,111.7,61.54,55.85,61.54,111.7-61.54,55.85-61.54,111.71,61.54,55.85,61.54,111.7-61.54,55.85-61.54,111.7,61.54,55.85,61.54,111.71-61.54,55.85-61.54,111.71,61.54,55.85,61.54,111.71-61.54,55.85-61.54,111.71,61.54,55.85,61.54,111.71-61.54,55.85-61.54,111.71,61.54,55.85,61.54,111.71-61.54,55.85-61.54,111.71,61.54,55.85,61.54,111.7-61.54,55.85-61.54,111.71,61.54,55.85,61.54,111.71-61.54,55.85-61.54,111.71,61.54,55.86,61.54,111.71-61.54,55.85-61.54,111.71,61.54,55.86,61.54,111.71-61.54,55.86-61.54,111.71"/>
      <path class="cls-2" d="M3064.54,0c0,55.85-61.54,55.85-61.54,111.7s61.54,55.85,61.54,111.71-61.54,55.85-61.54,111.7,61.54,55.85,61.54,111.71-61.54,55.85-61.54,111.7,61.54,55.85,61.54,111.7-61.54,55.85-61.54,111.71,61.54,55.85,61.54,111.7-61.54,55.85-61.54,111.7,61.54,55.85,61.54,111.71-61.54,55.85-61.54,111.71,61.54,55.85,61.54,111.71-61.54,55.85-61.54,111.71,61.54,55.85,61.54,111.71-61.54,55.85-61.54,111.71,61.54,55.85,61.54,111.71-61.54,55.85-61.54,111.71,61.54,55.85,61.54,111.7-61.54,55.85-61.54,111.71,61.54,55.85,61.54,111.71-61.54,55.85-61.54,111.71,61.54,55.86,61.54,111.71-61.54,55.85-61.54,111.71,61.54,55.86,61.54,111.71-61.54,55.86-61.54,111.71"/>
      <path class="cls-2" d="M3128,113.33c0,55.85-61.54,55.85-61.54,111.7s61.54,55.85,61.54,111.71-61.54,55.85-61.54,111.7,61.54,55.85,61.54,111.71-61.54,55.85-61.54,111.7,61.54,55.85,61.54,111.7-61.54,55.85-61.54,111.71,61.54,55.85,61.54,111.7-61.54,55.85-61.54,111.7,61.54,55.85,61.54,111.71-61.54,55.85-61.54,111.71,61.54,55.85,61.54,111.71-61.54,55.85-61.54,111.71,61.54,55.85,61.54,111.71-61.54,55.85-61.54,111.71,61.54,55.85,61.54,111.71-61.54,55.85-61.54,111.71,61.54,55.85,61.54,111.7-61.54,55.85-61.54,111.71,61.54,55.85,61.54,111.71-61.54,55.85-61.54,111.71,61.54,55.86,61.54,111.71-61.54,55.85-61.54,111.71,61.54,55.86,61.54,111.71-61.54,55.86-61.54,111.71"/>
      <path class="cls-2" d="M3189.54,0c0,55.85-61.54,55.85-61.54,111.7s61.54,55.85,61.54,111.71-61.54,55.85-61.54,111.7,61.54,55.85,61.54,111.71-61.54,55.85-61.54,111.7,61.54,55.85,61.54,111.7-61.54,55.85-61.54,111.71,61.54,55.85,61.54,111.7-61.54,55.85-61.54,111.7,61.54,55.85,61.54,111.71-61.54,55.85-61.54,111.71,61.54,55.85,61.54,111.71-61.54,55.85-61.54,111.71,61.54,55.85,61.54,111.71-61.54,55.85-61.54,111.71,61.54,55.85,61.54,111.71-61.54,55.85-61.54,111.71,61.54,55.85,61.54,111.7-61.54,55.85-61.54,111.71,61.54,55.85,61.54,111.71-61.54,55.85-61.54,111.71,61.54,55.86,61.54,111.71-61.54,55.85-61.54,111.71,61.54,55.86,61.54,111.71-61.54,55.86-61.54,111.71"/>
      <path class="cls-2" d="M3253,113.33c0,55.85-61.54,55.85-61.54,111.7s61.54,55.85,61.54,111.71-61.54,55.85-61.54,111.7,61.54,55.85,61.54,111.71-61.54,55.85-61.54,111.7,61.54,55.85,61.54,111.7-61.54,55.85-61.54,111.71,61.54,55.85,61.54,111.7-61.54,55.85-61.54,111.7,61.54,55.85,61.54,111.71-61.54,55.85-61.54,111.71,61.54,55.85,61.54,111.71-61.54,55.85-61.54,111.71,61.54,55.85,61.54,111.71-61.54,55.85-61.54,111.71,61.54,55.85,61.54,111.71-61.54,55.85-61.54,111.71,61.54,55.85,61.54,111.7-61.54,55.85-61.54,111.71,61.54,55.85,61.54,111.71-61.54,55.85-61.54,111.71,61.54,55.86,61.54,111.71-61.54,55.85-61.54,111.71,61.54,55.86,61.54,111.71-61.54,55.86-61.54,111.71"/>
      <path class="cls-2" d="M3314.54,0c0,55.85-61.54,55.85-61.54,111.7s61.54,55.85,61.54,111.71-61.54,55.85-61.54,111.7,61.54,55.85,61.54,111.71-61.54,55.85-61.54,111.7,61.54,55.85,61.54,111.7-61.54,55.85-61.54,111.71,61.54,55.85,61.54,111.7-61.54,55.85-61.54,111.7,61.54,55.85,61.54,111.71-61.54,55.85-61.54,111.71,61.54,55.85,61.54,111.71-61.54,55.85-61.54,111.71,61.54,55.85,61.54,111.71-61.54,55.85-61.54,111.71,61.54,55.85,61.54,111.71-61.54,55.85-61.54,111.71,61.54,55.85,61.54,111.7-61.54,55.85-61.54,111.71,61.54,55.85,61.54,111.71-61.54,55.85-61.54,111.71,61.54,55.86,61.54,111.71-61.54,55.85-61.54,111.71,61.54,55.86,61.54,111.71-61.54,55.86-61.54,111.71"/>
      <path class="cls-2" d="M3378,113.33c0,55.85-61.54,55.85-61.54,111.7s61.54,55.85,61.54,111.71-61.54,55.85-61.54,111.7,61.54,55.85,61.54,111.71-61.54,55.85-61.54,111.7,61.54,55.85,61.54,111.7-61.54,55.85-61.54,111.71,61.54,55.85,61.54,111.7-61.54,55.85-61.54,111.7,61.54,55.85,61.54,111.71-61.54,55.85-61.54,111.71,61.54,55.85,61.54,111.71-61.54,55.85-61.54,111.71,61.54,55.85,61.54,111.71-61.54,55.85-61.54,111.71,61.54,55.85,61.54,111.71-61.54,55.85-61.54,111.71,61.54,55.85,61.54,111.7-61.54,55.85-61.54,111.71,61.54,55.85,61.54,111.71-61.54,55.85-61.54,111.71,61.54,55.86,61.54,111.71-61.54,55.85-61.54,111.71,61.54,55.86,61.54,111.71-61.54,55.86-61.54,111.71"/>
      <path class="cls-2" d="M3439.54,0c0,55.85-61.54,55.85-61.54,111.7s61.54,55.85,61.54,111.71-61.54,55.85-61.54,111.7,61.54,55.85,61.54,111.71-61.54,55.85-61.54,111.7,61.54,55.85,61.54,111.7-61.54,55.85-61.54,111.71,61.54,55.85,61.54,111.7-61.54,55.85-61.54,111.7,61.54,55.85,61.54,111.71-61.54,55.85-61.54,111.71,61.54,55.85,61.54,111.71-61.54,55.85-61.54,111.71,61.54,55.85,61.54,111.71-61.54,55.85-61.54,111.71,61.54,55.85,61.54,111.71-61.54,55.85-61.54,111.71,61.54,55.85,61.54,111.7-61.54,55.85-61.54,111.71,61.54,55.85,61.54,111.71-61.54,55.85-61.54,111.71,61.54,55.86,61.54,111.71-61.54,55.85-61.54,111.71,61.54,55.86,61.54,111.71-61.54,55.86-61.54,111.71"/>
      <path class="cls-2" d="M3503,113.33c0,55.85-61.54,55.85-61.54,111.7s61.54,55.85,61.54,111.71-61.54,55.85-61.54,111.7,61.54,55.85,61.54,111.71-61.54,55.85-61.54,111.7,61.54,55.85,61.54,111.7-61.54,55.85-61.54,111.71,61.54,55.85,61.54,111.7-61.54,55.85-61.54,111.7,61.54,55.85,61.54,111.71-61.54,55.85-61.54,111.71,61.54,55.85,61.54,111.71-61.54,55.85-61.54,111.71,61.54,55.85,61.54,111.71-61.54,55.85-61.54,111.71,61.54,55.85,61.54,111.71-61.54,55.85-61.54,111.71,61.54,55.85,61.54,111.7-61.54,55.85-61.54,111.71,61.54,55.85,61.54,111.71-61.54,55.85-61.54,111.71,61.54,55.86,61.54,111.71-61.54,55.85-61.54,111.71,61.54,55.86,61.54,111.71-61.54,55.86-61.54,111.71"/>
      <path class="cls-2" d="M3564.54,0c0,55.85-61.54,55.85-61.54,111.7s61.54,55.85,61.54,111.71-61.54,55.85-61.54,111.7,61.54,55.85,61.54,111.71-61.54,55.85-61.54,111.7,61.54,55.85,61.54,111.7-61.54,55.85-61.54,111.71,61.54,55.85,61.54,111.7-61.54,55.85-61.54,111.7,61.54,55.85,61.54,111.71-61.54,55.85-61.54,111.71,61.54,55.85,61.54,111.71-61.54,55.85-61.54,111.71,61.54,55.85,61.54,111.71-61.54,55.85-61.54,111.71,61.54,55.85,61.54,111.71-61.54,55.85-61.54,111.71,61.54,55.85,61.54,111.7-61.54,55.85-61.54,111.71,61.54,55.85,61.54,111.71-61.54,55.85-61.54,111.71,61.54,55.86,61.54,111.71-61.54,55.85-61.54,111.71,61.54,55.86,61.54,111.71-61.54,55.86-61.54,111.71"/>
      <path class="cls-2" d="M3628,113.33c0,55.85-61.54,55.85-61.54,111.7s61.54,55.85,61.54,111.71-61.54,55.85-61.54,111.7,61.54,55.85,61.54,111.71-61.54,55.85-61.54,111.7,61.54,55.85,61.54,111.7-61.54,55.85-61.54,111.71,61.54,55.85,61.54,111.7-61.54,55.85-61.54,111.7,61.54,55.85,61.54,111.71-61.54,55.85-61.54,111.71,61.54,55.85,61.54,111.71-61.54,55.85-61.54,111.71,61.54,55.85,61.54,111.71-61.54,55.85-61.54,111.71,61.54,55.85,61.54,111.71-61.54,55.85-61.54,111.71,61.54,55.85,61.54,111.7-61.54,55.85-61.54,111.71,61.54,55.85,61.54,111.71-61.54,55.85-61.54,111.71,61.54,55.86,61.54,111.71-61.54,55.85-61.54,111.71,61.54,55.86,61.54,111.71-61.54,55.86-61.54,111.71"/>
      <path class="cls-2" d="M3689.54,0c0,55.85-61.54,55.85-61.54,111.7s61.54,55.85,61.54,111.71-61.54,55.85-61.54,111.7,61.54,55.85,61.54,111.71-61.54,55.85-61.54,111.7,61.54,55.85,61.54,111.7-61.54,55.85-61.54,111.71,61.54,55.85,61.54,111.7-61.54,55.85-61.54,111.7,61.54,55.85,61.54,111.71-61.54,55.85-61.54,111.71,61.54,55.85,61.54,111.71-61.54,55.85-61.54,111.71,61.54,55.85,61.54,111.71-61.54,55.85-61.54,111.71,61.54,55.85,61.54,111.71-61.54,55.85-61.54,111.71,61.54,55.85,61.54,111.7-61.54,55.85-61.54,111.71,61.54,55.85,61.54,111.71-61.54,55.85-61.54,111.71,61.54,55.86,61.54,111.71-61.54,55.85-61.54,111.71,61.54,55.86,61.54,111.71-61.54,55.86-61.54,111.71"/>
      <path class="cls-2" d="M3753,113.33c0,55.85-61.54,55.85-61.54,111.7s61.54,55.85,61.54,111.71-61.54,55.85-61.54,111.7,61.54,55.85,61.54,111.71-61.54,55.85-61.54,111.7,61.54,55.85,61.54,111.7-61.54,55.85-61.54,111.71,61.54,55.85,61.54,111.7-61.54,55.85-61.54,111.7,61.54,55.85,61.54,111.71-61.54,55.85-61.54,111.71,61.54,55.85,61.54,111.71-61.54,55.85-61.54,111.71,61.54,55.85,61.54,111.71-61.54,55.85-61.54,111.71,61.54,55.85,61.54,111.71-61.54,55.85-61.54,111.71,61.54,55.85,61.54,111.7-61.54,55.85-61.54,111.71,61.54,55.85,61.54,111.71-61.54,55.85-61.54,111.71,61.54,55.86,61.54,111.71-61.54,55.85-61.54,111.71,61.54,55.86,61.54,111.71-61.54,55.86-61.54,111.71"/>
      <path class="cls-2" d="M3814.54,0c0,55.85-61.54,55.85-61.54,111.7s61.54,55.85,61.54,111.71-61.54,55.85-61.54,111.7,61.54,55.85,61.54,111.71-61.54,55.85-61.54,111.7,61.54,55.85,61.54,111.7-61.54,55.85-61.54,111.71,61.54,55.85,61.54,111.7-61.54,55.85-61.54,111.7,61.54,55.85,61.54,111.71-61.54,55.85-61.54,111.71,61.54,55.85,61.54,111.71-61.54,55.85-61.54,111.71,61.54,55.85,61.54,111.71-61.54,55.85-61.54,111.71,61.54,55.85,61.54,111.71-61.54,55.85-61.54,111.71,61.54,55.85,61.54,111.7-61.54,55.85-61.54,111.71,61.54,55.85,61.54,111.71-61.54,55.85-61.54,111.71,61.54,55.86,61.54,111.71-61.54,55.85-61.54,111.71,61.54,55.86,61.54,111.71-61.54,55.86-61.54,111.71"/>
      <path class="cls-2" d="M3878,113.33c0,55.85-61.54,55.85-61.54,111.7s61.54,55.85,61.54,111.71-61.54,55.85-61.54,111.7,61.54,55.85,61.54,111.71-61.54,55.85-61.54,111.7,61.54,55.85,61.54,111.7-61.54,55.85-61.54,111.71,61.54,55.85,61.54,111.7-61.54,55.85-61.54,111.7,61.54,55.85,61.54,111.71-61.54,55.85-61.54,111.71,61.54,55.85,61.54,111.71-61.54,55.85-61.54,111.71,61.54,55.85,61.54,111.71-61.54,55.85-61.54,111.71,61.54,55.85,61.54,111.71-61.54,55.85-61.54,111.71,61.54,55.85,61.54,111.7-61.54,55.85-61.54,111.71,61.54,55.85,61.54,111.71-61.54,55.85-61.54,111.71,61.54,55.86,61.54,111.71-61.54,55.85-61.54,111.71,61.54,55.86,61.54,111.71-61.54,55.86-61.54,111.71"/>
      <path class="cls-2" d="M3939.54,0c0,55.85-61.54,55.85-61.54,111.7s61.54,55.85,61.54,111.71-61.54,55.85-61.54,111.7,61.54,55.85,61.54,111.71-61.54,55.85-61.54,111.7,61.54,55.85,61.54,111.7-61.54,55.85-61.54,111.71,61.54,55.85,61.54,111.7-61.54,55.85-61.54,111.7,61.54,55.85,61.54,111.71-61.54,55.85-61.54,111.71,61.54,55.85,61.54,111.71-61.54,55.85-61.54,111.71,61.54,55.85,61.54,111.71-61.54,55.85-61.54,111.71,61.54,55.85,61.54,111.71-61.54,55.85-61.54,111.71,61.54,55.85,61.54,111.7-61.54,55.85-61.54,111.71,61.54,55.85,61.54,111.71-61.54,55.85-61.54,111.71,61.54,55.86,61.54,111.71-61.54,55.85-61.54,111.71,61.54,55.86,61.54,111.71-61.54,55.86-61.54,111.71"/>
      <path class="cls-2" d="M4003,113.33c0,55.85-61.54,55.85-61.54,111.7s61.54,55.85,61.54,111.71-61.54,55.85-61.54,111.7,61.54,55.85,61.54,111.71-61.54,55.85-61.54,111.7,61.54,55.85,61.54,111.7-61.54,55.85-61.54,111.71,61.54,55.85,61.54,111.7-61.54,55.85-61.54,111.7,61.54,55.85,61.54,111.71-61.54,55.85-61.54,111.71,61.54,55.85,61.54,111.71-61.54,55.85-61.54,111.71,61.54,55.85,61.54,111.71-61.54,55.85-61.54,111.71,61.54,55.85,61.54,111.71-61.54,55.85-61.54,111.71,61.54,55.85,61.54,111.7-61.54,55.85-61.54,111.71,61.54,55.85,61.54,111.71-61.54,55.85-61.54,111.71,61.54,55.86,61.54,111.71-61.54,55.85-61.54,111.71,61.54,55.86,61.54,111.71-61.54,55.86-61.54,111.71"/>
      <path class="cls-2" d="M4064.54,0c0,55.85-61.54,55.85-61.54,111.7s61.54,55.85,61.54,111.71-61.54,55.85-61.54,111.7,61.54,55.85,61.54,111.71-61.54,55.85-61.54,111.7,61.54,55.85,61.54,111.7-61.54,55.85-61.54,111.71,61.54,55.85,61.54,111.7-61.54,55.85-61.54,111.7,61.54,55.85,61.54,111.71-61.54,55.85-61.54,111.71,61.54,55.85,61.54,111.71-61.54,55.85-61.54,111.71,61.54,55.85,61.54,111.71-61.54,55.85-61.54,111.71,61.54,55.85,61.54,111.71-61.54,55.85-61.54,111.71,61.54,55.85,61.54,111.7-61.54,55.85-61.54,111.71,61.54,55.85,61.54,111.71-61.54,55.85-61.54,111.71,61.54,55.86,61.54,111.71-61.54,55.85-61.54,111.71,61.54,55.86,61.54,111.71-61.54,55.86-61.54,111.71"/>
      <path class="cls-2" d="M4128,113.33c0,55.85-61.54,55.85-61.54,111.7s61.54,55.85,61.54,111.71-61.54,55.85-61.54,111.7,61.54,55.85,61.54,111.71-61.54,55.85-61.54,111.7,61.54,55.85,61.54,111.7-61.54,55.85-61.54,111.71,61.54,55.85,61.54,111.7-61.54,55.85-61.54,111.7,61.54,55.85,61.54,111.71-61.54,55.85-61.54,111.71,61.54,55.85,61.54,111.71-61.54,55.85-61.54,111.71,61.54,55.85,61.54,111.71-61.54,55.85-61.54,111.71,61.54,55.85,61.54,111.71-61.54,55.85-61.54,111.71,61.54,55.85,61.54,111.7-61.54,55.85-61.54,111.71,61.54,55.85,61.54,111.71-61.54,55.85-61.54,111.71,61.54,55.86,61.54,111.71-61.54,55.85-61.54,111.71,61.54,55.86,61.54,111.71-61.54,55.86-61.54,111.71"/>
      <path class="cls-2" d="M4189.54,0c0,55.85-61.54,55.85-61.54,111.7s61.54,55.85,61.54,111.71-61.54,55.85-61.54,111.7,61.54,55.85,61.54,111.71-61.54,55.85-61.54,111.7,61.54,55.85,61.54,111.7-61.54,55.85-61.54,111.71,61.54,55.85,61.54,111.7-61.54,55.85-61.54,111.7,61.54,55.85,61.54,111.71-61.54,55.85-61.54,111.71,61.54,55.85,61.54,111.71-61.54,55.85-61.54,111.71,61.54,55.85,61.54,111.71-61.54,55.85-61.54,111.71,61.54,55.85,61.54,111.71-61.54,55.85-61.54,111.71,61.54,55.85,61.54,111.7-61.54,55.85-61.54,111.71,61.54,55.85,61.54,111.71-61.54,55.85-61.54,111.71,61.54,55.86,61.54,111.71-61.54,55.85-61.54,111.71,61.54,55.86,61.54,111.71-61.54,55.86-61.54,111.71"/>
      <path class="cls-2" d="M4253,113.33c0,55.85-61.54,55.85-61.54,111.7s61.54,55.85,61.54,111.71-61.54,55.85-61.54,111.7,61.54,55.85,61.54,111.71-61.54,55.85-61.54,111.7,61.54,55.85,61.54,111.7-61.54,55.85-61.54,111.71,61.54,55.85,61.54,111.7-61.54,55.85-61.54,111.7,61.54,55.85,61.54,111.71-61.54,55.85-61.54,111.71,61.54,55.85,61.54,111.71-61.54,55.85-61.54,111.71,61.54,55.85,61.54,111.71-61.54,55.85-61.54,111.71,61.54,55.85,61.54,111.71-61.54,55.85-61.54,111.71,61.54,55.85,61.54,111.7-61.54,55.85-61.54,111.71,61.54,55.85,61.54,111.71-61.54,55.85-61.54,111.71,61.54,55.86,61.54,111.71-61.54,55.85-61.54,111.71,61.54,55.86,61.54,111.71-61.54,55.86-61.54,111.71"/>
      <path class="cls-2" d="M4314.54,0c0,55.85-61.54,55.85-61.54,111.7s61.54,55.85,61.54,111.71-61.54,55.85-61.54,111.7,61.54,55.85,61.54,111.71-61.54,55.85-61.54,111.7,61.54,55.85,61.54,111.7-61.54,55.85-61.54,111.71,61.54,55.85,61.54,111.7-61.54,55.85-61.54,111.7,61.54,55.85,61.54,111.71-61.54,55.85-61.54,111.71,61.54,55.85,61.54,111.71-61.54,55.85-61.54,111.71,61.54,55.85,61.54,111.71-61.54,55.85-61.54,111.71,61.54,55.85,61.54,111.71-61.54,55.85-61.54,111.71,61.54,55.85,61.54,111.7-61.54,55.85-61.54,111.71,61.54,55.85,61.54,111.71-61.54,55.85-61.54,111.71,61.54,55.86,61.54,111.71-61.54,55.85-61.54,111.71,61.54,55.86,61.54,111.71-61.54,55.86-61.54,111.71"/>
      <path class="cls-2" d="M4378,113.33c0,55.85-61.54,55.85-61.54,111.7s61.54,55.85,61.54,111.71-61.54,55.85-61.54,111.7,61.54,55.85,61.54,111.71-61.54,55.85-61.54,111.7,61.54,55.85,61.54,111.7-61.54,55.85-61.54,111.71,61.54,55.85,61.54,111.7-61.54,55.85-61.54,111.7,61.54,55.85,61.54,111.71-61.54,55.85-61.54,111.71,61.54,55.85,61.54,111.71-61.54,55.85-61.54,111.71,61.54,55.85,61.54,111.71-61.54,55.85-61.54,111.71,61.54,55.85,61.54,111.71-61.54,55.85-61.54,111.71,61.54,55.85,61.54,111.7-61.54,55.85-61.54,111.71,61.54,55.85,61.54,111.71-61.54,55.85-61.54,111.71,61.54,55.86,61.54,111.71-61.54,55.85-61.54,111.71,61.54,55.86,61.54,111.71-61.54,55.86-61.54,111.71"/>
      <path class="cls-2" d="M4439.54,0c0,55.85-61.54,55.85-61.54,111.7s61.54,55.85,61.54,111.71-61.54,55.85-61.54,111.7,61.54,55.85,61.54,111.71-61.54,55.85-61.54,111.7,61.54,55.85,61.54,111.7-61.54,55.85-61.54,111.71,61.54,55.85,61.54,111.7-61.54,55.85-61.54,111.7,61.54,55.85,61.54,111.71-61.54,55.85-61.54,111.71,61.54,55.85,61.54,111.71-61.54,55.85-61.54,111.71,61.54,55.85,61.54,111.71-61.54,55.85-61.54,111.71,61.54,55.85,61.54,111.71-61.54,55.85-61.54,111.71,61.54,55.85,61.54,111.7-61.54,55.85-61.54,111.71,61.54,55.85,61.54,111.71-61.54,55.85-61.54,111.71,61.54,55.86,61.54,111.71-61.54,55.85-61.54,111.71,61.54,55.86,61.54,111.71-61.54,55.86-61.54,111.71"/>
      <path class="cls-2" d="M4503,113.33c0,55.85-61.54,55.85-61.54,111.7s61.54,55.85,61.54,111.71-61.54,55.85-61.54,111.7,61.54,55.85,61.54,111.71-61.54,55.85-61.54,111.7,61.54,55.85,61.54,111.7-61.54,55.85-61.54,111.71,61.54,55.85,61.54,111.7-61.54,55.85-61.54,111.7,61.54,55.85,61.54,111.71-61.54,55.85-61.54,111.71,61.54,55.85,61.54,111.71-61.54,55.85-61.54,111.71,61.54,55.85,61.54,111.71-61.54,55.85-61.54,111.71,61.54,55.85,61.54,111.71-61.54,55.85-61.54,111.71,61.54,55.85,61.54,111.7-61.54,55.85-61.54,111.71,61.54,55.85,61.54,111.71-61.54,55.85-61.54,111.71,61.54,55.86,61.54,111.71-61.54,55.85-61.54,111.71,61.54,55.86,61.54,111.71-61.54,55.86-61.54,111.71"/>
      <path class="cls-2" d="M4564.54,0c0,55.85-61.54,55.85-61.54,111.7s61.54,55.85,61.54,111.71-61.54,55.85-61.54,111.7,61.54,55.85,61.54,111.71-61.54,55.85-61.54,111.7,61.54,55.85,61.54,111.7-61.54,55.85-61.54,111.71,61.54,55.85,61.54,111.7-61.54,55.85-61.54,111.7,61.54,55.85,61.54,111.71-61.54,55.85-61.54,111.71,61.54,55.85,61.54,111.71-61.54,55.85-61.54,111.71,61.54,55.85,61.54,111.71-61.54,55.85-61.54,111.71,61.54,55.85,61.54,111.71-61.54,55.85-61.54,111.71,61.54,55.85,61.54,111.7-61.54,55.85-61.54,111.71,61.54,55.85,61.54,111.71-61.54,55.85-61.54,111.71,61.54,55.86,61.54,111.71-61.54,55.85-61.54,111.71,61.54,55.86,61.54,111.71-61.54,55.86-61.54,111.71"/>
      <path class="cls-2" d="M4628,113.33c0,55.85-61.54,55.85-61.54,111.7s61.54,55.85,61.54,111.71-61.54,55.85-61.54,111.7,61.54,55.85,61.54,111.71-61.54,55.85-61.54,111.7,61.54,55.85,61.54,111.7-61.54,55.85-61.54,111.71,61.54,55.85,61.54,111.7-61.54,55.85-61.54,111.7,61.54,55.85,61.54,111.71-61.54,55.85-61.54,111.71,61.54,55.85,61.54,111.71-61.54,55.85-61.54,111.71,61.54,55.85,61.54,111.71-61.54,55.85-61.54,111.71,61.54,55.85,61.54,111.71-61.54,55.85-61.54,111.71,61.54,55.85,61.54,111.7-61.54,55.85-61.54,111.71,61.54,55.85,61.54,111.71-61.54,55.85-61.54,111.71,61.54,55.86,61.54,111.71-61.54,55.85-61.54,111.71,61.54,55.86,61.54,111.71-61.54,55.86-61.54,111.71"/>
      <path class="cls-2" d="M4689.54,0c0,55.85-61.54,55.85-61.54,111.7s61.54,55.85,61.54,111.71-61.54,55.85-61.54,111.7,61.54,55.85,61.54,111.71-61.54,55.85-61.54,111.7,61.54,55.85,61.54,111.7-61.54,55.85-61.54,111.71,61.54,55.85,61.54,111.7-61.54,55.85-61.54,111.7,61.54,55.85,61.54,111.71-61.54,55.85-61.54,111.71,61.54,55.85,61.54,111.71-61.54,55.85-61.54,111.71,61.54,55.85,61.54,111.71-61.54,55.85-61.54,111.71,61.54,55.85,61.54,111.71-61.54,55.85-61.54,111.71,61.54,55.85,61.54,111.7-61.54,55.85-61.54,111.71,61.54,55.85,61.54,111.71-61.54,55.85-61.54,111.71,61.54,55.86,61.54,111.71-61.54,55.85-61.54,111.71,61.54,55.86,61.54,111.71-61.54,55.86-61.54,111.71"/>
      <path class="cls-2" d="M4753,113.33c0,55.85-61.54,55.85-61.54,111.7s61.54,55.85,61.54,111.71-61.54,55.85-61.54,111.7,61.54,55.85,61.54,111.71-61.54,55.85-61.54,111.7,61.54,55.85,61.54,111.7-61.54,55.85-61.54,111.71,61.54,55.85,61.54,111.7-61.54,55.85-61.54,111.7,61.54,55.85,61.54,111.71-61.54,55.85-61.54,111.71,61.54,55.85,61.54,111.71-61.54,55.85-61.54,111.71,61.54,55.85,61.54,111.71-61.54,55.85-61.54,111.71,61.54,55.85,61.54,111.71-61.54,55.85-61.54,111.71,61.54,55.85,61.54,111.7-61.54,55.85-61.54,111.71,61.54,55.85,61.54,111.71-61.54,55.85-61.54,111.71,61.54,55.86,61.54,111.71-61.54,55.85-61.54,111.71,61.54,55.86,61.54,111.71-61.54,55.86-61.54,111.71"/>
      <path class="cls-2" d="M4814.54,0c0,55.85-61.54,55.85-61.54,111.7s61.54,55.85,61.54,111.71-61.54,55.85-61.54,111.7,61.54,55.85,61.54,111.71-61.54,55.85-61.54,111.7,61.54,55.85,61.54,111.7-61.54,55.85-61.54,111.71,61.54,55.85,61.54,111.7-61.54,55.85-61.54,111.7,61.54,55.85,61.54,111.71-61.54,55.85-61.54,111.71,61.54,55.85,61.54,111.71-61.54,55.85-61.54,111.71,61.54,55.85,61.54,111.71-61.54,55.85-61.54,111.71,61.54,55.85,61.54,111.71-61.54,55.85-61.54,111.71,61.54,55.85,61.54,111.7-61.54,55.85-61.54,111.71,61.54,55.85,61.54,111.71-61.54,55.85-61.54,111.71,61.54,55.86,61.54,111.71-61.54,55.85-61.54,111.71,61.54,55.86,61.54,111.71-61.54,55.86-61.54,111.71"/>
      <path class="cls-2" d="M4878,113.33c0,55.85-61.54,55.85-61.54,111.7s61.54,55.85,61.54,111.71-61.54,55.85-61.54,111.7,61.54,55.85,61.54,111.71-61.54,55.85-61.54,111.7,61.54,55.85,61.54,111.7-61.54,55.85-61.54,111.71,61.54,55.85,61.54,111.7-61.54,55.85-61.54,111.7,61.54,55.85,61.54,111.71-61.54,55.85-61.54,111.71,61.54,55.85,61.54,111.71-61.54,55.85-61.54,111.71,61.54,55.85,61.54,111.71-61.54,55.85-61.54,111.71,61.54,55.85,61.54,111.71-61.54,55.85-61.54,111.71,61.54,55.85,61.54,111.7-61.54,55.85-61.54,111.71,61.54,55.85,61.54,111.71-61.54,55.85-61.54,111.71,61.54,55.86,61.54,111.71-61.54,55.85-61.54,111.71,61.54,55.86,61.54,111.71-61.54,55.86-61.54,111.71"/>
      <path class="cls-2" d="M4939.54,0c0,55.85-61.54,55.85-61.54,111.7s61.54,55.85,61.54,111.71-61.54,55.85-61.54,111.7,61.54,55.85,61.54,111.71-61.54,55.85-61.54,111.7,61.54,55.85,61.54,111.7-61.54,55.85-61.54,111.71,61.54,55.85,61.54,111.7-61.54,55.85-61.54,111.7,61.54,55.85,61.54,111.71-61.54,55.85-61.54,111.71,61.54,55.85,61.54,111.71-61.54,55.85-61.54,111.71,61.54,55.85,61.54,111.71-61.54,55.85-61.54,111.71,61.54,55.85,61.54,111.71-61.54,55.85-61.54,111.71,61.54,55.85,61.54,111.7-61.54,55.85-61.54,111.71,61.54,55.85,61.54,111.71-61.54,55.85-61.54,111.71,61.54,55.86,61.54,111.71-61.54,55.85-61.54,111.71,61.54,55.86,61.54,111.71-61.54,55.86-61.54,111.71"/>
      <path class="cls-2" d="M5003,113.33c0,55.85-61.54,55.85-61.54,111.7s61.54,55.85,61.54,111.71-61.54,55.85-61.54,111.7,61.54,55.85,61.54,111.71-61.54,55.85-61.54,111.7,61.54,55.85,61.54,111.7-61.54,55.85-61.54,111.71,61.54,55.85,61.54,111.7-61.54,55.85-61.54,111.7,61.54,55.85,61.54,111.71-61.54,55.85-61.54,111.71,61.54,55.85,61.54,111.71-61.54,55.85-61.54,111.71,61.54,55.85,61.54,111.71-61.54,55.85-61.54,111.71,61.54,55.85,61.54,111.71-61.54,55.85-61.54,111.71,61.54,55.85,61.54,111.7-61.54,55.85-61.54,111.71,61.54,55.85,61.54,111.71-61.54,55.85-61.54,111.71,61.54,55.86,61.54,111.71-61.54,55.85-61.54,111.71,61.54,55.86,61.54,111.71-61.54,55.86-61.54,111.71"/>
    </g>
  </g>
</svg>