<?xml version="1.0" encoding="UTF-8"?>
<svg id="Layer_1" data-name="Layer 1" xmlns="http://www.w3.org/2000/svg" xmlns:xlink="http://www.w3.org/1999/xlink" viewBox="0 0 3009.8 1510.24">
  <defs>
    <style>
      .cls-1, .cls-2 {
        fill: none;
      }

      .cls-2 {
        stroke: #e6e6e6;
        stroke-miterlimit: 10;
        stroke-width: 6px;
      }

      .cls-3 {
        fill: #fff;
      }

      .cls-4 {
        clip-path: url(#clippath);
      }
    </style>
    <clipPath id="clippath">
      <rect class="cls-1" x="2.34" y="5.96" width="3000" height="1500"/>
    </clipPath>
  </defs>
  <g class="cls-4">
    <rect class="cls-3" x="2.34" y="5.96" width="3000" height="1500"/>
    <g>
      <polygon class="cls-2" points="2866.2 1507.24 3002.56 1507.24 2866.2 1370.88 2866.2 1507.24"/>
      <line class="cls-2" x1="2865.76" y1="1504.68" x2="2729.39" y2="1368.32"/>
      <polygon class="cls-2" points="2593.47 1507.24 2729.83 1507.24 2593.47 1370.88 2593.47 1507.24"/>
      <line class="cls-2" x1="2593.03" y1="1504.68" x2="2456.67" y2="1368.32"/>
      <polygon class="cls-2" points="2320.74 1507.24 2457.11 1507.24 2320.74 1370.88 2320.74 1507.24"/>
      <line class="cls-2" x1="2320.3" y1="1504.68" x2="2183.94" y2="1368.32"/>
      <polygon class="cls-2" points="2048.02 1507.24 2184.38 1507.24 2048.02 1370.88 2048.02 1507.24"/>
      <line class="cls-2" x1="2047.58" y1="1504.68" x2="1911.21" y2="1368.32"/>
      <polygon class="cls-2" points="1775.29 1507.24 1911.65 1507.24 1775.29 1370.88 1775.29 1507.24"/>
      <line class="cls-2" x1="1774.85" y1="1504.68" x2="1638.48" y2="1368.32"/>
      <polygon class="cls-2" points="1502.56 1507.24 1638.92 1507.24 1502.56 1370.88 1502.56 1507.24"/>
      <line class="cls-2" x1="1502.12" y1="1504.68" x2="1365.76" y2="1368.32"/>
      <polygon class="cls-2" points="1229.83 1507.24 1366.2 1507.24 1229.83 1370.88 1229.83 1507.24"/>
      <line class="cls-2" x1="1229.39" y1="1504.68" x2="1093.03" y2="1368.32"/>
      <polygon class="cls-2" points="957.11 1507.24 1093.47 1507.24 957.11 1370.88 957.11 1507.24"/>
      <line class="cls-2" x1="956.67" y1="1504.68" x2="820.3" y2="1368.32"/>
      <polygon class="cls-2" points="684.38 1507.24 820.74 1507.24 684.38 1370.88 684.38 1507.24"/>
      <line class="cls-2" x1="683.94" y1="1504.68" x2="547.58" y2="1368.32"/>
      <polygon class="cls-2" points="411.65 1507.24 548.02 1507.24 411.65 1370.88 411.65 1507.24"/>
      <line class="cls-2" x1="411.21" y1="1504.68" x2="274.85" y2="1368.32"/>
      <polygon class="cls-2" points="138.92 1507.24 275.29 1507.24 138.92 1370.88 138.92 1507.24"/>
      <line class="cls-2" x1="138.48" y1="1504.68" x2="2.12" y2="1368.32"/>
      <polygon class="cls-2" points="2866.2 1370.88 3002.56 1370.88 2866.2 1234.52 2866.2 1370.88"/>
      <line class="cls-2" x1="2865.76" y1="1368.32" x2="2729.39" y2="1231.95"/>
      <polygon class="cls-2" points="2593.47 1370.88 2729.83 1370.88 2593.47 1234.52 2593.47 1370.88"/>
      <line class="cls-2" x1="2593.03" y1="1368.32" x2="2456.67" y2="1231.95"/>
      <polygon class="cls-2" points="2320.74 1370.88 2457.11 1370.88 2320.74 1234.52 2320.74 1370.88"/>
      <line class="cls-2" x1="2320.3" y1="1368.32" x2="2183.94" y2="1231.95"/>
      <polygon class="cls-2" points="2048.02 1370.88 2184.38 1370.88 2048.02 1234.52 2048.02 1370.88"/>
      <line class="cls-2" x1="2047.58" y1="1368.32" x2="1911.21" y2="1231.95"/>
      <polygon class="cls-2" points="1775.29 1370.88 1911.65 1370.88 1775.29 1234.52 1775.29 1370.88"/>
      <line class="cls-2" x1="1774.85" y1="1368.32" x2="1638.48" y2="1231.95"/>
      <polygon class="cls-2" points="1502.56 1370.88 1638.92 1370.88 1502.56 1234.52 1502.56 1370.88"/>
      <line class="cls-2" x1="1502.12" y1="1368.32" x2="1365.76" y2="1231.95"/>
      <polygon class="cls-2" points="1229.83 1370.88 1366.2 1370.88 1229.83 1234.52 1229.83 1370.88"/>
      <line class="cls-2" x1="1229.39" y1="1368.32" x2="1093.03" y2="1231.95"/>
      <polygon class="cls-2" points="957.11 1370.88 1093.47 1370.88 957.11 1234.52 957.11 1370.88"/>
      <line class="cls-2" x1="956.67" y1="1368.32" x2="820.3" y2="1231.95"/>
      <polygon class="cls-2" points="684.38 1370.88 820.74 1370.88 684.38 1234.52 684.38 1370.88"/>
      <line class="cls-2" x1="683.94" y1="1368.32" x2="547.58" y2="1231.95"/>
      <polygon class="cls-2" points="411.65 1370.88 548.02 1370.88 411.65 1234.52 411.65 1370.88"/>
      <line class="cls-2" x1="411.21" y1="1368.32" x2="274.85" y2="1231.95"/>
      <polygon class="cls-2" points="138.92 1370.88 275.29 1370.88 138.92 1234.52 138.92 1370.88"/>
      <line class="cls-2" x1="138.48" y1="1368.32" x2="2.12" y2="1231.95"/>
      <polygon class="cls-2" points="2866.2 1234.52 3002.56 1234.52 2866.2 1098.15 2866.2 1234.52"/>
      <line class="cls-2" x1="2865.76" y1="1231.95" x2="2729.39" y2="1095.59"/>
      <polygon class="cls-2" points="2593.47 1234.52 2729.83 1234.52 2593.47 1098.15 2593.47 1234.52"/>
      <line class="cls-2" x1="2593.03" y1="1231.95" x2="2456.67" y2="1095.59"/>
      <polygon class="cls-2" points="2320.74 1234.52 2457.11 1234.52 2320.74 1098.15 2320.74 1234.52"/>
      <line class="cls-2" x1="2320.3" y1="1231.95" x2="2183.94" y2="1095.59"/>
      <polygon class="cls-2" points="2048.02 1234.52 2184.38 1234.52 2048.02 1098.15 2048.02 1234.52"/>
      <line class="cls-2" x1="2047.58" y1="1231.95" x2="1911.21" y2="1095.59"/>
      <polygon class="cls-2" points="1775.29 1234.52 1911.65 1234.52 1775.29 1098.15 1775.29 1234.52"/>
      <line class="cls-2" x1="1774.85" y1="1231.95" x2="1638.48" y2="1095.59"/>
      <polygon class="cls-2" points="1502.56 1234.52 1638.92 1234.52 1502.56 1098.15 1502.56 1234.52"/>
      <line class="cls-2" x1="1502.12" y1="1231.95" x2="1365.76" y2="1095.59"/>
      <polygon class="cls-2" points="1229.83 1234.52 1366.2 1234.52 1229.83 1098.15 1229.83 1234.52"/>
      <line class="cls-2" x1="1229.39" y1="1231.95" x2="1093.03" y2="1095.59"/>
      <polygon class="cls-2" points="957.11 1234.52 1093.47 1234.52 957.11 1098.15 957.11 1234.52"/>
      <line class="cls-2" x1="956.67" y1="1231.95" x2="820.3" y2="1095.59"/>
      <polygon class="cls-2" points="684.38 1234.52 820.74 1234.52 684.38 1098.15 684.38 1234.52"/>
      <line class="cls-2" x1="683.94" y1="1231.95" x2="547.58" y2="1095.59"/>
      <polygon class="cls-2" points="411.65 1234.52 548.02 1234.52 411.65 1098.15 411.65 1234.52"/>
      <line class="cls-2" x1="411.21" y1="1231.95" x2="274.85" y2="1095.59"/>
      <polygon class="cls-2" points="138.92 1234.52 275.29 1234.52 138.92 1098.15 138.92 1234.52"/>
      <line class="cls-2" x1="138.48" y1="1231.95" x2="2.12" y2="1095.59"/>
      <polygon class="cls-2" points="2866.2 1098.15 3002.56 1098.15 2866.2 961.79 2866.2 1098.15"/>
      <line class="cls-2" x1="2865.76" y1="1095.59" x2="2729.39" y2="959.23"/>
      <polygon class="cls-2" points="2593.47 1098.15 2729.83 1098.15 2593.47 961.79 2593.47 1098.15"/>
      <line class="cls-2" x1="2593.03" y1="1095.59" x2="2456.67" y2="959.23"/>
      <polygon class="cls-2" points="2320.74 1098.15 2457.11 1098.15 2320.74 961.79 2320.74 1098.15"/>
      <line class="cls-2" x1="2320.3" y1="1095.59" x2="2183.94" y2="959.23"/>
      <polygon class="cls-2" points="2048.02 1098.15 2184.38 1098.15 2048.02 961.79 2048.02 1098.15"/>
      <line class="cls-2" x1="2047.58" y1="1095.59" x2="1911.21" y2="959.23"/>
      <polygon class="cls-2" points="1775.29 1098.15 1911.65 1098.15 1775.29 961.79 1775.29 1098.15"/>
      <line class="cls-2" x1="1774.85" y1="1095.59" x2="1638.48" y2="959.23"/>
      <polygon class="cls-2" points="1502.56 1098.15 1638.92 1098.15 1502.56 961.79 1502.56 1098.15"/>
      <line class="cls-2" x1="1502.12" y1="1095.59" x2="1365.76" y2="959.23"/>
      <polygon class="cls-2" points="1229.83 1098.15 1366.2 1098.15 1229.83 961.79 1229.83 1098.15"/>
      <line class="cls-2" x1="1229.39" y1="1095.59" x2="1093.03" y2="959.23"/>
      <polygon class="cls-2" points="957.11 1098.15 1093.47 1098.15 957.11 961.79 957.11 1098.15"/>
      <line class="cls-2" x1="956.67" y1="1095.59" x2="820.3" y2="959.23"/>
      <polygon class="cls-2" points="684.38 1098.15 820.74 1098.15 684.38 961.79 684.38 1098.15"/>
      <line class="cls-2" x1="683.94" y1="1095.59" x2="547.58" y2="959.23"/>
      <polygon class="cls-2" points="411.65 1098.15 548.02 1098.15 411.65 961.79 411.65 1098.15"/>
      <line class="cls-2" x1="411.21" y1="1095.59" x2="274.85" y2="959.23"/>
      <polygon class="cls-2" points="138.92 1098.15 275.29 1098.15 138.92 961.79 138.92 1098.15"/>
      <line class="cls-2" x1="138.48" y1="1095.59" x2="2.12" y2="959.23"/>
      <polygon class="cls-2" points="2866.2 961.79 3002.56 961.79 2866.2 825.42 2866.2 961.79"/>
      <line class="cls-2" x1="2865.76" y1="959.23" x2="2729.39" y2="822.86"/>
      <polygon class="cls-2" points="2593.47 961.79 2729.83 961.79 2593.47 825.42 2593.47 961.79"/>
      <line class="cls-2" x1="2593.03" y1="959.23" x2="2456.67" y2="822.86"/>
      <polygon class="cls-2" points="2320.74 961.79 2457.11 961.79 2320.74 825.42 2320.74 961.79"/>
      <line class="cls-2" x1="2320.3" y1="959.23" x2="2183.94" y2="822.86"/>
      <polygon class="cls-2" points="2048.02 961.79 2184.38 961.79 2048.02 825.42 2048.02 961.79"/>
      <line class="cls-2" x1="2047.58" y1="959.23" x2="1911.21" y2="822.86"/>
      <polygon class="cls-2" points="1775.29 961.79 1911.65 961.79 1775.29 825.42 1775.29 961.79"/>
      <line class="cls-2" x1="1774.85" y1="959.23" x2="1638.48" y2="822.86"/>
      <polygon class="cls-2" points="1502.56 961.79 1638.92 961.79 1502.56 825.42 1502.56 961.79"/>
      <line class="cls-2" x1="1502.12" y1="959.23" x2="1365.76" y2="822.86"/>
      <polygon class="cls-2" points="1229.83 961.79 1366.2 961.79 1229.83 825.42 1229.83 961.79"/>
      <line class="cls-2" x1="1229.39" y1="959.23" x2="1093.03" y2="822.86"/>
      <polygon class="cls-2" points="957.11 961.79 1093.47 961.79 957.11 825.42 957.11 961.79"/>
      <line class="cls-2" x1="956.67" y1="959.23" x2="820.3" y2="822.86"/>
      <polygon class="cls-2" points="684.38 961.79 820.74 961.79 684.38 825.42 684.38 961.79"/>
      <line class="cls-2" x1="683.94" y1="959.23" x2="547.58" y2="822.86"/>
      <polygon class="cls-2" points="411.65 961.79 548.02 961.79 411.65 825.42 411.65 961.79"/>
      <line class="cls-2" x1="411.21" y1="959.23" x2="274.85" y2="822.86"/>
      <polygon class="cls-2" points="138.92 961.79 275.29 961.79 138.92 825.42 138.92 961.79"/>
      <line class="cls-2" x1="138.48" y1="959.23" x2="2.12" y2="822.86"/>
      <polygon class="cls-2" points="2866.2 825.42 3002.56 825.42 2866.2 689.06 2866.2 825.42"/>
      <line class="cls-2" x1="2865.76" y1="822.86" x2="2729.39" y2="686.5"/>
      <polygon class="cls-2" points="2593.47 825.42 2729.83 825.42 2593.47 689.06 2593.47 825.42"/>
      <line class="cls-2" x1="2593.03" y1="822.86" x2="2456.67" y2="686.5"/>
      <polygon class="cls-2" points="2320.74 825.42 2457.11 825.42 2320.74 689.06 2320.74 825.42"/>
      <line class="cls-2" x1="2320.3" y1="822.86" x2="2183.94" y2="686.5"/>
      <polygon class="cls-2" points="2048.02 825.42 2184.38 825.42 2048.02 689.06 2048.02 825.42"/>
      <line class="cls-2" x1="2047.58" y1="822.86" x2="1911.21" y2="686.5"/>
      <polygon class="cls-2" points="1775.29 825.42 1911.65 825.42 1775.29 689.06 1775.29 825.42"/>
      <line class="cls-2" x1="1774.85" y1="822.86" x2="1638.48" y2="686.5"/>
      <polygon class="cls-2" points="1502.56 825.42 1638.92 825.42 1502.56 689.06 1502.56 825.42"/>
      <line class="cls-2" x1="1502.12" y1="822.86" x2="1365.76" y2="686.5"/>
      <polygon class="cls-2" points="1229.83 825.42 1366.2 825.42 1229.83 689.06 1229.83 825.42"/>
      <line class="cls-2" x1="1229.39" y1="822.86" x2="1093.03" y2="686.5"/>
      <polygon class="cls-2" points="957.11 825.42 1093.47 825.42 957.11 689.06 957.11 825.42"/>
      <line class="cls-2" x1="956.67" y1="822.86" x2="820.3" y2="686.5"/>
      <polygon class="cls-2" points="684.38 825.42 820.74 825.42 684.38 689.06 684.38 825.42"/>
      <line class="cls-2" x1="683.94" y1="822.86" x2="547.58" y2="686.5"/>
      <polygon class="cls-2" points="411.65 825.42 548.02 825.42 411.65 689.06 411.65 825.42"/>
      <line class="cls-2" x1="411.21" y1="822.86" x2="274.85" y2="686.5"/>
      <polygon class="cls-2" points="138.92 825.42 275.29 825.42 138.92 689.06 138.92 825.42"/>
      <line class="cls-2" x1="138.48" y1="822.86" x2="2.12" y2="686.5"/>
      <polygon class="cls-2" points="2866.2 689.06 3002.56 689.06 2866.2 552.7 2866.2 689.06"/>
      <line class="cls-2" x1="2865.76" y1="686.5" x2="2729.39" y2="550.14"/>
      <polygon class="cls-2" points="2593.47 689.06 2729.83 689.06 2593.47 552.7 2593.47 689.06"/>
      <line class="cls-2" x1="2593.03" y1="686.5" x2="2456.67" y2="550.14"/>
      <polygon class="cls-2" points="2320.74 689.06 2457.11 689.06 2320.74 552.7 2320.74 689.06"/>
      <line class="cls-2" x1="2320.3" y1="686.5" x2="2183.94" y2="550.14"/>
      <polygon class="cls-2" points="2048.02 689.06 2184.38 689.06 2048.02 552.7 2048.02 689.06"/>
      <line class="cls-2" x1="2047.58" y1="686.5" x2="1911.21" y2="550.14"/>
      <polygon class="cls-2" points="1775.29 689.06 1911.65 689.06 1775.29 552.7 1775.29 689.06"/>
      <line class="cls-2" x1="1774.85" y1="686.5" x2="1638.48" y2="550.14"/>
      <polygon class="cls-2" points="1502.56 689.06 1638.92 689.06 1502.56 552.7 1502.56 689.06"/>
      <line class="cls-2" x1="1502.12" y1="686.5" x2="1365.76" y2="550.14"/>
      <polygon class="cls-2" points="1229.83 689.06 1366.2 689.06 1229.83 552.7 1229.83 689.06"/>
      <line class="cls-2" x1="1229.39" y1="686.5" x2="1093.03" y2="550.14"/>
      <polygon class="cls-2" points="957.11 689.06 1093.47 689.06 957.11 552.7 957.11 689.06"/>
      <line class="cls-2" x1="956.67" y1="686.5" x2="820.3" y2="550.14"/>
      <polygon class="cls-2" points="684.38 689.06 820.74 689.06 684.38 552.7 684.38 689.06"/>
      <line class="cls-2" x1="683.94" y1="686.5" x2="547.58" y2="550.14"/>
      <polygon class="cls-2" points="411.65 689.06 548.02 689.06 411.65 552.7 411.65 689.06"/>
      <line class="cls-2" x1="411.21" y1="686.5" x2="274.85" y2="550.14"/>
      <polygon class="cls-2" points="138.92 689.06 275.29 689.06 138.92 552.7 138.92 689.06"/>
      <line class="cls-2" x1="138.48" y1="686.5" x2="2.12" y2="550.14"/>
      <polygon class="cls-2" points="2866.2 552.7 3002.56 552.7 2866.2 416.33 2866.2 552.7"/>
      <line class="cls-2" x1="2865.76" y1="550.14" x2="2729.39" y2="413.77"/>
      <polygon class="cls-2" points="2593.47 552.7 2729.83 552.7 2593.47 416.33 2593.47 552.7"/>
      <line class="cls-2" x1="2593.03" y1="550.14" x2="2456.67" y2="413.77"/>
      <polygon class="cls-2" points="2320.74 552.7 2457.11 552.7 2320.74 416.33 2320.74 552.7"/>
      <line class="cls-2" x1="2320.3" y1="550.14" x2="2183.94" y2="413.77"/>
      <polygon class="cls-2" points="2048.02 552.7 2184.38 552.7 2048.02 416.33 2048.02 552.7"/>
      <line class="cls-2" x1="2047.58" y1="550.14" x2="1911.21" y2="413.77"/>
      <polygon class="cls-2" points="1775.29 552.7 1911.65 552.7 1775.29 416.33 1775.29 552.7"/>
      <line class="cls-2" x1="1774.85" y1="550.14" x2="1638.48" y2="413.77"/>
      <polygon class="cls-2" points="1502.56 552.7 1638.92 552.7 1502.56 416.33 1502.56 552.7"/>
      <line class="cls-2" x1="1502.12" y1="550.14" x2="1365.76" y2="413.77"/>
      <polygon class="cls-2" points="1229.83 552.7 1366.2 552.7 1229.83 416.33 1229.83 552.7"/>
      <line class="cls-2" x1="1229.39" y1="550.14" x2="1093.03" y2="413.77"/>
      <polygon class="cls-2" points="957.11 552.7 1093.47 552.7 957.11 416.33 957.11 552.7"/>
      <line class="cls-2" x1="956.67" y1="550.14" x2="820.3" y2="413.77"/>
      <polygon class="cls-2" points="684.38 552.7 820.74 552.7 684.38 416.33 684.38 552.7"/>
      <line class="cls-2" x1="683.94" y1="550.14" x2="547.58" y2="413.77"/>
      <polygon class="cls-2" points="411.65 552.7 548.02 552.7 411.65 416.33 411.65 552.7"/>
      <line class="cls-2" x1="411.21" y1="550.14" x2="274.85" y2="413.77"/>
      <polygon class="cls-2" points="138.92 552.7 275.29 552.7 138.92 416.33 138.92 552.7"/>
      <line class="cls-2" x1="138.48" y1="550.14" x2="2.12" y2="413.77"/>
      <polygon class="cls-2" points="2866.2 416.33 3002.56 416.33 2866.2 279.97 2866.2 416.33"/>
      <line class="cls-2" x1="2865.76" y1="413.77" x2="2729.39" y2="277.41"/>
      <polygon class="cls-2" points="2593.47 416.33 2729.83 416.33 2593.47 279.97 2593.47 416.33"/>
      <line class="cls-2" x1="2593.03" y1="413.77" x2="2456.67" y2="277.41"/>
      <polygon class="cls-2" points="2320.74 416.33 2457.11 416.33 2320.74 279.97 2320.74 416.33"/>
      <line class="cls-2" x1="2320.3" y1="413.77" x2="2183.94" y2="277.41"/>
      <polygon class="cls-2" points="2048.02 416.33 2184.38 416.33 2048.02 279.97 2048.02 416.33"/>
      <line class="cls-2" x1="2047.58" y1="413.77" x2="1911.21" y2="277.41"/>
      <polygon class="cls-2" points="1775.29 416.33 1911.65 416.33 1775.29 279.97 1775.29 416.33"/>
      <line class="cls-2" x1="1774.85" y1="413.77" x2="1638.48" y2="277.41"/>
      <polygon class="cls-2" points="1502.56 416.33 1638.92 416.33 1502.56 279.97 1502.56 416.33"/>
      <line class="cls-2" x1="1502.12" y1="413.77" x2="1365.76" y2="277.41"/>
      <polygon class="cls-2" points="1229.83 416.33 1366.2 416.33 1229.83 279.97 1229.83 416.33"/>
      <line class="cls-2" x1="1229.39" y1="413.77" x2="1093.03" y2="277.41"/>
      <polygon class="cls-2" points="957.11 416.33 1093.47 416.33 957.11 279.97 957.11 416.33"/>
      <line class="cls-2" x1="956.67" y1="413.77" x2="820.3" y2="277.41"/>
      <polygon class="cls-2" points="684.38 416.33 820.74 416.33 684.38 279.97 684.38 416.33"/>
      <line class="cls-2" x1="683.94" y1="413.77" x2="547.58" y2="277.41"/>
      <polygon class="cls-2" points="411.65 416.33 548.02 416.33 411.65 279.97 411.65 416.33"/>
      <line class="cls-2" x1="411.21" y1="413.77" x2="274.85" y2="277.41"/>
      <polygon class="cls-2" points="138.92 416.33 275.29 416.33 138.92 279.97 138.92 416.33"/>
      <line class="cls-2" x1="138.48" y1="413.77" x2="2.12" y2="277.41"/>
      <polygon class="cls-2" points="2866.2 279.97 3002.56 279.97 2866.2 143.61 2866.2 279.97"/>
      <line class="cls-2" x1="2865.76" y1="277.41" x2="2729.39" y2="141.05"/>
      <polygon class="cls-2" points="2593.47 279.97 2729.83 279.97 2593.47 143.61 2593.47 279.97"/>
      <line class="cls-2" x1="2593.03" y1="277.41" x2="2456.67" y2="141.05"/>
      <polygon class="cls-2" points="2320.74 279.97 2457.11 279.97 2320.74 143.61 2320.74 279.97"/>
      <line class="cls-2" x1="2320.3" y1="277.41" x2="2183.94" y2="141.05"/>
      <polygon class="cls-2" points="2048.02 279.97 2184.38 279.97 2048.02 143.61 2048.02 279.97"/>
      <line class="cls-2" x1="2047.58" y1="277.41" x2="1911.21" y2="141.05"/>
      <polygon class="cls-2" points="1775.29 279.97 1911.65 279.97 1775.29 143.61 1775.29 279.97"/>
      <line class="cls-2" x1="1774.85" y1="277.41" x2="1638.48" y2="141.05"/>
      <polygon class="cls-2" points="1502.56 279.97 1638.92 279.97 1502.56 143.61 1502.56 279.97"/>
      <line class="cls-2" x1="1502.12" y1="277.41" x2="1365.76" y2="141.05"/>
      <polygon class="cls-2" points="1229.83 279.97 1366.2 279.97 1229.83 143.61 1229.83 279.97"/>
      <line class="cls-2" x1="1229.39" y1="277.41" x2="1093.03" y2="141.05"/>
      <polygon class="cls-2" points="957.11 279.97 1093.47 279.97 957.11 143.61 957.11 279.97"/>
      <line class="cls-2" x1="956.67" y1="277.41" x2="820.3" y2="141.05"/>
      <polygon class="cls-2" points="684.38 279.97 820.74 279.97 684.38 143.61 684.38 279.97"/>
      <line class="cls-2" x1="683.94" y1="277.41" x2="547.58" y2="141.05"/>
      <polygon class="cls-2" points="411.65 279.97 548.02 279.97 411.65 143.61 411.65 279.97"/>
      <line class="cls-2" x1="411.21" y1="277.41" x2="274.85" y2="141.05"/>
      <polygon class="cls-2" points="138.92 279.97 275.29 279.97 138.92 143.61 138.92 279.97"/>
      <line class="cls-2" x1="138.48" y1="277.41" x2="2.12" y2="141.05"/>
      <polygon class="cls-2" points="2866.2 143.61 3002.56 143.61 2866.2 7.24 2866.2 143.61"/>
      <line class="cls-2" x1="2865.76" y1="141.05" x2="2729.39" y2="4.68"/>
      <polygon class="cls-2" points="2593.47 143.61 2729.83 143.61 2593.47 7.24 2593.47 143.61"/>
      <line class="cls-2" x1="2593.03" y1="141.05" x2="2456.67" y2="4.68"/>
      <polygon class="cls-2" points="2320.74 143.61 2457.11 143.61 2320.74 7.24 2320.74 143.61"/>
      <line class="cls-2" x1="2320.3" y1="141.05" x2="2183.94" y2="4.68"/>
      <polygon class="cls-2" points="2048.02 143.61 2184.38 143.61 2048.02 7.24 2048.02 143.61"/>
      <line class="cls-2" x1="2047.58" y1="141.05" x2="1911.21" y2="4.68"/>
      <polygon class="cls-2" points="1775.29 143.61 1911.65 143.61 1775.29 7.24 1775.29 143.61"/>
      <line class="cls-2" x1="1774.85" y1="141.05" x2="1638.48" y2="4.68"/>
      <polygon class="cls-2" points="1502.56 143.61 1638.92 143.61 1502.56 7.24 1502.56 143.61"/>
      <line class="cls-2" x1="1502.12" y1="141.05" x2="1365.76" y2="4.68"/>
      <polygon class="cls-2" points="1229.83 143.61 1366.2 143.61 1229.83 7.24 1229.83 143.61"/>
      <line class="cls-2" x1="1229.39" y1="141.05" x2="1093.03" y2="4.68"/>
      <polygon class="cls-2" points="957.11 143.61 1093.47 143.61 957.11 7.24 957.11 143.61"/>
      <line class="cls-2" x1="956.67" y1="141.05" x2="820.3" y2="4.68"/>
      <polygon class="cls-2" points="684.38 143.61 820.74 143.61 684.38 7.24 684.38 143.61"/>
      <line class="cls-2" x1="683.94" y1="141.05" x2="547.58" y2="4.68"/>
      <polygon class="cls-2" points="411.65 143.61 548.02 143.61 411.65 7.24 411.65 143.61"/>
      <line class="cls-2" x1="411.21" y1="141.05" x2="274.85" y2="4.68"/>
      <polygon class="cls-2" points="138.92 143.61 275.29 143.61 138.92 7.24 138.92 143.61"/>
      <line class="cls-2" x1="138.48" y1="141.05" x2="2.12" y2="4.68"/>
    </g>
  </g>
</svg>