<?xml version="1.0" encoding="UTF-8"?>
<svg id="Layer_1" data-name="Layer 1" xmlns="http://www.w3.org/2000/svg" viewBox="0 0 4800 2440">
  <defs>
    <style>
      .cls-1 {
        fill: #2e7899;
      }
    </style>
  </defs>
  <g id="pattern1">
    <path class="cls-1" d="M4800,34.12v-13.44c-12.86,1.47-25.25,3.18-37.25,5.1-170.55,27.24-260.12,96.28-438.79,127.04-19.49-7.12-39.33-14.29-59.97-21.25-21.91-7.39-44.73-14.56-69-21.21,202.28-10.47,296.52-68.83,433.07-110.34h-44.27c-124.17,43.06-220.66,95.72-436.19,98.54-69.61-15.59-151.83-26.29-256.85-26.72-59.12-14.54-109.47-33.3-160.1-51.95-18.21-6.71-36.45-13.4-55.15-19.87h-42.63c34.08,10.61,65.93,22.33,97.78,34.06,35.86,13.21,71.74,26.44,110.86,38.16-40.12.81-76.9,2.77-110.86,5.65-11.25.95-22.2,2.01-32.85,3.16-91.62-34.72-191.54-66.62-382.12-66.62-58.5,0-108.47,4.27-152.94,11.37-170.55,27.24-260.12,96.28-438.79,127.04-19.49-7.12-39.33-14.29-59.97-21.25-21.91-7.39-44.73-14.56-69-21.21,202.28-10.47,296.52-68.83,433.07-110.34h-44.27c-124.17,43.06-220.66,95.72-436.19,98.54-69.61-15.59-151.83-26.29-256.85-26.72-59.12-14.54-109.47-33.3-160.1-51.95-18.21-6.71-36.45-13.4-55.15-19.87h-42.63c34.08,10.61,65.93,22.33,97.78,34.06,35.86,13.21,71.74,26.44,110.86,38.16-40.12.81-76.9,2.77-110.86,5.65-11.25.95-22.2,2.01-32.85,3.16-91.62-34.72-191.54-66.62-382.12-66.62-58.5,0-108.47,4.27-152.94,11.37-170.55,27.24-260.12,96.28-438.79,127.04-19.49-7.12-39.33-14.29-59.97-21.25-21.91-7.39-44.73-14.56-69-21.21,202.28-10.47,296.52-68.83,433.07-110.34h-44.27c-124.17,43.06-220.66,95.72-436.19,98.54-69.61-15.59-151.83-26.29-256.85-26.72-59.12-14.54-109.47-33.3-160.1-51.95-18.21-6.71-36.45-13.4-55.15-19.87h-42.63c34.08,10.61,65.93,22.33,97.78,34.06,35.86,13.21,71.74,26.44,110.86,38.16-40.12.81-76.9,2.77-110.86,5.65-11.25.95-22.2,2.01-32.85,3.16C406.19,46.31,306.28,14.41,115.69,14.41c-42.72,0-80.89,2.28-115.69,6.27v13.44c34.78-4.06,72.93-6.38,115.69-6.38,170.91,0,268.36,26.08,353.14,56.74-46.79,6.09-87.69,14.03-124.48,23.05-60.88-15.82-126.74-26.53-205.62-26.53-52.41,0-97.89,3.46-138.73,9.35v13.51c40.82-5.99,86.27-9.52,138.73-9.52,67.17,0,124.91,7.95,178.33,20.27-45.43,12.42-84.64,26.32-121.6,40-20.93-1.44-43.02-2.21-66.52-2.21-48.53,0-90.79,3.33-128.93,9.02v13.56c38.18-5.83,80.42-9.25,128.93-9.25,12.03,0,23.69.21,35.02.61C111.14,186,60.67,204.09,0,215.17v13.56c197.31-35.34,285.87-143.6,684.18-143.6,173.48,0,284.8,28.2,379.82,60.52,127.45,43.35,225.58,94.09,405.06,94.09,34.33,0,65.22-1.96,93.69-5.42,224.93-27.38,298.93-149.19,721.43-149.19,173.48,0,284.8,28.2,379.82,60.52,127.45,43.35,225.58,94.09,405.06,94.09,34.33,0,65.22-1.96,93.69-5.42,224.93-27.38,298.93-149.19,721.43-149.19,173.48,0,284.8,28.2,379.82,60.52,127.45,43.35,225.58,94.09,405.06,94.09,34.33,0,65.22-1.96,93.69-5.42,12.88-1.57,25.27-3.44,37.25-5.59v-13.56c-11.98,2.19-24.37,4.1-37.25,5.7-28.46,3.54-59.34,5.54-93.69,5.54-17.93,0-35.03-.53-51.44-1.5,45.91-16.77,91.83-32.31,145.13-43.26,12.01-2.47,24.4-4.7,37.25-6.67v-13.56c-12.85,1.92-25.25,4.1-37.25,6.51-65.96,13.27-120.31,33.49-176.75,54.46-41.26-4.13-78.11-11.21-112.65-20.12,102.01-31.54,179.62-70.63,289.4-92.05,12.01-2.34,24.4-4.47,37.25-6.36v-13.51c-12.85,1.85-25.24,3.95-37.25,6.25-119.32,22.88-200.45,66.35-313.82,98.99-34.52-10-67.15-21.64-100.2-33.71,164.29-32.4,252.96-96.4,414.02-122.57,11.99-1.95,24.39-3.69,37.25-5.19ZM1562.75,220.87c-28.46,3.54-59.34,5.54-93.69,5.54-17.93,0-35.03-.53-51.44-1.5,45.91-16.77,91.83-32.31,145.13-43.26,47.71-9.8,101.34-15.91,166.18-15.91,12.03,0,23.69.21,35.02.61-63.24,23.54-123.12,44.83-201.19,54.53ZM1795.45,154.61c-20.93-1.44-43.02-2.21-66.52-2.21-64.89,0-118.56,5.95-166.18,15.53-65.96,13.27-120.31,33.49-176.75,54.46-41.26-4.13-78.11-11.21-112.65-20.12,102.01-31.54,179.62-70.63,289.4-92.05,50.15-9.78,107-15.88,175.98-15.88s124.91,7.95,178.33,20.27c-45.43,12.42-84.64,26.32-121.6,40ZM1944.35,107.53c-60.88-15.82-126.74-26.53-205.62-26.53-68.9,0-125.82,5.98-175.98,15.59-119.32,22.88-200.45,66.35-313.82,98.99-34.52-10-67.15-21.64-100.2-33.71,164.29-32.4,252.96-96.4,414.02-122.57,44.44-7.22,94.37-11.56,152.94-11.56,170.91,0,268.36,26.08,353.14,56.74-46.79,6.09-87.69,14.03-124.48,23.05ZM3162.75,220.87c-28.46,3.54-59.34,5.54-93.69,5.54-17.93,0-35.03-.53-51.44-1.5,45.91-16.77,91.83-32.31,145.13-43.26,47.71-9.8,101.34-15.91,166.18-15.91,12.03,0,23.69.21,35.02.61-63.24,23.54-123.12,44.83-201.19,54.53ZM3395.45,154.61c-20.93-1.44-43.02-2.21-66.52-2.21-64.89,0-118.56,5.95-166.18,15.53-65.96,13.27-120.31,33.49-176.75,54.46-41.26-4.13-78.11-11.21-112.65-20.12,102.01-31.54,179.62-70.63,289.4-92.05,50.15-9.78,107-15.88,175.98-15.88s124.91,7.95,178.33,20.27c-45.43,12.42-84.64,26.32-121.6,40ZM3544.35,107.53c-60.88-15.82-126.74-26.53-205.62-26.53-68.9,0-125.82,5.98-175.98,15.59-119.32,22.88-200.45,66.35-313.82,98.99-34.52-10-67.15-21.64-100.2-33.71,164.29-32.4,252.96-96.4,414.02-122.57,44.44-7.22,94.37-11.56,152.94-11.56,170.91,0,268.36,26.08,353.14,56.74-46.79,6.09-87.69,14.03-124.48,23.05Z"/>
    <path class="cls-1" d="M4417.06,0h-46.47c-67.65,18.44-146.63,31.38-254.49,31.38-84.77,0-153.66-12.93-217.86-31.38h-45.26c77.22,25.23,158.03,44.71,263.12,44.71,133.11,0,222.7-19.48,300.96-44.71Z"/>
    <path class="cls-1" d="M4661.95,366.04c-182.12,0-280.53-45.77-397.95-87.41-97.99-34.75-209.22-66.63-393.39-66.63-393.28,0-448.29,123.35-707.85,149.29-30.49,3.05-63.79,4.75-100.81,4.75-182.12,0-280.53-45.77-397.95-87.41-97.99-34.75-209.22-66.63-393.39-66.63-393.28,0-448.29,123.35-707.85,149.29-30.49,3.05-63.79,4.75-100.81,4.75-182.12,0-280.53-45.77-397.95-87.41-97.99-34.75-209.22-66.63-393.39-66.63-373.74,0-441.98,111.4-670.6,144.73v13.52c231.57-33.1,298.61-144.91,670.6-144.91,184.22,0,294.97,32.38,393.39,67.45,116.25,41.42,215.31,86.59,397.95,86.59,36.99,0,70.3-1.67,100.81-4.66,262.71-25.73,316.65-149.38,707.85-149.38,184.22,0,294.97,32.38,393.39,67.45,116.25,41.42,215.31,86.59,397.95,86.59,36.99,0,70.3-1.67,100.81-4.66,262.71-25.73,316.65-149.38,707.85-149.38,184.22,0,294.97,32.38,393.39,67.45,116.25,41.42,215.31,86.59,397.95,86.59,36.99,0,70.3-1.67,100.81-4.66,12.89-1.26,25.29-2.76,37.25-4.47v-13.52c-11.95,1.74-24.35,3.27-37.25,4.56-30.49,3.05-63.79,4.75-100.81,4.75Z"/>
    <path class="cls-1" d="M4649.43,438.04c-159.95,0-263.33-46.04-385.43-88.26-103.42-35.76-220.26-68.79-396.28-68.79-370.92,0-431.97,124.09-704.96,151.66-34.13,3.45-71.56,5.39-113.32,5.39-159.95,0-263.33-46.04-385.43-88.26-103.42-35.76-220.26-68.79-396.28-68.79-370.92,0-431.97,124.09-704.96,151.66-34.13,3.45-71.56,5.39-113.32,5.39-159.95,0-263.33-46.04-385.43-88.26-103.42-35.76-220.26-68.79-396.28-68.79-353.44,0-425.53,112.66-667.71,147.14v13.46c244.56-34.32,317.28-147.27,667.71-147.27,175.87,0,292.39,33.52,396.28,69.59,120.99,42,224.87,87.46,385.43,87.46,41.72,0,79.16-1.92,113.32-5.32,275.35-27.44,337.35-151.73,704.96-151.73,175.87,0,292.39,33.52,396.28,69.59,120.99,42,224.87,87.46,385.43,87.46,41.72,0,79.16-1.92,113.32-5.32,275.35-27.44,337.35-151.73,704.96-151.73,175.87,0,292.39,33.52,396.28,69.59,120.99,42,224.87,87.46,385.43,87.46,41.72,0,79.16-1.92,113.32-5.32,12.87-1.28,25.26-2.78,37.25-4.46v-13.46c-11.98,1.71-24.38,3.22-37.25,4.52-34.13,3.45-71.56,5.39-113.32,5.39Z"/>
    <path class="cls-1" d="M4650.73,505.26c-179.99-1.66-282.76-40.43-386.73-78.73-103.55-38.14-208.29-75.8-391.72-75.8-301.75,0-389.33,84.14-569.12,128.27-52.08,1.19-98.52,4.31-140.41,8.88-41.42,4.53-78.41,10.47-112.03,17.37-179.99-1.66-282.76-40.43-386.73-78.73-103.55-38.14-208.29-75.8-391.72-75.8-301.75,0-389.33,84.14-569.12,128.27-52.08,1.19-98.52,4.31-140.41,8.88-41.42,4.53-78.41,10.47-112.03,17.37-179.99-1.66-282.76-40.43-386.73-78.73-103.55-38.14-208.29-75.8-391.72-75.8-301.75,0-389.33,84.14-569.12,128.27-37.12.85-71.38,2.67-103.16,5.31v13.41c44.93-3.78,94.82-5.92,150.85-5.92,173.48,0,284.8,28.2,379.82,60.52,127.45,43.35,225.58,94.09,405.06,94.09,259.28,0,322.75-111.37,627.02-145.06,54.23-6.01,116.1-9.55,188.1-9.55,173.48,0,284.8,28.2,379.82,60.52,127.45,43.35,225.58,94.09,405.06,94.09,259.28,0,322.75-111.37,627.02-145.06,54.23-6.01,116.1-9.55,188.1-9.55,173.48,0,284.8,28.2,379.82,60.52,127.45,43.35,225.58,94.09,405.06,94.09,259.28,0,322.75-111.37,627.02-145.06,12.03-1.33,24.43-2.55,37.25-3.62v-13.41c-12.81,1.06-25.21,2.26-37.25,3.58-41.42,4.53-78.41,10.47-112.03,17.37ZM935.73,633.07c-131.69,0-219.36-27.94-308.05-60.07,11.18-.4,22.69-.61,34.59-.61,139.12,0,228.84,27.6,317.04,59.54-13.91.74-28.4,1.13-43.57,1.13ZM1064,622.32c-16.65,2.97-34.09,5.41-52.55,7.21-98.45-36.29-192.82-70.46-349.19-70.46-23.6,0-45.72.79-66.6,2.25-21.11-7.73-42.58-15.53-65-23.09-17.53-5.92-35.64-11.69-54.6-17.16,54.99-12.19,117.68-20.06,196-20.06,161.53,0,268.55,45.97,391.94,88.08,19.59,6.69,39.6,13.27,60.3,19.57-19.19,5.26-39.12,9.89-60.3,13.67ZM1148,601.75c-29.24-8.39-56.99-17.48-84-26.74-122.21-41.9-229.47-87.34-391.94-87.34-91.24,0-161.45,10.48-222.81,26.02-35.71-9.32-74.64-17.47-118.42-23.58,84.94-30.21,176.25-55.7,318.19-55.7,213.41,0,312.29,40.66,414.98,80.14,52.85,20.32,106.72,40.33,177.74,54.32-31.51,11.76-61.88,23.1-93.73,32.89ZM1266.25,559.75c-83.27-14.18-143.11-36.68-202.25-59.46-101.75-39.19-201.46-79.22-414.98-79.22-158.15,0-254.01,31.15-347.17,65.39-44.15-4.98-93.11-7.9-148.36-7.99,151.1-45.8,253.26-114.4,518.79-114.4,183.22,0,287.39,38.23,391.72,76.66,93.01,34.27,186.16,68.69,335.55,76.35-50.52,12.98-93.3,27.92-133.3,42.67ZM2535.73,633.07c-131.69,0-219.36-27.94-308.05-60.07,11.18-.4,22.69-.61,34.59-.61,139.12,0,228.84,27.6,317.04,59.54-13.91.74-28.4,1.13-43.57,1.13ZM2664,622.32c-16.65,2.97-34.09,5.41-52.55,7.21-98.45-36.29-192.82-70.46-349.19-70.46-23.6,0-45.72.79-66.6,2.25-21.11-7.73-42.58-15.53-65-23.09-17.53-5.92-35.64-11.69-54.6-17.16,54.99-12.19,117.68-20.06,196-20.06,161.53,0,268.55,45.97,391.94,88.08,19.59,6.69,39.6,13.27,60.3,19.57-19.19,5.26-39.12,9.89-60.3,13.67ZM2748,601.75c-29.24-8.39-56.99-17.48-84-26.74-122.21-41.9-229.47-87.34-391.94-87.34-91.24,0-161.45,10.48-222.81,26.02-35.71-9.32-74.64-17.47-118.42-23.58,84.94-30.21,176.25-55.7,318.19-55.7,213.41,0,312.29,40.66,414.98,80.14,52.85,20.32,106.72,40.33,177.74,54.32-31.51,11.76-61.88,23.1-93.73,32.89ZM2866.25,559.75c-83.27-14.18-143.11-36.68-202.25-59.46-101.75-39.19-201.46-79.22-414.98-79.22-158.15,0-254.01,31.15-347.17,65.39-44.15-4.98-93.11-7.9-148.36-7.99,151.1-45.8,253.26-114.4,518.79-114.4,183.22,0,287.39,38.23,391.72,76.66,93.01,34.27,186.16,68.69,335.55,76.35-50.52,12.98-93.3,27.92-133.3,42.67ZM4135.73,633.07c-131.69,0-219.36-27.94-308.05-60.07,11.18-.4,22.69-.61,34.59-.61,139.12,0,228.84,27.6,317.04,59.54-13.91.74-28.4,1.13-43.57,1.13ZM4264,622.32c-16.65,2.97-34.09,5.41-52.55,7.21-98.45-36.29-192.82-70.46-349.19-70.46-23.6,0-45.72.79-66.6,2.25-21.11-7.73-42.58-15.53-65-23.09-17.53-5.92-35.64-11.69-54.6-17.16,54.99-12.19,117.68-20.06,196-20.06,161.53,0,268.55,45.97,391.94,88.08,19.59,6.69,39.6,13.27,60.3,19.57-19.19,5.26-39.12,9.89-60.3,13.67ZM4348,601.75c-29.24-8.39-56.99-17.48-84-26.74-122.21-41.9-229.47-87.34-391.94-87.34-91.24,0-161.45,10.48-222.81,26.02-35.71-9.32-74.64-17.47-118.42-23.58,84.94-30.21,176.25-55.7,318.19-55.7,213.41,0,312.29,40.66,414.98,80.14,52.85,20.32,106.72,40.33,177.74,54.32-31.51,11.76-61.88,23.1-93.73,32.89ZM4466.25,559.75c-83.27-14.18-143.11-36.68-202.25-59.46-101.75-39.19-201.46-79.22-414.98-79.22-158.15,0-254.01,31.15-347.17,65.39-44.15-4.98-93.11-7.9-148.36-7.99,151.1-45.8,253.26-114.4,518.79-114.4,183.22,0,287.39,38.23,391.72,76.66,93.01,34.27,186.16,68.69,335.55,76.35-50.52,12.98-93.3,27.92-133.3,42.67Z"/>
    <path class="cls-1" d="M4128.61,772.7c-182.12,0-280.53-45.77-397.95-87.41-97.99-34.75-209.22-66.63-393.39-66.63-67.14,0-124.4,3.6-174.52,9.69-277.97,33.78-335.8,144.35-634.14,144.35-182.12,0-280.53-45.77-397.95-87.41-97.99-34.75-209.22-66.63-393.39-66.63-67.14,0-124.4,3.6-174.52,9.69-277.97,33.78-335.8,144.35-634.14,144.35-182.12,0-280.53-45.77-397.95-87.41-97.99-34.75-209.22-66.63-393.39-66.63-51.07,0-96.42,2.08-137.27,5.76v13.41c40.81-3.73,86.16-5.84,137.27-5.84,184.22,0,294.97,32.38,393.39,67.45,84.16,29.99,159.33,61.94,263.72,77.29,39.79,5.85,83.82,9.3,134.23,9.3,53.14,0,98.71-3.44,139.24-9.3,188.88-27.28,268.32-106.96,494.9-134.91,50.07-6.18,107.31-9.83,174.52-9.83,184.22,0,294.97,32.38,393.39,67.45,84.16,29.99,159.33,61.94,263.72,77.29,39.79,5.85,83.82,9.3,134.23,9.3,53.14,0,98.71-3.44,139.24-9.3,188.88-27.28,268.32-106.96,494.9-134.91,50.07-6.18,107.31-9.83,174.52-9.83,184.22,0,294.97,32.38,393.39,67.45,84.16,29.99,159.33,61.94,263.72,77.29,39.79,5.85,83.82,9.3,134.23,9.3,53.14,0,98.71-3.44,139.24-9.3,188.88-27.28,268.32-106.96,494.9-134.91,11.99-1.48,24.39-2.82,37.25-3.99v-13.41c-12.85,1.16-25.25,2.47-37.25,3.93-277.97,33.78-335.8,144.35-634.14,144.35Z"/>
    <path class="cls-1" d="M4481.36,776.74c-95.79,35.45-194.2,67.97-365.27,67.97-134.44,0-228.92-32.53-328.14-67.97-18.83-6.73-37.82-13.56-57.29-20.29-103.42-35.76-220.26-68.79-396.28-68.79-66.06,0-122.28,3.94-171.63,10.57-120.52,16.18-200.01,48.4-281.39,78.51-95.79,35.45-194.2,67.97-365.27,67.97-134.44,0-228.92-32.53-328.14-67.97-18.83-6.73-37.82-13.56-57.29-20.29-103.42-35.76-220.26-68.79-396.28-68.79-66.06,0-122.28,3.94-171.63,10.57-120.52,16.18-200.01,48.4-281.39,78.51-95.79,35.45-194.2,67.97-365.27,67.97-134.44,0-228.92-32.53-328.14-67.97-18.83-6.73-37.82-13.56-57.29-20.29-103.42-35.76-220.26-68.79-396.28-68.79-50,0-94.36,2.26-134.38,6.23v13.46c40.01-4.05,84.36-6.35,134.38-6.35,175.87,0,292.39,33.52,396.28,69.59,5.89,2.05,11.74,4.1,17.56,6.15,113.68,40.17,215.13,81.31,367.87,81.31,193.46,0,295-41.14,403.43-81.31,69.55-25.76,141.94-51.12,243.23-64.98,49.35-6.75,105.54-10.77,171.63-10.77,175.87,0,292.39,33.52,396.28,69.59,5.89,2.05,11.74,4.1,17.56,6.15,113.68,40.17,215.13,81.31,367.87,81.31,193.46,0,295-41.14,403.43-81.31,69.55-25.76,141.94-51.12,243.23-64.98,49.35-6.75,105.54-10.77,171.63-10.77,175.87,0,292.39,33.52,396.28,69.59,5.89,2.05,11.74,4.1,17.56,6.15,113.68,40.17,215.13,81.31,367.87,81.31,193.46,0,295-41.14,403.43-81.31,69.55-25.76,141.94-51.12,243.23-64.98,12-1.64,24.4-3.12,37.25-4.42v-13.46c-12.85,1.27-25.25,2.73-37.25,4.34-120.52,16.18-200.01,48.4-281.39,78.51Z"/>
    <path class="cls-1" d="M4717.13,776.74c-207.73,40.62-284.65,131.42-569.51,135.13-69.61-15.59-151.83-26.29-256.85-26.72-59.12-14.54-109.47-33.3-160.1-51.95-57.16-21.05-114.69-41.96-185.62-56.47-57.56-11.77-123.93-19.33-206.1-19.33-68.61,0-126.13,4.35-176.2,11.59-15.93,2.3-31.1,4.9-45.63,7.74-207.73,40.62-284.65,131.42-569.51,135.13-69.61-15.59-151.83-26.29-256.85-26.72-59.12-14.54-109.47-33.3-160.1-51.95-57.16-21.05-114.69-41.96-185.62-56.47-57.56-11.77-123.93-19.33-206.1-19.33-68.61,0-126.13,4.35-176.2,11.59-15.93,2.3-31.1,4.9-45.63,7.74-207.73,40.62-284.65,131.42-569.51,135.13-69.61-15.59-151.83-26.29-256.85-26.72-59.12-14.54-109.47-33.3-160.1-51.95-57.16-21.05-114.69-41.96-185.62-56.47-57.56-11.77-123.93-19.33-206.1-19.33-52.2,0-97.98,2.52-138.95,6.92v13.65c3.82-.43,7.68-.84,11.58-1.23,38.09-3.83,80.14-6,127.37-6,43.65,0,82.81,2.17,118.56,6,114.3,12.23,193.68,41.38,273.16,70.66,35.86,13.21,71.74,26.44,110.86,38.16-40.12.81-76.9,2.77-110.86,5.65-11.25.95-22.2,2.01-32.85,3.16-91.62-34.72-191.54-66.62-382.12-66.62-42.72,0-80.89,2.28-115.69,6.27v13.44c34.78-4.06,72.93-6.38,115.69-6.38,170.91,0,268.36,26.08,353.14,56.74-46.79,6.09-87.69,14.03-124.48,23.05-60.88-15.82-126.74-26.53-205.62-26.53-52.41,0-97.89,3.46-138.73,9.35v13.51c40.82-5.99,86.27-9.52,138.73-9.52,67.17,0,124.91,7.95,178.33,20.27-45.43,12.42-84.64,26.32-121.6,40-20.93-1.44-43.02-2.21-66.52-2.21-48.53,0-90.79,3.33-128.93,9.02v13.56c38.18-5.83,80.42-9.25,128.93-9.25,12.03,0,23.69.21,35.02.61-52.81,19.66-103.27,37.75-163.95,48.83v13.56c197.31-35.34,285.87-143.6,684.18-143.6,173.48,0,284.8,28.2,379.82,60.52,127.45,43.35,225.58,94.09,405.06,94.09,34.33,0,65.22-1.96,93.69-5.42,224.93-27.38,298.93-149.19,721.43-149.19,173.48,0,284.8,28.2,379.82,60.52,127.45,43.35,225.58,94.09,405.06,94.09,34.33,0,65.22-1.96,93.69-5.42,224.93-27.38,298.93-149.19,721.43-149.19,173.48,0,284.8,28.2,379.82,60.52,127.45,43.35,225.58,94.09,405.06,94.09,34.33,0,65.22-1.96,93.69-5.42,12.88-1.57,25.27-3.44,37.25-5.59v-13.56c-11.98,2.19-24.37,4.1-37.25,5.7-28.46,3.54-59.34,5.54-93.69,5.54-17.93,0-35.03-.53-51.44-1.5,45.91-16.77,91.83-32.31,145.13-43.26,12.01-2.47,24.4-4.7,37.25-6.67v-13.56c-12.85,1.92-25.25,4.1-37.25,6.51-65.96,13.27-120.31,33.49-176.75,54.46-41.26-4.13-78.11-11.21-112.65-20.12,102.01-31.54,179.62-70.63,289.4-92.05,12.01-2.34,24.4-4.47,37.25-6.36v-13.51c-12.85,1.85-25.24,3.95-37.25,6.25-119.32,22.88-200.45,66.35-313.82,98.99-34.52-10-67.15-21.64-100.2-33.71,164.29-32.4,252.96-96.4,414.02-122.57,11.99-1.95,24.39-3.69,37.25-5.19v-13.44c-12.86,1.47-25.25,3.18-37.25,5.1-170.55,27.24-260.12,96.28-438.79,127.04-19.49-7.12-39.33-14.29-59.97-21.25-21.91-7.39-44.73-14.56-69-21.21,261.54-13.54,342.44-107.14,567.75-140.86,11.99-1.79,24.39-3.42,37.25-4.85v-13.65c-12.88,1.38-25.28,2.95-37.25,4.68-15.93,2.3-31.1,4.9-45.63,7.74ZM1562.75,1034.21c-28.46,3.54-59.34,5.54-93.69,5.54-17.93,0-35.03-.53-51.44-1.5,45.91-16.77,91.83-32.31,145.13-43.26,47.71-9.8,101.34-15.91,166.18-15.91,12.03,0,23.69.21,35.02.61-63.24,23.54-123.12,44.83-201.19,54.53ZM1795.45,967.94c-20.93-1.44-43.02-2.21-66.52-2.21-64.89,0-118.56,5.95-166.18,15.53-65.96,13.27-120.31,33.49-176.75,54.46-41.26-4.13-78.11-11.21-112.65-20.12,102.01-31.54,179.62-70.63,289.4-92.05,50.15-9.79,107-15.88,175.98-15.88s124.91,7.95,178.33,20.27c-45.43,12.42-84.64,26.32-121.6,40ZM1944.35,920.87c-60.88-15.82-126.74-26.53-205.62-26.53-68.9,0-125.82,5.98-175.98,15.59-119.32,22.88-200.45,66.35-313.82,98.99-34.52-10-67.15-21.64-100.2-33.71,164.29-32.4,252.96-96.4,414.02-122.57,44.44-7.22,94.37-11.56,152.94-11.56,170.91,0,268.36,26.08,353.14,56.74-46.79,6.09-87.69,14.03-124.48,23.05ZM2130.67,891.21c-11.25.95-22.2,2.01-32.85,3.16-91.62-34.72-191.54-66.62-382.12-66.62-58.5,0-108.47,4.27-152.94,11.37-170.55,27.24-260.12,96.28-438.79,127.04-19.49-7.12-39.33-14.29-59.97-21.25-21.91-7.39-44.73-14.56-69-21.21,261.54-13.54,342.44-107.14,567.75-140.86,15.55-2.33,31.79-4.37,48.83-6.08,38.09-3.83,80.14-6,127.37-6,43.65,0,82.81,2.17,118.56,6,114.3,12.23,193.68,41.38,273.16,70.66,35.86,13.21,71.74,26.44,110.86,38.16-40.12.81-76.9,2.77-110.86,5.65ZM3162.75,1034.21c-28.46,3.54-59.34,5.54-93.69,5.54-17.93,0-35.03-.53-51.44-1.5,45.91-16.77,91.83-32.31,145.13-43.26,47.71-9.8,101.34-15.91,166.18-15.91,12.03,0,23.69.21,35.02.61-63.24,23.54-123.12,44.83-201.19,54.53ZM3395.45,967.94c-20.93-1.44-43.02-2.21-66.52-2.21-64.89,0-118.56,5.95-166.18,15.53-65.96,13.27-120.31,33.49-176.75,54.46-41.26-4.13-78.11-11.21-112.65-20.12,102.01-31.54,179.62-70.63,289.4-92.05,50.15-9.79,107-15.88,175.98-15.88s124.91,7.95,178.33,20.27c-45.43,12.42-84.64,26.32-121.6,40ZM3544.35,920.87c-60.88-15.82-126.74-26.53-205.62-26.53-68.9,0-125.82,5.98-175.98,15.59-119.32,22.88-200.45,66.35-313.82,98.99-34.52-10-67.15-21.64-100.2-33.71,164.29-32.4,252.96-96.4,414.02-122.57,44.44-7.22,94.37-11.56,152.94-11.56,170.91,0,268.36,26.08,353.14,56.74-46.79,6.09-87.69,14.03-124.48,23.05ZM3730.67,891.21c-11.25.95-22.2,2.01-32.85,3.16-91.62-34.72-191.54-66.62-382.12-66.62-58.5,0-108.47,4.27-152.94,11.37-170.55,27.24-260.12,96.28-438.79,127.04-19.49-7.12-39.33-14.29-59.97-21.25-21.91-7.39-44.73-14.56-69-21.21,261.54-13.54,342.44-107.14,567.75-140.86,15.55-2.33,31.79-4.37,48.83-6.08,38.09-3.83,80.14-6,127.37-6,43.65,0,82.81,2.17,118.56,6,114.3,12.23,193.68,41.38,273.16,70.66,35.86,13.21,71.74,26.44,110.86,38.16-40.12.81-76.9,2.77-110.86,5.65Z"/>
    <path class="cls-1" d="M4661.95,1179.37c-182.12,0-280.53-45.77-397.95-87.41-97.99-34.75-209.22-66.63-393.39-66.63-393.28,0-448.29,123.35-707.85,149.29-30.49,3.05-63.79,4.75-100.81,4.75-182.12,0-280.53-45.77-397.95-87.41-97.99-34.75-209.22-66.63-393.39-66.63-393.28,0-448.29,123.35-707.85,149.29-30.49,3.05-63.79,4.75-100.81,4.75-182.12,0-280.53-45.77-397.95-87.41-97.99-34.75-209.22-66.63-393.39-66.63-373.74,0-441.98,111.4-670.6,144.73v13.52c231.57-33.1,298.61-144.91,670.6-144.91,184.22,0,294.97,32.38,393.39,67.45,116.25,41.42,215.31,86.59,397.95,86.59,36.99,0,70.3-1.67,100.81-4.66,262.71-25.73,316.65-149.38,707.85-149.38,184.22,0,294.97,32.38,393.39,67.45,116.25,41.42,215.31,86.59,397.95,86.59,36.99,0,70.3-1.67,100.81-4.66,262.71-25.73,316.65-149.38,707.85-149.38,184.22,0,294.97,32.38,393.39,67.45,116.25,41.42,215.31,86.59,397.95,86.59,36.99,0,70.3-1.67,100.81-4.66,12.89-1.26,25.29-2.76,37.25-4.47v-13.52c-11.95,1.74-24.35,3.27-37.25,4.56-30.49,3.05-63.79,4.75-100.81,4.75Z"/>
    <path class="cls-1" d="M4649.43,1251.38c-159.95,0-263.33-46.04-385.43-88.26-103.42-35.76-220.26-68.79-396.28-68.79-370.92,0-431.97,124.09-704.96,151.66-34.13,3.45-71.56,5.39-113.32,5.39-159.95,0-263.33-46.04-385.43-88.26-103.42-35.76-220.26-68.79-396.28-68.79-370.92,0-431.97,124.09-704.96,151.66-34.13,3.45-71.56,5.39-113.32,5.39-159.95,0-263.33-46.04-385.43-88.26-103.42-35.76-220.26-68.79-396.28-68.79-353.44,0-425.53,112.66-667.71,147.14v13.46c244.56-34.32,317.28-147.27,667.71-147.27,175.87,0,292.39,33.52,396.28,69.59,120.99,42,224.87,87.46,385.43,87.46,41.72,0,79.16-1.92,113.32-5.32,275.35-27.44,337.35-151.73,704.96-151.73,175.87,0,292.39,33.52,396.28,69.59,120.99,42,224.87,87.46,385.43,87.46,41.72,0,79.16-1.92,113.32-5.32,275.35-27.44,337.35-151.73,704.96-151.73,175.87,0,292.39,33.52,396.28,69.59,120.99,42,224.87,87.46,385.43,87.46,41.72,0,79.16-1.92,113.32-5.32,12.87-1.28,25.26-2.78,37.25-4.46v-13.46c-11.98,1.71-24.38,3.22-37.25,4.52-34.13,3.45-71.56,5.39-113.32,5.39Z"/>
    <path class="cls-1" d="M4650.73,1318.59c-179.99-1.66-282.76-40.43-386.73-78.73-103.55-38.14-208.29-75.8-391.72-75.8-301.75,0-389.33,84.14-569.12,128.27-52.08,1.19-98.52,4.31-140.41,8.88-41.42,4.53-78.41,10.47-112.03,17.37-179.99-1.66-282.76-40.43-386.73-78.73-103.55-38.14-208.29-75.8-391.72-75.8-301.75,0-389.33,84.14-569.12,128.27-52.08,1.19-98.52,4.31-140.41,8.88-41.42,4.53-78.41,10.47-112.03,17.37-179.99-1.66-282.76-40.43-386.73-78.73-103.55-38.14-208.29-75.8-391.72-75.8-301.75,0-389.33,84.14-569.12,128.27-37.12.85-71.38,2.67-103.16,5.31v13.41c44.93-3.78,94.82-5.92,150.85-5.92,173.48,0,284.8,28.2,379.82,60.52,127.45,43.35,225.58,94.09,405.06,94.09,259.28,0,322.75-111.37,627.02-145.06,54.23-6.01,116.1-9.55,188.1-9.55,173.48,0,284.8,28.2,379.82,60.52,127.45,43.35,225.58,94.09,405.06,94.09,259.28,0,322.75-111.37,627.02-145.06,54.23-6.01,116.1-9.55,188.1-9.55,173.48,0,284.8,28.2,379.82,60.52,127.45,43.35,225.58,94.09,405.06,94.09,259.28,0,322.75-111.37,627.02-145.06,12.03-1.33,24.43-2.55,37.25-3.62v-13.41c-12.81,1.06-25.21,2.26-37.25,3.58-41.42,4.53-78.41,10.47-112.03,17.37ZM935.73,1446.41c-131.69,0-219.36-27.94-308.05-60.07,11.18-.4,22.69-.61,34.59-.61,139.12,0,228.84,27.6,317.04,59.54-13.91.74-28.4,1.13-43.57,1.13ZM1064,1435.65c-16.65,2.97-34.09,5.41-52.55,7.21-98.45-36.29-192.82-70.46-349.19-70.46-23.6,0-45.72.79-66.6,2.25-21.11-7.73-42.58-15.53-65-23.09-17.53-5.92-35.64-11.69-54.6-17.16,54.99-12.19,117.68-20.06,196-20.06,161.53,0,268.55,45.97,391.94,88.08,19.59,6.69,39.6,13.27,60.3,19.57-19.19,5.26-39.12,9.89-60.3,13.67ZM1148,1415.09c-29.24-8.39-56.99-17.48-84-26.74-122.21-41.9-229.47-87.34-391.94-87.34-91.24,0-161.45,10.48-222.81,26.02-35.71-9.32-74.64-17.47-118.42-23.58,84.94-30.21,176.25-55.7,318.19-55.7,213.41,0,312.29,40.66,414.98,80.14,52.85,20.32,106.72,40.33,177.74,54.32-31.51,11.76-61.88,23.1-93.73,32.89ZM1266.25,1373.09c-83.27-14.18-143.11-36.68-202.25-59.45-101.75-39.19-201.46-79.22-414.98-79.22-158.15,0-254.01,31.15-347.17,65.39-44.15-4.98-93.11-7.9-148.36-7.99,151.1-45.8,253.26-114.4,518.79-114.4,183.22,0,287.39,38.23,391.72,76.66,93.01,34.27,186.16,68.69,335.55,76.35-50.52,12.98-93.3,27.92-133.3,42.67ZM2535.73,1446.41c-131.69,0-219.36-27.94-308.05-60.07,11.18-.4,22.69-.61,34.59-.61,139.12,0,228.84,27.6,317.04,59.54-13.91.74-28.4,1.13-43.57,1.13ZM2664,1435.65c-16.65,2.97-34.09,5.41-52.55,7.21-98.45-36.29-192.82-70.46-349.19-70.46-23.6,0-45.72.79-66.6,2.25-21.11-7.73-42.58-15.53-65-23.09-17.53-5.92-35.64-11.69-54.6-17.16,54.99-12.19,117.68-20.06,196-20.06,161.53,0,268.55,45.97,391.94,88.08,19.59,6.69,39.6,13.27,60.3,19.57-19.19,5.26-39.12,9.89-60.3,13.67ZM2748,1415.09c-29.24-8.39-56.99-17.48-84-26.74-122.21-41.9-229.47-87.34-391.94-87.34-91.24,0-161.45,10.48-222.81,26.02-35.71-9.32-74.64-17.47-118.42-23.58,84.94-30.21,176.25-55.7,318.19-55.7,213.41,0,312.29,40.66,414.98,80.14,52.85,20.32,106.72,40.33,177.74,54.32-31.51,11.76-61.88,23.1-93.73,32.89ZM2866.25,1373.09c-83.27-14.18-143.11-36.68-202.25-59.45-101.75-39.19-201.46-79.22-414.98-79.22-158.15,0-254.01,31.15-347.17,65.39-44.15-4.98-93.11-7.9-148.36-7.99,151.1-45.8,253.26-114.4,518.79-114.4,183.22,0,287.39,38.23,391.72,76.66,93.01,34.27,186.16,68.69,335.55,76.35-50.52,12.98-93.3,27.92-133.3,42.67ZM4135.73,1446.41c-131.69,0-219.36-27.94-308.05-60.07,11.18-.4,22.69-.61,34.59-.61,139.12,0,228.84,27.6,317.04,59.54-13.91.74-28.4,1.13-43.57,1.13ZM4264,1435.65c-16.65,2.97-34.09,5.41-52.55,7.21-98.45-36.29-192.82-70.46-349.19-70.46-23.6,0-45.72.79-66.6,2.25-21.11-7.73-42.58-15.53-65-23.09-17.53-5.92-35.64-11.69-54.6-17.16,54.99-12.19,117.68-20.06,196-20.06,161.53,0,268.55,45.97,391.94,88.08,19.59,6.69,39.6,13.27,60.3,19.57-19.19,5.26-39.12,9.89-60.3,13.67ZM4348,1415.09c-29.24-8.39-56.99-17.48-84-26.74-122.21-41.9-229.47-87.34-391.94-87.34-91.24,0-161.45,10.48-222.81,26.02-35.71-9.32-74.64-17.47-118.42-23.58,84.94-30.21,176.25-55.7,318.19-55.7,213.41,0,312.29,40.66,414.98,80.14,52.85,20.32,106.72,40.33,177.74,54.32-31.51,11.76-61.88,23.1-93.73,32.89ZM4466.25,1373.09c-83.27-14.18-143.11-36.68-202.25-59.45-101.75-39.19-201.46-79.22-414.98-79.22-158.15,0-254.01,31.15-347.17,65.39-44.15-4.98-93.11-7.9-148.36-7.99,151.1-45.8,253.26-114.4,518.79-114.4,183.22,0,287.39,38.23,391.72,76.66,93.01,34.27,186.16,68.69,335.55,76.35-50.52,12.98-93.3,27.92-133.3,42.67Z"/>
    <path class="cls-1" d="M4128.61,1586.04c-182.12,0-280.53-45.77-397.95-87.41-97.99-34.75-209.22-66.63-393.39-66.63-67.14,0-124.4,3.6-174.52,9.69-277.97,33.78-335.8,144.35-634.14,144.35-182.12,0-280.53-45.77-397.95-87.41-97.99-34.75-209.22-66.63-393.39-66.63-67.14,0-124.4,3.6-174.52,9.69-277.97,33.78-335.8,144.35-634.14,144.35-182.12,0-280.53-45.77-397.95-87.41-97.99-34.75-209.22-66.63-393.39-66.63-51.07,0-96.42,2.08-137.27,5.76v13.41c40.81-3.73,86.16-5.84,137.27-5.84,184.22,0,294.97,32.38,393.39,67.45,116.25,41.42,215.31,86.59,397.95,86.59,300.82,0,358.93-110.26,634.14-144.21,50.07-6.18,107.31-9.83,174.52-9.83,184.22,0,294.97,32.38,393.39,67.45,116.25,41.42,215.31,86.59,397.95,86.59,300.82,0,358.93-110.26,634.14-144.21,50.07-6.18,107.31-9.83,174.52-9.83,184.22,0,294.97,32.38,393.39,67.45,116.25,41.42,215.31,86.59,397.95,86.59,300.82,0,358.93-110.26,634.14-144.21,11.99-1.48,24.39-2.82,37.25-3.99v-13.41c-12.85,1.16-25.25,2.47-37.25,3.93-277.97,33.78-335.8,144.35-634.14,144.35Z"/>
    <path class="cls-1" d="M4116.09,1658.04c-159.95,0-263.33-46.04-385.43-88.26-103.42-35.76-220.26-68.79-396.28-68.79-66.06,0-122.28,3.94-171.63,10.57-262.39,35.23-330.26,146.49-646.66,146.49-159.95,0-263.33-46.04-385.43-88.26-103.42-35.76-220.26-68.79-396.28-68.79-66.06,0-122.28,3.94-171.63,10.57-262.39,35.23-330.26,146.49-646.66,146.49-159.95,0-263.33-46.04-385.43-88.26-103.42-35.76-220.26-68.79-396.28-68.79-50,0-94.36,2.26-134.38,6.23v13.46c40.01-4.05,84.36-6.35,134.38-6.35,175.87,0,292.39,33.52,396.28,69.59,120.99,42,224.87,87.46,385.43,87.46,317.55,0,387.44-110.83,646.66-146.28,49.35-6.75,105.54-10.77,171.63-10.77,175.87,0,292.39,33.52,396.28,69.59,120.99,42,224.87,87.46,385.43,87.46,317.55,0,387.44-110.83,646.66-146.28,49.35-6.75,105.54-10.77,171.63-10.77,175.87,0,292.39,33.52,396.28,69.59,120.99,42,224.87,87.46,385.43,87.46,317.55,0,387.44-110.83,646.66-146.28,12-1.64,24.4-3.12,37.25-4.42v-13.46c-12.85,1.27-25.25,2.73-37.25,4.34-262.39,35.23-330.26,146.49-646.66,146.49Z"/>
    <path class="cls-1" d="M4147.61,1725.2c-69.61-15.59-151.83-26.29-256.85-26.72-59.12-14.54-109.47-33.3-160.1-51.95-103.55-38.14-208.29-75.8-391.72-75.8-68.61,0-126.13,4.35-176.2,11.59-243.61,35.23-310.36,138.89-615.14,142.87-69.61-15.59-151.83-26.29-256.85-26.72-59.12-14.54-109.47-33.3-160.1-51.95-103.55-38.14-208.29-75.8-391.72-75.8-68.61,0-126.13,4.35-176.2,11.59-243.61,35.23-310.36,138.89-615.14,142.87-69.61-15.59-151.83-26.29-256.85-26.72-59.12-14.54-109.47-33.3-160.1-51.95-103.55-38.14-208.29-75.8-391.72-75.8-52.2,0-97.98,2.52-138.95,6.92v13.65c41.1-4.59,86.88-7.23,138.95-7.23,183.22,0,287.39,38.23,391.72,76.66,35.86,13.21,71.74,26.44,110.86,38.16-40.12.81-76.9,2.77-110.86,5.65-11.25.95-22.2,2.01-32.85,3.16-91.62-34.72-191.54-66.62-382.12-66.62-42.72,0-80.89,2.28-115.69,6.27v13.44c34.78-4.06,72.93-6.38,115.69-6.38,170.91,0,268.36,26.08,353.14,56.74-46.79,6.09-87.69,14.03-124.48,23.05-60.88-15.82-126.74-26.53-205.62-26.53-52.41,0-97.89,3.46-138.73,9.35v13.51c40.82-5.99,86.27-9.52,138.73-9.52,67.17,0,124.91,7.95,178.33,20.27-45.43,12.42-84.64,26.32-121.6,40-20.93-1.43-43.02-2.21-66.52-2.21-48.53,0-90.79,3.33-128.93,9.02v13.56c38.18-5.83,80.42-9.25,128.93-9.25,12.03,0,23.69.21,35.02.61-52.81,19.66-103.27,37.75-163.95,48.83v13.56c197.31-35.34,285.87-143.6,684.18-143.6,173.48,0,284.8,28.21,379.82,60.52,127.45,43.35,225.58,94.09,405.06,94.09,34.33,0,65.22-1.96,93.69-5.42,224.93-27.38,298.93-149.19,721.43-149.19,173.48,0,284.8,28.21,379.82,60.52,127.45,43.35,225.58,94.09,405.06,94.09,34.33,0,65.22-1.96,93.69-5.42,224.93-27.38,298.93-149.19,721.43-149.19,173.48,0,284.8,28.21,379.82,60.52,127.45,43.35,225.58,94.09,405.06,94.09,34.33,0,65.22-1.96,93.69-5.42,12.88-1.57,25.27-3.44,37.25-5.59v-13.56c-11.98,2.19-24.37,4.1-37.25,5.7-28.46,3.54-59.34,5.54-93.69,5.54-17.93,0-35.03-.53-51.44-1.5,45.91-16.77,91.83-32.31,145.13-43.26,12.01-2.47,24.4-4.7,37.25-6.67v-13.56c-12.85,1.92-25.25,4.1-37.25,6.51-65.96,13.27-120.31,33.49-176.75,54.46-41.26-4.13-78.11-11.21-112.65-20.12,102.01-31.54,179.62-70.63,289.4-92.05,12.01-2.34,24.4-4.47,37.25-6.36v-13.51c-12.85,1.85-25.24,3.95-37.25,6.25-119.32,22.88-200.45,66.35-313.82,98.99-34.52-10-67.15-21.64-100.2-33.71,164.29-32.4,252.96-96.4,414.02-122.57,11.99-1.95,24.39-3.69,37.25-5.19v-13.44c-12.86,1.47-25.25,3.18-37.25,5.1-170.55,27.24-260.12,96.28-438.79,127.04-19.49-7.12-39.33-14.29-59.97-21.25-21.91-7.39-44.73-14.56-69-21.21,261.54-13.54,342.44-107.14,567.75-140.86,11.99-1.79,24.39-3.42,37.25-4.85v-13.65c-12.88,1.38-25.28,2.95-37.25,4.68-243.61,35.23-310.36,138.89-615.14,142.87ZM1562.75,1847.54c-28.46,3.54-59.34,5.54-93.69,5.54-17.93,0-35.03-.53-51.44-1.5,45.91-16.77,91.83-32.31,145.13-43.26,47.71-9.8,101.34-15.91,166.18-15.91,12.03,0,23.69.21,35.02.61-63.24,23.54-123.12,44.83-201.19,54.53ZM1795.45,1781.28c-20.93-1.43-43.02-2.21-66.52-2.21-64.89,0-118.56,5.96-166.18,15.53-65.96,13.27-120.31,33.49-176.75,54.46-41.26-4.13-78.11-11.21-112.65-20.12,102.01-31.54,179.62-70.63,289.4-92.05,50.15-9.79,107-15.88,175.98-15.88s124.91,7.95,178.33,20.27c-45.43,12.42-84.64,26.32-121.6,40ZM1944.35,1734.2c-60.88-15.82-126.74-26.53-205.62-26.53-68.9,0-125.82,5.98-175.98,15.59-119.32,22.88-200.45,66.35-313.82,98.99-34.52-10-67.15-21.64-100.2-33.71,164.29-32.4,252.96-96.4,414.02-122.57,44.44-7.22,94.37-11.56,152.94-11.56,170.91,0,268.36,26.08,353.14,56.74-46.79,6.09-87.69,14.03-124.48,23.05ZM2130.67,1704.54c-11.25.95-22.2,2.01-32.85,3.16-91.62-34.72-191.54-66.62-382.12-66.62-58.5,0-108.47,4.27-152.94,11.37-170.55,27.24-260.12,96.28-438.79,127.04-19.49-7.12-39.33-14.29-59.97-21.25-21.91-7.39-44.73-14.56-69-21.21,261.54-13.54,342.44-107.14,567.75-140.86,50.32-7.53,107.85-12.08,176.2-12.08,183.22,0,287.39,38.23,391.72,76.66,35.86,13.21,71.74,26.44,110.86,38.16-40.12.81-76.9,2.77-110.86,5.65ZM3162.75,1847.54c-28.46,3.54-59.34,5.54-93.69,5.54-17.93,0-35.03-.53-51.44-1.5,45.91-16.77,91.83-32.31,145.13-43.26,47.71-9.8,101.34-15.91,166.18-15.91,12.03,0,23.69.21,35.02.61-63.24,23.54-123.12,44.83-201.19,54.53ZM3395.45,1781.28c-20.93-1.43-43.02-2.21-66.52-2.21-64.89,0-118.56,5.96-166.18,15.53-65.96,13.27-120.31,33.49-176.75,54.46-41.26-4.13-78.11-11.21-112.65-20.12,102.01-31.54,179.62-70.63,289.4-92.05,50.15-9.79,107-15.88,175.98-15.88s124.91,7.95,178.33,20.27c-45.43,12.42-84.64,26.32-121.6,40ZM3544.35,1734.2c-60.88-15.82-126.74-26.53-205.62-26.53-68.9,0-125.82,5.98-175.98,15.59-119.32,22.88-200.45,66.35-313.82,98.99-34.52-10-67.15-21.64-100.2-33.71,164.29-32.4,252.96-96.4,414.02-122.57,44.44-7.22,94.37-11.56,152.94-11.56,170.91,0,268.36,26.08,353.14,56.74-46.79,6.09-87.69,14.03-124.48,23.05ZM3730.67,1704.54c-11.25.95-22.2,2.01-32.85,3.16-91.62-34.72-191.54-66.62-382.12-66.62-58.5,0-108.47,4.27-152.94,11.37-170.55,27.24-260.12,96.28-438.79,127.04-19.49-7.12-39.33-14.29-59.97-21.25-21.91-7.39-44.73-14.56-69-21.21,261.54-13.54,342.44-107.14,567.75-140.86,50.32-7.53,107.85-12.08,176.2-12.08,183.22,0,287.39,38.23,391.72,76.66,35.86,13.21,71.74,26.44,110.86,38.16-40.12.81-76.9,2.77-110.86,5.65Z"/>
    <path class="cls-1" d="M3338.95,2384.07c-68.61,0-126.13,4.35-176.2,11.59-15.93,2.3-31.1,4.9-45.63,7.74-50.56,9.89-93.38,22.74-133.32,36.6h44.27c40-12.16,83.63-22.88,134.68-30.52,15.55-2.33,31.79-4.37,48.83-6.08,38.09-3.83,80.14-6,127.37-6,43.65,0,82.81,2.17,118.56,6,68.48,7.33,124.43,20.73,175.37,36.6h42.63c-40.01-13.85-82.13-26.71-130.47-36.6-57.56-11.77-123.93-19.33-206.1-19.33Z"/>
    <path class="cls-1" d="M4661.95,1992.7c-182.12,0-280.53-45.77-397.95-87.41-97.99-34.75-209.22-66.63-393.39-66.63-393.28,0-448.29,123.35-707.85,149.29-30.49,3.05-63.79,4.75-100.81,4.75-182.12,0-280.53-45.77-397.95-87.41-97.99-34.75-209.22-66.63-393.39-66.63-393.28,0-448.29,123.35-707.85,149.29-30.49,3.05-63.79,4.75-100.81,4.75-182.12,0-280.53-45.77-397.95-87.41-97.99-34.75-209.22-66.63-393.39-66.63-373.74,0-441.98,111.4-670.6,144.73v13.52c231.57-33.1,298.61-144.91,670.6-144.91,184.22,0,294.97,32.38,393.39,67.45,116.25,41.42,215.31,86.59,397.95,86.59,36.99,0,70.3-1.67,100.81-4.66,262.71-25.73,316.65-149.38,707.85-149.38,184.22,0,294.97,32.38,393.39,67.45,116.25,41.42,215.31,86.59,397.95,86.59,36.99,0,70.3-1.67,100.81-4.66,262.71-25.73,316.65-149.38,707.85-149.38,184.22,0,294.97,32.38,393.39,67.45,116.25,41.42,215.31,86.59,397.95,86.59,36.99,0,70.3-1.67,100.81-4.66,12.89-1.26,25.29-2.76,37.25-4.47v-13.52c-11.95,1.74-24.35,3.27-37.25,4.56-30.49,3.05-63.79,4.75-100.81,4.75Z"/>
    <path class="cls-1" d="M4649.43,2064.71c-159.95,0-263.33-46.04-385.43-88.26-103.42-35.76-220.26-68.79-396.28-68.79-370.92,0-431.97,124.09-704.96,151.66-34.13,3.45-71.56,5.39-113.32,5.39-159.95,0-263.33-46.04-385.43-88.26-103.42-35.76-220.26-68.79-396.28-68.79-370.92,0-431.97,124.09-704.96,151.66-34.13,3.45-71.56,5.39-113.32,5.39-159.95,0-263.33-46.04-385.43-88.26-103.42-35.76-220.26-68.79-396.28-68.79-353.44,0-425.53,112.66-667.71,147.14v13.46c244.56-34.32,317.28-147.27,667.71-147.27,175.87,0,292.39,33.52,396.28,69.59,120.99,42,224.87,87.46,385.43,87.46,41.72,0,79.16-1.92,113.32-5.32,275.35-27.44,337.35-151.73,704.96-151.73,175.87,0,292.39,33.52,396.28,69.59,120.99,42,224.87,87.46,385.43,87.46,41.72,0,79.16-1.92,113.32-5.32,275.35-27.44,337.35-151.73,704.96-151.73,175.87,0,292.39,33.52,396.28,69.59,120.99,42,224.87,87.46,385.43,87.46,41.72,0,79.16-1.92,113.32-5.32,12.87-1.28,25.26-2.78,37.25-4.46v-13.46c-11.98,1.71-24.38,3.22-37.25,4.52-34.13,3.45-71.56,5.39-113.32,5.39Z"/>
    <path class="cls-1" d="M4650.73,2131.93c-179.99-1.66-282.76-40.43-386.73-78.73-103.55-38.14-208.29-75.8-391.72-75.8-301.75,0-389.33,84.14-569.12,128.27-52.08,1.19-98.52,4.31-140.41,8.88-41.42,4.53-78.41,10.47-112.03,17.37-179.99-1.66-282.76-40.43-386.73-78.73-103.55-38.14-208.29-75.8-391.72-75.8-301.75,0-389.33,84.14-569.12,128.27-52.08,1.19-98.52,4.31-140.41,8.88-41.42,4.53-78.41,10.47-112.03,17.37-179.99-1.66-282.76-40.43-386.73-78.73-103.55-38.14-208.29-75.8-391.72-75.8-301.75,0-389.33,84.14-569.12,128.27-37.12.85-71.38,2.67-103.16,5.31v13.41c44.93-3.78,94.82-5.92,150.85-5.92,173.48,0,284.8,28.21,379.82,60.52,127.45,43.35,225.58,94.09,405.06,94.09,259.28,0,322.75-111.37,627.02-145.06,54.23-6.01,116.1-9.55,188.1-9.55,173.48,0,284.8,28.21,379.82,60.52,127.45,43.35,225.58,94.09,405.06,94.09,259.28,0,322.75-111.37,627.02-145.06,54.23-6.01,116.1-9.55,188.1-9.55,173.48,0,284.8,28.21,379.82,60.52,127.45,43.35,225.58,94.09,405.06,94.09,259.28,0,322.75-111.37,627.02-145.06,12.03-1.33,24.43-2.55,37.25-3.62v-13.41c-12.81,1.06-25.21,2.26-37.25,3.58-41.42,4.53-78.41,10.47-112.03,17.37ZM935.73,2259.74c-131.69,0-219.36-27.94-308.05-60.07,11.18-.4,22.69-.61,34.59-.61,139.12,0,228.84,27.6,317.04,59.54-13.91.74-28.4,1.13-43.57,1.13ZM1064,2248.98c-16.65,2.97-34.09,5.41-52.55,7.21-98.45-36.29-192.82-70.46-349.19-70.46-23.6,0-45.72.79-66.6,2.25-21.11-7.73-42.58-15.53-65-23.09-17.53-5.92-35.64-11.69-54.6-17.16,54.99-12.19,117.68-20.06,196-20.06,161.53,0,268.55,45.97,391.94,88.08,19.59,6.69,39.6,13.27,60.3,19.57-19.19,5.26-39.12,9.89-60.3,13.67ZM1148,2228.42c-29.24-8.39-56.99-17.48-84-26.74-122.21-41.9-229.47-87.34-391.94-87.34-91.24,0-161.45,10.48-222.81,26.02-35.71-9.32-74.64-17.47-118.42-23.58,84.94-30.21,176.25-55.7,318.19-55.7,213.41,0,312.29,40.66,414.98,80.14,52.85,20.32,106.72,40.33,177.74,54.32-31.51,11.76-61.88,23.1-93.73,32.89ZM1266.25,2186.42c-83.27-14.18-143.11-36.68-202.25-59.46-101.75-39.19-201.46-79.22-414.98-79.22-158.15,0-254.01,31.15-347.17,65.39-44.15-4.98-93.11-7.9-148.36-7.99,151.1-45.8,253.26-114.4,518.79-114.4,183.22,0,287.39,38.23,391.72,76.66,93.01,34.27,186.16,68.69,335.55,76.35-50.52,12.98-93.3,27.92-133.3,42.67ZM2535.73,2259.74c-131.69,0-219.36-27.94-308.05-60.07,11.18-.4,22.69-.61,34.59-.61,139.12,0,228.84,27.6,317.04,59.54-13.91.74-28.4,1.13-43.57,1.13ZM2664,2248.98c-16.65,2.97-34.09,5.41-52.55,7.21-98.45-36.29-192.82-70.46-349.19-70.46-23.6,0-45.72.79-66.6,2.25-21.11-7.73-42.58-15.53-65-23.09-17.53-5.92-35.64-11.69-54.6-17.16,54.99-12.19,117.68-20.06,196-20.06,161.53,0,268.55,45.97,391.94,88.08,19.59,6.69,39.6,13.27,60.3,19.57-19.19,5.26-39.12,9.89-60.3,13.67ZM2748,2228.42c-29.24-8.39-56.99-17.48-84-26.74-122.21-41.9-229.47-87.34-391.94-87.34-91.24,0-161.45,10.48-222.81,26.02-35.71-9.32-74.64-17.47-118.42-23.58,84.94-30.21,176.25-55.7,318.19-55.7,213.41,0,312.29,40.66,414.98,80.14,52.85,20.32,106.72,40.33,177.74,54.32-31.51,11.76-61.88,23.1-93.73,32.89ZM2866.25,2186.42c-83.27-14.18-143.11-36.68-202.25-59.46-101.75-39.19-201.46-79.22-414.98-79.22-158.15,0-254.01,31.15-347.17,65.39-44.15-4.98-93.11-7.9-148.36-7.99,151.1-45.8,253.26-114.4,518.79-114.4,183.22,0,287.39,38.23,391.72,76.66,93.01,34.27,186.16,68.69,335.55,76.35-50.52,12.98-93.3,27.92-133.3,42.67ZM4135.73,2259.74c-131.69,0-219.36-27.94-308.05-60.07,11.18-.4,22.69-.61,34.59-.61,139.12,0,228.84,27.6,317.04,59.54-13.91.74-28.4,1.13-43.57,1.13ZM4264,2248.98c-16.65,2.97-34.09,5.41-52.55,7.21-98.45-36.29-192.82-70.46-349.19-70.46-23.6,0-45.72.79-66.6,2.25-21.11-7.73-42.58-15.53-65-23.09-17.53-5.92-35.64-11.69-54.6-17.16,54.99-12.19,117.68-20.06,196-20.06,161.53,0,268.55,45.97,391.94,88.08,19.59,6.69,39.6,13.27,60.3,19.57-19.19,5.26-39.12,9.89-60.3,13.67ZM4348,2228.42c-29.24-8.39-56.99-17.48-84-26.74-122.21-41.9-229.47-87.34-391.94-87.34-91.24,0-161.45,10.48-222.81,26.02-35.71-9.32-74.64-17.47-118.42-23.58,84.94-30.21,176.25-55.7,318.19-55.7,213.41,0,312.29,40.66,414.98,80.14,52.85,20.32,106.72,40.33,177.74,54.32-31.51,11.76-61.88,23.1-93.73,32.89ZM4466.25,2186.42c-83.27-14.18-143.11-36.68-202.25-59.46-101.75-39.19-201.46-79.22-414.98-79.22-158.15,0-254.01,31.15-347.17,65.39-44.15-4.98-93.11-7.9-148.36-7.99,151.1-45.8,253.26-114.4,518.79-114.4,183.22,0,287.39,38.23,391.72,76.66,93.01,34.27,186.16,68.69,335.55,76.35-50.52,12.98-93.3,27.92-133.3,42.67Z"/>
    <path class="cls-1" d="M4128.61,2399.37c-182.12,0-280.53-45.77-397.95-87.41-97.99-34.75-209.22-66.63-393.39-66.63-67.14,0-124.4,3.6-174.52,9.69-277.97,33.78-335.8,144.35-634.14,144.35-182.12,0-280.53-45.77-397.95-87.41-97.99-34.75-209.22-66.63-393.39-66.63-67.14,0-124.4,3.6-174.52,9.69-277.97,33.78-335.8,144.35-634.14,144.35-182.12,0-280.53-45.77-397.95-87.41-97.99-34.75-209.22-66.63-393.39-66.63-51.07,0-96.42,2.08-137.27,5.76v13.41c40.81-3.73,86.16-5.84,137.27-5.84,184.22,0,294.97,32.38,393.39,67.45,84.16,29.99,159.33,61.94,263.72,77.29,39.79,5.85,83.82,9.3,134.23,9.3,53.14,0,98.71-3.44,139.24-9.3,188.88-27.28,268.32-106.96,494.9-134.91,50.07-6.18,107.31-9.83,174.52-9.83,184.22,0,294.97,32.38,393.39,67.45,84.16,29.99,159.33,61.94,263.72,77.29,39.79,5.85,83.82,9.3,134.23,9.3,53.14,0,98.71-3.44,139.24-9.3,188.88-27.28,268.32-106.96,494.9-134.91,50.07-6.18,107.31-9.83,174.52-9.83,184.22,0,294.97,32.38,393.39,67.45,84.16,29.99,159.33,61.94,263.72,77.29,39.79,5.85,83.82,9.3,134.23,9.3,53.14,0,98.71-3.44,139.24-9.3,188.88-27.28,268.32-106.96,494.9-134.91,11.99-1.48,24.39-2.82,37.25-3.99v-13.41c-12.85,1.16-25.25,2.47-37.25,3.93-277.97,33.78-335.8,144.35-634.14,144.35Z"/>
    <path class="cls-1" d="M3730.67,2383.11c-103.42-35.76-220.26-68.79-396.28-68.79-66.06,0-122.28,3.94-171.63,10.57-120.52,16.18-200.01,48.4-281.39,78.51-35.39,13.1-71.14,25.79-110.77,36.6h46.47c35.48-11.44,68.64-24.07,102.46-36.6,69.55-25.76,141.94-51.12,243.23-64.98,49.35-6.75,105.54-10.77,171.63-10.77,175.87,0,292.39,33.52,396.28,69.59,5.89,2.05,11.74,4.1,17.56,6.15,35.46,12.53,69.74,25.15,104.75,36.6h45.26c-37.61-10.81-73.62-23.5-110.27-36.6-18.83-6.73-37.82-13.56-57.29-20.29Z"/>
    <path class="cls-1" d="M4481.36,2403.4c-35.39,13.1-71.14,25.79-110.77,36.6h46.47c35.48-11.44,68.64-24.07,102.46-36.6,69.55-25.76,141.94-51.12,243.23-64.98,12-1.64,24.4-3.12,37.25-4.42v-13.46c-12.85,1.27-25.25,2.73-37.25,4.34-120.52,16.18-200.01,48.4-281.39,78.51Z"/>
    <path class="cls-1" d="M4717.13,2403.4c-50.56,9.89-93.38,22.74-133.32,36.6h44.27c40-12.16,83.63-22.88,134.68-30.52,11.99-1.79,24.39-3.42,37.25-4.85v-13.65c-12.88,1.38-25.28,2.95-37.25,4.68-15.93,2.3-31.1,4.9-45.63,7.74Z"/>
    <path class="cls-1" d="M2817.06,0h-46.47c-67.65,18.44-146.63,31.38-254.49,31.38-84.77,0-153.66-12.93-217.86-31.38h-45.26c77.22,25.23,158.03,44.71,263.12,44.71,133.11,0,222.7-19.48,300.96-44.71Z"/>
    <path class="cls-1" d="M1738.95,2384.07c-68.61,0-126.13,4.35-176.2,11.59-15.93,2.3-31.1,4.9-45.63,7.74-50.56,9.89-93.38,22.74-133.32,36.6h44.27c40-12.16,83.63-22.88,134.68-30.52,15.55-2.33,31.79-4.37,48.83-6.08,38.09-3.83,80.14-6,127.37-6,43.65,0,82.81,2.17,118.56,6,68.48,7.33,124.43,20.73,175.37,36.6h42.63c-40.01-13.85-82.13-26.71-130.47-36.6-57.56-11.77-123.93-19.33-206.1-19.33Z"/>
    <path class="cls-1" d="M2130.67,2383.11c-103.42-35.76-220.26-68.79-396.28-68.79-66.06,0-122.28,3.94-171.63,10.57-120.52,16.18-200.01,48.4-281.39,78.51-35.39,13.1-71.14,25.79-110.77,36.6h46.47c35.48-11.44,68.64-24.07,102.46-36.6,69.55-25.76,141.94-51.12,243.23-64.98,49.35-6.75,105.54-10.77,171.63-10.77,175.87,0,292.39,33.52,396.28,69.59,5.89,2.05,11.74,4.1,17.56,6.15,35.46,12.53,69.74,25.15,104.75,36.6h45.26c-37.61-10.81-73.62-23.5-110.27-36.6-18.83-6.73-37.82-13.56-57.29-20.29Z"/>
    <path class="cls-1" d="M1217.06,0h-46.47c-67.65,18.44-146.63,31.38-254.49,31.38-84.77,0-153.66-12.93-217.86-31.38h-45.26c77.22,25.23,158.03,44.71,263.12,44.71,133.11,0,222.7-19.48,300.96-44.71Z"/>
    <path class="cls-1" d="M138.95,2384.07c-52.2,0-97.98,2.52-138.95,6.92v13.65c3.82-.43,7.68-.84,11.58-1.23,38.09-3.83,80.14-6,127.37-6,43.65,0,82.81,2.17,118.56,6,68.48,7.33,124.43,20.73,175.37,36.6h42.63c-40.01-13.85-82.13-26.71-130.47-36.6-57.56-11.77-123.93-19.33-206.1-19.33Z"/>
    <path class="cls-1" d="M530.67,2383.11c-103.42-35.76-220.26-68.79-396.28-68.79-50,0-94.36,2.26-134.38,6.23v13.46c40.01-4.05,84.36-6.35,134.38-6.35,175.87,0,292.39,33.52,396.28,69.59,5.89,2.05,11.74,4.1,17.56,6.15,35.46,12.53,69.74,25.15,104.75,36.6h45.26c-37.61-10.81-73.62-23.5-110.27-36.6-18.83-6.73-37.82-13.56-57.29-20.29Z"/>
  </g>
</svg>