<svg width="2846" height="1477" viewBox="0 0 2846 1477" fill="none" xmlns="http://www.w3.org/2000/svg">
<mask id="mask0_2_862" style="mask-type:luminance" maskUnits="userSpaceOnUse" x="0" y="0" width="2846" height="1477">
<path d="M2845.57 0H0V1476.63H2845.57V0Z" fill="white"/>
</mask>
<g mask="url(#mask0_2_862)">
<path d="M2845.57 0H0V1476.63H2845.57V0Z" fill="white"/>
<path d="M-88.2129 16.676C-47.3789 16.676 -47.3789 61.9594 -6.5449 61.9594C34.2891 61.9594 34.2891 16.676 75.1326 16.676C115.976 16.676 115.967 61.9594 156.801 61.9594C197.635 61.9594 197.635 16.676 238.469 16.676C279.303 16.676 279.303 61.9594 320.137 61.9594C360.971 61.9594 360.971 16.676 401.805 16.676C442.639 16.676 442.638 61.9594 483.482 61.9594C524.325 61.9594 524.316 16.676 565.159 16.676C606.003 16.676 605.993 61.9594 646.837 61.9594C687.68 61.9594 687.671 16.676 728.514 16.676C769.358 16.676 769.348 61.9594 810.192 61.9594C851.035 61.9594 851.026 16.676 891.86 16.676C932.694 16.676 932.694 61.9594 973.537 61.9594C1014.38 61.9594 1014.37 16.676 1055.21 16.676C1096.06 16.676 1096.05 61.9594 1136.89 61.9594C1177.74 61.9594 1177.73 16.676 1218.57 16.676C1259.41 16.676 1259.4 61.9594 1300.25 61.9594C1341.09 61.9594 1341.08 16.676 1381.92 16.676C1422.77 16.676 1422.76 61.9594 1463.6 61.9594C1504.45 61.9594 1504.44 16.676 1545.28 16.676C1586.12 16.676 1586.11 61.9594 1626.96 61.9594C1667.8 61.9594 1667.8 16.676 1708.63 16.676C1749.47 16.676 1749.47 61.9594 1790.31 61.9594C1831.16 61.9594 1831.15 16.676 1871.99 16.676C1912.83 16.676 1912.83 61.9594 1953.67 61.9594C1994.5 61.9594 1994.51 16.676 2035.34 16.676C2076.18 16.676 2076.18 61.9594 2117.01 61.9594C2157.85 61.9594 2157.85 16.676 2198.69 16.676C2239.53 16.676 2239.53 61.9594 2280.37 61.9594C2321.2 61.9594 2321.2 16.676 2362.04 16.676C2402.89 16.676 2402.89 61.9594 2443.72 61.9594C2484.56 61.9594 2484.57 16.676 2525.4 16.676C2566.23 16.676 2566.24 61.9594 2607.08 61.9594C2647.91 61.9594 2647.92 16.676 2688.75 16.676C2729.59 16.676 2729.6 61.9594 2770.43 61.9594C2811.27 61.9594 2811.28 16.676 2852.12 16.676C2892.96 16.676 2892.96 61.9594 2933.81 61.9594" stroke="black" stroke-width="5" stroke-miterlimit="10"/>
<path d="M-88.2129 86.5698C-47.3789 86.5698 -47.3789 131.853 -6.5449 131.853C34.2891 131.853 34.2891 86.5698 75.1326 86.5698C115.976 86.5698 115.967 131.853 156.801 131.853C197.635 131.853 197.635 86.5698 238.469 86.5698C279.303 86.5698 279.303 131.853 320.137 131.853C360.971 131.853 360.971 86.5698 401.805 86.5698C442.639 86.5698 442.638 131.853 483.482 131.853C524.325 131.853 524.316 86.5698 565.159 86.5698C606.003 86.5698 605.993 131.853 646.837 131.853C687.68 131.853 687.671 86.5698 728.514 86.5698C769.358 86.5698 769.348 131.853 810.192 131.853C851.035 131.853 851.026 86.5698 891.86 86.5698C932.694 86.5698 932.694 131.853 973.537 131.853C1014.38 131.853 1014.37 86.5698 1055.21 86.5698C1096.06 86.5698 1096.05 131.853 1136.89 131.853C1177.74 131.853 1177.73 86.5698 1218.57 86.5698C1259.41 86.5698 1259.4 131.853 1300.25 131.853C1341.09 131.853 1341.08 86.5698 1381.92 86.5698C1422.77 86.5698 1422.76 131.853 1463.6 131.853C1504.45 131.853 1504.44 86.5698 1545.28 86.5698C1586.12 86.5698 1586.11 131.853 1626.96 131.853C1667.8 131.853 1667.8 86.5698 1708.63 86.5698C1749.47 86.5698 1749.47 131.853 1790.31 131.853C1831.16 131.853 1831.15 86.5698 1871.99 86.5698C1912.83 86.5698 1912.83 131.853 1953.67 131.853C1994.5 131.853 1994.51 86.5698 2035.34 86.5698C2076.18 86.5698 2076.18 131.853 2117.01 131.853C2157.85 131.853 2157.85 86.5698 2198.69 86.5698C2239.53 86.5698 2239.53 131.853 2280.37 131.853C2321.2 131.853 2321.2 86.5698 2362.04 86.5698C2402.89 86.5698 2402.89 131.853 2443.72 131.853C2484.56 131.853 2484.57 86.5698 2525.4 86.5698C2566.23 86.5698 2566.24 131.853 2607.08 131.853C2647.91 131.853 2647.92 86.5698 2688.75 86.5698C2729.59 86.5698 2729.6 131.853 2770.43 131.853C2811.27 131.853 2811.28 86.5698 2852.12 86.5698C2892.96 86.5698 2892.96 131.853 2933.81 131.853" stroke="black" stroke-width="5" stroke-miterlimit="10"/>
<path d="M-88.2129 156.474C-47.3789 156.474 -47.3789 201.757 -6.5449 201.757C34.2891 201.757 34.2891 156.474 75.1326 156.474C115.976 156.474 115.967 201.757 156.801 201.757C197.635 201.757 197.635 156.474 238.469 156.474C279.303 156.474 279.303 201.757 320.137 201.757C360.971 201.757 360.971 156.474 401.805 156.474C442.639 156.474 442.638 201.757 483.482 201.757C524.325 201.757 524.316 156.474 565.159 156.474C606.003 156.474 605.993 201.757 646.837 201.757C687.68 201.757 687.671 156.474 728.514 156.474C769.358 156.474 769.348 201.757 810.192 201.757C851.035 201.757 851.026 156.474 891.86 156.474C932.694 156.474 932.694 201.757 973.537 201.757C1014.38 201.757 1014.37 156.474 1055.21 156.474C1096.06 156.474 1096.05 201.757 1136.89 201.757C1177.74 201.757 1177.73 156.474 1218.57 156.474C1259.41 156.474 1259.4 201.757 1300.25 201.757C1341.09 201.757 1341.08 156.474 1381.92 156.474C1422.77 156.474 1422.76 201.757 1463.6 201.757C1504.45 201.757 1504.44 156.474 1545.28 156.474C1586.12 156.474 1586.11 201.757 1626.96 201.757C1667.8 201.757 1667.8 156.474 1708.63 156.474C1749.47 156.474 1749.47 201.757 1790.31 201.757C1831.16 201.757 1831.15 156.474 1871.99 156.474C1912.83 156.474 1912.83 201.757 1953.67 201.757C1994.5 201.757 1994.51 156.474 2035.34 156.474C2076.18 156.474 2076.18 201.757 2117.01 201.757C2157.85 201.757 2157.85 156.474 2198.69 156.474C2239.53 156.474 2239.53 201.757 2280.37 201.757C2321.2 201.757 2321.2 156.474 2362.04 156.474C2402.89 156.474 2402.89 201.757 2443.72 201.757C2484.56 201.757 2484.57 156.474 2525.4 156.474C2566.23 156.474 2566.24 201.757 2607.08 201.757C2647.91 201.757 2647.92 156.474 2688.75 156.474C2729.59 156.474 2729.6 201.757 2770.43 201.757C2811.27 201.757 2811.28 156.474 2852.12 156.474C2892.96 156.474 2892.96 201.757 2933.81 201.757" stroke="black" stroke-width="5" stroke-miterlimit="10"/>
<path d="M-88.2129 226.368C-47.3789 226.368 -47.3789 271.651 -6.5449 271.651C34.2891 271.651 34.2891 226.368 75.1326 226.368C115.976 226.368 115.967 271.651 156.801 271.651C197.635 271.651 197.635 226.368 238.469 226.368C279.303 226.368 279.303 271.651 320.137 271.651C360.971 271.651 360.971 226.368 401.805 226.368C442.639 226.368 442.638 271.651 483.482 271.651C524.325 271.651 524.316 226.368 565.159 226.368C606.003 226.368 605.993 271.651 646.837 271.651C687.68 271.651 687.671 226.368 728.514 226.368C769.358 226.368 769.348 271.651 810.192 271.651C851.035 271.651 851.026 226.368 891.86 226.368C932.694 226.368 932.694 271.651 973.537 271.651C1014.38 271.651 1014.37 226.368 1055.21 226.368C1096.06 226.368 1096.05 271.651 1136.89 271.651C1177.74 271.651 1177.73 226.368 1218.57 226.368C1259.41 226.368 1259.4 271.651 1300.25 271.651C1341.09 271.651 1341.08 226.368 1381.92 226.368C1422.77 226.368 1422.76 271.651 1463.6 271.651C1504.45 271.651 1504.44 226.368 1545.28 226.368C1586.12 226.368 1586.11 271.651 1626.96 271.651C1667.8 271.651 1667.8 226.368 1708.63 226.368C1749.47 226.368 1749.47 271.651 1790.31 271.651C1831.16 271.651 1831.15 226.368 1871.99 226.368C1912.83 226.368 1912.83 271.651 1953.67 271.651C1994.5 271.651 1994.51 226.368 2035.34 226.368C2076.18 226.368 2076.18 271.651 2117.01 271.651C2157.85 271.651 2157.85 226.368 2198.69 226.368C2239.53 226.368 2239.53 271.651 2280.37 271.651C2321.2 271.651 2321.2 226.368 2362.04 226.368C2402.89 226.368 2402.89 271.651 2443.72 271.651C2484.56 271.651 2484.57 226.368 2525.4 226.368C2566.23 226.368 2566.24 271.651 2607.08 271.651C2647.91 271.651 2647.92 226.368 2688.75 226.368C2729.59 226.368 2729.6 271.651 2770.43 271.651C2811.27 271.651 2811.28 226.368 2852.12 226.368C2892.96 226.368 2892.96 271.651 2933.81 271.651" stroke="black" stroke-width="5" stroke-miterlimit="10"/>
<path d="M-88.2129 296.271C-47.3789 296.271 -47.3789 341.555 -6.5449 341.555C34.2891 341.555 34.2891 296.271 75.1326 296.271C115.976 296.271 115.967 341.555 156.801 341.555C197.635 341.555 197.635 296.271 238.469 296.271C279.303 296.271 279.303 341.555 320.137 341.555C360.971 341.555 360.971 296.271 401.805 296.271C442.639 296.271 442.638 341.555 483.482 341.555C524.325 341.555 524.316 296.271 565.159 296.271C606.003 296.271 605.993 341.555 646.837 341.555C687.68 341.555 687.671 296.271 728.514 296.271C769.358 296.271 769.348 341.555 810.192 341.555C851.035 341.555 851.026 296.271 891.86 296.271C932.694 296.271 932.694 341.555 973.537 341.555C1014.38 341.555 1014.37 296.271 1055.21 296.271C1096.06 296.271 1096.05 341.555 1136.89 341.555C1177.74 341.555 1177.73 296.271 1218.57 296.271C1259.41 296.271 1259.4 341.555 1300.25 341.555C1341.09 341.555 1341.08 296.271 1381.92 296.271C1422.77 296.271 1422.76 341.555 1463.6 341.555C1504.45 341.555 1504.44 296.271 1545.28 296.271C1586.12 296.271 1586.11 341.555 1626.96 341.555C1667.8 341.555 1667.8 296.271 1708.63 296.271C1749.47 296.271 1749.47 341.555 1790.31 341.555C1831.16 341.555 1831.15 296.271 1871.99 296.271C1912.83 296.271 1912.83 341.555 1953.67 341.555C1994.5 341.555 1994.51 296.271 2035.34 296.271C2076.18 296.271 2076.18 341.555 2117.01 341.555C2157.85 341.555 2157.85 296.271 2198.69 296.271C2239.53 296.271 2239.53 341.555 2280.37 341.555C2321.2 341.555 2321.2 296.271 2362.04 296.271C2402.89 296.271 2402.89 341.555 2443.72 341.555C2484.56 341.555 2484.57 296.271 2525.4 296.271C2566.23 296.271 2566.24 341.555 2607.08 341.555C2647.91 341.555 2647.92 296.271 2688.75 296.271C2729.59 296.271 2729.6 341.555 2770.43 341.555C2811.27 341.555 2811.28 296.271 2852.12 296.271C2892.96 296.271 2892.96 341.555 2933.81 341.555" stroke="black" stroke-width="5" stroke-miterlimit="10"/>
<path d="M-88.2129 366.175C-47.3789 366.175 -47.3789 411.459 -6.5449 411.459C34.2891 411.459 34.2891 366.175 75.1326 366.175C115.976 366.175 115.967 411.459 156.801 411.459C197.635 411.459 197.635 366.175 238.469 366.175C279.303 366.175 279.303 411.459 320.137 411.459C360.971 411.459 360.971 366.175 401.805 366.175C442.639 366.175 442.638 411.459 483.482 411.459C524.325 411.459 524.316 366.175 565.159 366.175C606.003 366.175 605.993 411.459 646.837 411.459C687.68 411.459 687.671 366.175 728.514 366.175C769.358 366.175 769.348 411.459 810.192 411.459C851.035 411.459 851.026 366.175 891.86 366.175C932.694 366.175 932.694 411.459 973.537 411.459C1014.38 411.459 1014.37 366.175 1055.21 366.175C1096.06 366.175 1096.05 411.459 1136.89 411.459C1177.74 411.459 1177.73 366.175 1218.57 366.175C1259.41 366.175 1259.4 411.459 1300.25 411.459C1341.09 411.459 1341.08 366.175 1381.92 366.175C1422.77 366.175 1422.76 411.459 1463.6 411.459C1504.45 411.459 1504.44 366.175 1545.28 366.175C1586.12 366.175 1586.11 411.459 1626.96 411.459C1667.8 411.459 1667.8 366.175 1708.63 366.175C1749.47 366.175 1749.47 411.459 1790.31 411.459C1831.16 411.459 1831.15 366.175 1871.99 366.175C1912.83 366.175 1912.83 411.459 1953.67 411.459C1994.5 411.459 1994.51 366.175 2035.34 366.175C2076.18 366.175 2076.18 411.459 2117.01 411.459C2157.85 411.459 2157.85 366.175 2198.69 366.175C2239.53 366.175 2239.53 411.459 2280.37 411.459C2321.2 411.459 2321.2 366.175 2362.04 366.175C2402.89 366.175 2402.89 411.459 2443.72 411.459C2484.56 411.459 2484.57 366.175 2525.4 366.175C2566.23 366.175 2566.24 411.459 2607.08 411.459C2647.91 411.459 2647.92 366.175 2688.75 366.175C2729.59 366.175 2729.6 411.459 2770.43 411.459C2811.27 411.459 2811.28 366.175 2852.12 366.175C2892.96 366.175 2892.96 411.459 2933.81 411.459" stroke="black" stroke-width="5" stroke-miterlimit="10"/>
<path d="M-88.2129 436.069C-47.3789 436.069 -47.3789 481.352 -6.5449 481.352C34.2891 481.352 34.2891 436.069 75.1326 436.069C115.976 436.069 115.967 481.352 156.801 481.352C197.635 481.352 197.635 436.069 238.469 436.069C279.303 436.069 279.303 481.352 320.137 481.352C360.971 481.352 360.971 436.069 401.805 436.069C442.639 436.069 442.638 481.352 483.482 481.352C524.325 481.352 524.316 436.069 565.159 436.069C606.003 436.069 605.993 481.352 646.837 481.352C687.68 481.352 687.671 436.069 728.514 436.069C769.358 436.069 769.348 481.352 810.192 481.352C851.035 481.352 851.026 436.069 891.86 436.069C932.694 436.069 932.694 481.352 973.537 481.352C1014.38 481.352 1014.37 436.069 1055.21 436.069C1096.06 436.069 1096.05 481.352 1136.89 481.352C1177.74 481.352 1177.73 436.069 1218.57 436.069C1259.41 436.069 1259.4 481.352 1300.25 481.352C1341.09 481.352 1341.08 436.069 1381.92 436.069C1422.77 436.069 1422.76 481.352 1463.6 481.352C1504.45 481.352 1504.44 436.069 1545.28 436.069C1586.12 436.069 1586.11 481.352 1626.96 481.352C1667.8 481.352 1667.8 436.069 1708.63 436.069C1749.47 436.069 1749.47 481.352 1790.31 481.352C1831.16 481.352 1831.15 436.069 1871.99 436.069C1912.83 436.069 1912.83 481.352 1953.67 481.352C1994.5 481.352 1994.51 436.069 2035.34 436.069C2076.18 436.069 2076.18 481.352 2117.01 481.352C2157.85 481.352 2157.85 436.069 2198.69 436.069C2239.53 436.069 2239.53 481.352 2280.37 481.352C2321.2 481.352 2321.2 436.069 2362.04 436.069C2402.89 436.069 2402.89 481.352 2443.72 481.352C2484.56 481.352 2484.57 436.069 2525.4 436.069C2566.23 436.069 2566.24 481.352 2607.08 481.352C2647.91 481.352 2647.92 436.069 2688.75 436.069C2729.59 436.069 2729.6 481.352 2770.43 481.352C2811.27 481.352 2811.28 436.069 2852.12 436.069C2892.96 436.069 2892.96 481.352 2933.81 481.352" stroke="black" stroke-width="5" stroke-miterlimit="10"/>
<path d="M-88.2129 505.973C-47.3789 505.973 -47.3789 551.256 -6.5449 551.256C34.2891 551.256 34.2891 505.973 75.1326 505.973C115.976 505.973 115.967 551.256 156.801 551.256C197.635 551.256 197.635 505.973 238.469 505.973C279.303 505.973 279.303 551.256 320.137 551.256C360.971 551.256 360.971 505.973 401.805 505.973C442.639 505.973 442.638 551.256 483.482 551.256C524.325 551.256 524.316 505.973 565.159 505.973C606.003 505.973 605.993 551.256 646.837 551.256C687.68 551.256 687.671 505.973 728.514 505.973C769.358 505.973 769.348 551.256 810.192 551.256C851.035 551.256 851.026 505.973 891.86 505.973C932.694 505.973 932.694 551.256 973.537 551.256C1014.38 551.256 1014.37 505.973 1055.21 505.973C1096.06 505.973 1096.05 551.256 1136.89 551.256C1177.74 551.256 1177.73 505.973 1218.57 505.973C1259.41 505.973 1259.4 551.256 1300.25 551.256C1341.09 551.256 1341.08 505.973 1381.92 505.973C1422.77 505.973 1422.76 551.256 1463.6 551.256C1504.45 551.256 1504.44 505.973 1545.28 505.973C1586.12 505.973 1586.11 551.256 1626.96 551.256C1667.8 551.256 1667.8 505.973 1708.63 505.973C1749.47 505.973 1749.47 551.256 1790.31 551.256C1831.16 551.256 1831.15 505.973 1871.99 505.973C1912.83 505.973 1912.83 551.256 1953.67 551.256C1994.5 551.256 1994.51 505.973 2035.34 505.973C2076.18 505.973 2076.18 551.256 2117.01 551.256C2157.85 551.256 2157.85 505.973 2198.69 505.973C2239.53 505.973 2239.53 551.256 2280.37 551.256C2321.2 551.256 2321.2 505.973 2362.04 505.973C2402.89 505.973 2402.89 551.256 2443.72 551.256C2484.56 551.256 2484.57 505.973 2525.4 505.973C2566.23 505.973 2566.24 551.256 2607.08 551.256C2647.91 551.256 2647.92 505.973 2688.75 505.973C2729.59 505.973 2729.6 551.256 2770.43 551.256C2811.27 551.256 2811.28 505.973 2852.12 505.973C2892.96 505.973 2892.96 551.256 2933.81 551.256" stroke="black" stroke-width="5" stroke-miterlimit="10"/>
<path d="M-88.2129 575.867C-47.3789 575.867 -47.3789 621.15 -6.5449 621.15C34.2891 621.15 34.2891 575.867 75.1326 575.867C115.976 575.867 115.967 621.15 156.801 621.15C197.635 621.15 197.635 575.867 238.469 575.867C279.303 575.867 279.303 621.15 320.137 621.15C360.971 621.15 360.971 575.867 401.805 575.867C442.639 575.867 442.638 621.15 483.482 621.15C524.325 621.15 524.316 575.867 565.159 575.867C606.003 575.867 605.993 621.15 646.837 621.15C687.68 621.15 687.671 575.867 728.514 575.867C769.358 575.867 769.348 621.15 810.192 621.15C851.035 621.15 851.026 575.867 891.86 575.867C932.694 575.867 932.694 621.15 973.537 621.15C1014.38 621.15 1014.37 575.867 1055.21 575.867C1096.06 575.867 1096.05 621.15 1136.89 621.15C1177.74 621.15 1177.73 575.867 1218.57 575.867C1259.41 575.867 1259.4 621.15 1300.25 621.15C1341.09 621.15 1341.08 575.867 1381.92 575.867C1422.77 575.867 1422.76 621.15 1463.6 621.15C1504.45 621.15 1504.44 575.867 1545.28 575.867C1586.12 575.867 1586.11 621.15 1626.96 621.15C1667.8 621.15 1667.8 575.867 1708.63 575.867C1749.47 575.867 1749.47 621.15 1790.31 621.15C1831.16 621.15 1831.15 575.867 1871.99 575.867C1912.83 575.867 1912.83 621.15 1953.67 621.15C1994.5 621.15 1994.51 575.867 2035.34 575.867C2076.18 575.867 2076.18 621.15 2117.01 621.15C2157.85 621.15 2157.85 575.867 2198.69 575.867C2239.53 575.867 2239.53 621.15 2280.37 621.15C2321.2 621.15 2321.2 575.867 2362.04 575.867C2402.89 575.867 2402.89 621.15 2443.72 621.15C2484.56 621.15 2484.57 575.867 2525.4 575.867C2566.23 575.867 2566.24 621.15 2607.08 621.15C2647.91 621.15 2647.92 575.867 2688.75 575.867C2729.59 575.867 2729.6 621.15 2770.43 621.15C2811.27 621.15 2811.28 575.867 2852.12 575.867C2892.96 575.867 2892.96 621.15 2933.81 621.15" stroke="black" stroke-width="5" stroke-miterlimit="10"/>
<path d="M-88.2129 645.771C-47.3789 645.771 -47.3789 691.054 -6.5449 691.054C34.2891 691.054 34.2891 645.771 75.1326 645.771C115.976 645.771 115.967 691.054 156.801 691.054C197.635 691.054 197.635 645.771 238.469 645.771C279.303 645.771 279.303 691.054 320.137 691.054C360.971 691.054 360.971 645.771 401.805 645.771C442.639 645.771 442.638 691.054 483.482 691.054C524.325 691.054 524.316 645.771 565.159 645.771C606.003 645.771 605.993 691.054 646.837 691.054C687.68 691.054 687.671 645.771 728.514 645.771C769.358 645.771 769.348 691.054 810.192 691.054C851.035 691.054 851.026 645.771 891.86 645.771C932.694 645.771 932.694 691.054 973.537 691.054C1014.38 691.054 1014.37 645.771 1055.21 645.771C1096.06 645.771 1096.05 691.054 1136.89 691.054C1177.74 691.054 1177.73 645.771 1218.57 645.771C1259.41 645.771 1259.4 691.054 1300.25 691.054C1341.09 691.054 1341.08 645.771 1381.92 645.771C1422.77 645.771 1422.76 691.054 1463.6 691.054C1504.45 691.054 1504.44 645.771 1545.28 645.771C1586.12 645.771 1586.11 691.054 1626.96 691.054C1667.8 691.054 1667.8 645.771 1708.63 645.771C1749.47 645.771 1749.47 691.054 1790.31 691.054C1831.16 691.054 1831.15 645.771 1871.99 645.771C1912.83 645.771 1912.83 691.054 1953.67 691.054C1994.5 691.054 1994.51 645.771 2035.34 645.771C2076.18 645.771 2076.18 691.054 2117.01 691.054C2157.85 691.054 2157.85 645.771 2198.69 645.771C2239.53 645.771 2239.53 691.054 2280.37 691.054C2321.2 691.054 2321.2 645.771 2362.04 645.771C2402.89 645.771 2402.89 691.054 2443.72 691.054C2484.56 691.054 2484.57 645.771 2525.4 645.771C2566.23 645.771 2566.24 691.054 2607.08 691.054C2647.91 691.054 2647.92 645.771 2688.75 645.771C2729.59 645.771 2729.6 691.054 2770.43 691.054C2811.27 691.054 2811.28 645.771 2852.12 645.771C2892.96 645.771 2892.96 691.054 2933.81 691.054" stroke="black" stroke-width="5" stroke-miterlimit="10"/>
<path d="M-88.2129 715.674C-47.3789 715.674 -47.3789 760.958 -6.5449 760.958C34.2891 760.958 34.2891 715.674 75.1326 715.674C115.976 715.674 115.967 760.958 156.801 760.958C197.635 760.958 197.635 715.674 238.469 715.674C279.303 715.674 279.303 760.958 320.137 760.958C360.971 760.958 360.971 715.674 401.805 715.674C442.639 715.674 442.638 760.958 483.482 760.958C524.325 760.958 524.316 715.674 565.159 715.674C606.003 715.674 605.993 760.958 646.837 760.958C687.68 760.958 687.671 715.674 728.514 715.674C769.358 715.674 769.348 760.958 810.192 760.958C851.035 760.958 851.026 715.674 891.86 715.674C932.694 715.674 932.694 760.958 973.537 760.958C1014.38 760.958 1014.37 715.674 1055.21 715.674C1096.06 715.674 1096.05 760.958 1136.89 760.958C1177.74 760.958 1177.73 715.674 1218.57 715.674C1259.41 715.674 1259.4 760.958 1300.25 760.958C1341.09 760.958 1341.08 715.674 1381.92 715.674C1422.77 715.674 1422.76 760.958 1463.6 760.958C1504.45 760.958 1504.44 715.674 1545.28 715.674C1586.12 715.674 1586.11 760.958 1626.96 760.958C1667.8 760.958 1667.8 715.674 1708.63 715.674C1749.47 715.674 1749.47 760.958 1790.31 760.958C1831.16 760.958 1831.15 715.674 1871.99 715.674C1912.83 715.674 1912.83 760.958 1953.67 760.958C1994.5 760.958 1994.51 715.674 2035.34 715.674C2076.18 715.674 2076.18 760.958 2117.01 760.958C2157.85 760.958 2157.85 715.674 2198.69 715.674C2239.53 715.674 2239.53 760.958 2280.37 760.958C2321.2 760.958 2321.2 715.674 2362.04 715.674C2402.89 715.674 2402.89 760.958 2443.72 760.958C2484.56 760.958 2484.57 715.674 2525.4 715.674C2566.23 715.674 2566.24 760.958 2607.08 760.958C2647.91 760.958 2647.92 715.674 2688.75 715.674C2729.59 715.674 2729.6 760.958 2770.43 760.958C2811.27 760.958 2811.28 715.674 2852.12 715.674C2892.96 715.674 2892.96 760.958 2933.81 760.958" stroke="black" stroke-width="5" stroke-miterlimit="10"/>
<path d="M-88.2129 785.568C-47.3789 785.568 -47.3789 830.852 -6.5449 830.852C34.2891 830.852 34.2891 785.568 75.1326 785.568C115.976 785.568 115.967 830.852 156.801 830.852C197.635 830.852 197.635 785.568 238.469 785.568C279.303 785.568 279.303 830.852 320.137 830.852C360.971 830.852 360.971 785.568 401.805 785.568C442.639 785.568 442.638 830.852 483.482 830.852C524.325 830.852 524.316 785.568 565.159 785.568C606.003 785.568 605.993 830.852 646.837 830.852C687.68 830.852 687.671 785.568 728.514 785.568C769.358 785.568 769.348 830.852 810.192 830.852C851.035 830.852 851.026 785.568 891.86 785.568C932.694 785.568 932.694 830.852 973.537 830.852C1014.38 830.852 1014.37 785.568 1055.21 785.568C1096.06 785.568 1096.05 830.852 1136.89 830.852C1177.74 830.852 1177.73 785.568 1218.57 785.568C1259.41 785.568 1259.4 830.852 1300.25 830.852C1341.09 830.852 1341.08 785.568 1381.92 785.568C1422.77 785.568 1422.76 830.852 1463.6 830.852C1504.45 830.852 1504.44 785.568 1545.28 785.568C1586.12 785.568 1586.11 830.852 1626.96 830.852C1667.8 830.852 1667.8 785.568 1708.63 785.568C1749.47 785.568 1749.47 830.852 1790.31 830.852C1831.16 830.852 1831.15 785.568 1871.99 785.568C1912.83 785.568 1912.83 830.852 1953.67 830.852C1994.5 830.852 1994.51 785.568 2035.34 785.568C2076.18 785.568 2076.18 830.852 2117.01 830.852C2157.85 830.852 2157.85 785.568 2198.69 785.568C2239.53 785.568 2239.53 830.852 2280.37 830.852C2321.2 830.852 2321.2 785.568 2362.04 785.568C2402.89 785.568 2402.89 830.852 2443.72 830.852C2484.56 830.852 2484.57 785.568 2525.4 785.568C2566.23 785.568 2566.24 830.852 2607.08 830.852C2647.91 830.852 2647.92 785.568 2688.75 785.568C2729.59 785.568 2729.6 830.852 2770.43 830.852C2811.27 830.852 2811.28 785.568 2852.12 785.568C2892.96 785.568 2892.96 830.852 2933.81 830.852" stroke="black" stroke-width="5" stroke-miterlimit="10"/>
<path d="M-88.2129 855.472C-47.3789 855.472 -47.3789 900.756 -6.5449 900.756C34.2891 900.756 34.2891 855.472 75.1326 855.472C115.976 855.472 115.967 900.756 156.801 900.756C197.635 900.756 197.635 855.472 238.469 855.472C279.303 855.472 279.303 900.756 320.137 900.756C360.971 900.756 360.971 855.472 401.805 855.472C442.639 855.472 442.638 900.756 483.482 900.756C524.325 900.756 524.316 855.472 565.159 855.472C606.003 855.472 605.993 900.756 646.837 900.756C687.68 900.756 687.671 855.472 728.514 855.472C769.358 855.472 769.348 900.756 810.192 900.756C851.035 900.756 851.026 855.472 891.86 855.472C932.694 855.472 932.694 900.756 973.537 900.756C1014.38 900.756 1014.37 855.472 1055.21 855.472C1096.06 855.472 1096.05 900.756 1136.89 900.756C1177.74 900.756 1177.73 855.472 1218.57 855.472C1259.41 855.472 1259.4 900.756 1300.25 900.756C1341.09 900.756 1341.08 855.472 1381.92 855.472C1422.77 855.472 1422.76 900.756 1463.6 900.756C1504.45 900.756 1504.44 855.472 1545.28 855.472C1586.12 855.472 1586.11 900.756 1626.96 900.756C1667.8 900.756 1667.8 855.472 1708.63 855.472C1749.47 855.472 1749.47 900.756 1790.31 900.756C1831.16 900.756 1831.15 855.472 1871.99 855.472C1912.83 855.472 1912.83 900.756 1953.67 900.756C1994.5 900.756 1994.51 855.472 2035.34 855.472C2076.18 855.472 2076.18 900.756 2117.01 900.756C2157.85 900.756 2157.85 855.472 2198.69 855.472C2239.53 855.472 2239.53 900.756 2280.37 900.756C2321.2 900.756 2321.2 855.472 2362.04 855.472C2402.89 855.472 2402.89 900.756 2443.72 900.756C2484.56 900.756 2484.57 855.472 2525.4 855.472C2566.23 855.472 2566.24 900.756 2607.08 900.756C2647.91 900.756 2647.92 855.472 2688.75 855.472C2729.59 855.472 2729.6 900.756 2770.43 900.756C2811.27 900.756 2811.28 855.472 2852.12 855.472C2892.96 855.472 2892.96 900.756 2933.81 900.756" stroke="black" stroke-width="5" stroke-miterlimit="10"/>
<path d="M-88.2129 925.366C-47.3789 925.366 -47.3789 970.649 -6.5449 970.649C34.2891 970.649 34.2891 925.366 75.1326 925.366C115.976 925.366 115.967 970.649 156.801 970.649C197.635 970.649 197.635 925.366 238.469 925.366C279.303 925.366 279.303 970.649 320.137 970.649C360.971 970.649 360.971 925.366 401.805 925.366C442.639 925.366 442.638 970.649 483.482 970.649C524.325 970.649 524.316 925.366 565.159 925.366C606.003 925.366 605.993 970.649 646.837 970.649C687.68 970.649 687.671 925.366 728.514 925.366C769.358 925.366 769.348 970.649 810.192 970.649C851.035 970.649 851.026 925.366 891.86 925.366C932.694 925.366 932.694 970.649 973.537 970.649C1014.38 970.649 1014.37 925.366 1055.21 925.366C1096.06 925.366 1096.05 970.649 1136.89 970.649C1177.74 970.649 1177.73 925.366 1218.57 925.366C1259.41 925.366 1259.4 970.649 1300.25 970.649C1341.09 970.649 1341.08 925.366 1381.92 925.366C1422.77 925.366 1422.76 970.649 1463.6 970.649C1504.45 970.649 1504.44 925.366 1545.28 925.366C1586.12 925.366 1586.11 970.649 1626.96 970.649C1667.8 970.649 1667.8 925.366 1708.63 925.366C1749.47 925.366 1749.47 970.649 1790.31 970.649C1831.16 970.649 1831.15 925.366 1871.99 925.366C1912.83 925.366 1912.83 970.649 1953.67 970.649C1994.5 970.649 1994.51 925.366 2035.34 925.366C2076.18 925.366 2076.18 970.649 2117.01 970.649C2157.85 970.649 2157.85 925.366 2198.69 925.366C2239.53 925.366 2239.53 970.649 2280.37 970.649C2321.2 970.649 2321.2 925.366 2362.04 925.366C2402.89 925.366 2402.89 970.649 2443.72 970.649C2484.56 970.649 2484.57 925.366 2525.4 925.366C2566.23 925.366 2566.24 970.649 2607.08 970.649C2647.91 970.649 2647.92 925.366 2688.75 925.366C2729.59 925.366 2729.6 970.649 2770.43 970.649C2811.27 970.649 2811.28 925.366 2852.12 925.366C2892.96 925.366 2892.96 970.649 2933.81 970.649" stroke="black" stroke-width="5" stroke-miterlimit="10"/>
<path d="M-88.2129 995.27C-47.3789 995.27 -47.3789 1040.55 -6.5449 1040.55C34.2891 1040.55 34.2891 995.27 75.1326 995.27C115.976 995.27 115.967 1040.55 156.801 1040.55C197.635 1040.55 197.635 995.27 238.469 995.27C279.303 995.27 279.303 1040.55 320.137 1040.55C360.971 1040.55 360.971 995.27 401.805 995.27C442.639 995.27 442.638 1040.55 483.482 1040.55C524.325 1040.55 524.316 995.27 565.159 995.27C606.003 995.27 605.993 1040.55 646.837 1040.55C687.68 1040.55 687.671 995.27 728.514 995.27C769.358 995.27 769.348 1040.55 810.192 1040.55C851.035 1040.55 851.026 995.27 891.86 995.27C932.694 995.27 932.694 1040.55 973.537 1040.55C1014.38 1040.55 1014.37 995.27 1055.21 995.27C1096.06 995.27 1096.05 1040.55 1136.89 1040.55C1177.74 1040.55 1177.73 995.27 1218.57 995.27C1259.41 995.27 1259.4 1040.55 1300.25 1040.55C1341.09 1040.55 1341.08 995.27 1381.92 995.27C1422.77 995.27 1422.76 1040.55 1463.6 1040.55C1504.45 1040.55 1504.44 995.27 1545.28 995.27C1586.12 995.27 1586.11 1040.55 1626.96 1040.55C1667.8 1040.55 1667.8 995.27 1708.63 995.27C1749.47 995.27 1749.47 1040.55 1790.31 1040.55C1831.16 1040.55 1831.15 995.27 1871.99 995.27C1912.83 995.27 1912.83 1040.55 1953.67 1040.55C1994.5 1040.55 1994.51 995.27 2035.34 995.27C2076.18 995.27 2076.18 1040.55 2117.01 1040.55C2157.85 1040.55 2157.85 995.27 2198.69 995.27C2239.53 995.27 2239.53 1040.55 2280.37 1040.55C2321.2 1040.55 2321.2 995.27 2362.04 995.27C2402.89 995.27 2402.89 1040.55 2443.72 1040.55C2484.56 1040.55 2484.57 995.27 2525.4 995.27C2566.23 995.27 2566.24 1040.55 2607.08 1040.55C2647.91 1040.55 2647.92 995.27 2688.75 995.27C2729.59 995.27 2729.6 1040.55 2770.43 1040.55C2811.27 1040.55 2811.28 995.27 2852.12 995.27C2892.96 995.27 2892.96 1040.55 2933.81 1040.55" stroke="black" stroke-width="5" stroke-miterlimit="10"/>
<path d="M-88.2129 1065.16C-47.3789 1065.16 -47.3789 1110.45 -6.5449 1110.45C34.2891 1110.45 34.2891 1065.16 75.1326 1065.16C115.976 1065.16 115.967 1110.45 156.801 1110.45C197.635 1110.45 197.635 1065.16 238.469 1065.16C279.303 1065.16 279.303 1110.45 320.137 1110.45C360.971 1110.45 360.971 1065.16 401.805 1065.16C442.639 1065.16 442.638 1110.45 483.482 1110.45C524.325 1110.45 524.316 1065.16 565.159 1065.16C606.003 1065.16 605.993 1110.45 646.837 1110.45C687.68 1110.45 687.671 1065.16 728.514 1065.16C769.358 1065.16 769.348 1110.45 810.192 1110.45C851.035 1110.45 851.026 1065.16 891.86 1065.16C932.694 1065.16 932.694 1110.45 973.537 1110.45C1014.38 1110.45 1014.37 1065.16 1055.21 1065.16C1096.06 1065.16 1096.05 1110.45 1136.89 1110.45C1177.74 1110.45 1177.73 1065.16 1218.57 1065.16C1259.41 1065.16 1259.4 1110.45 1300.25 1110.45C1341.09 1110.45 1341.08 1065.16 1381.92 1065.16C1422.77 1065.16 1422.76 1110.45 1463.6 1110.45C1504.45 1110.45 1504.44 1065.16 1545.28 1065.16C1586.12 1065.16 1586.11 1110.45 1626.96 1110.45C1667.8 1110.45 1667.8 1065.16 1708.63 1065.16C1749.47 1065.16 1749.47 1110.45 1790.31 1110.45C1831.16 1110.45 1831.15 1065.16 1871.99 1065.16C1912.83 1065.16 1912.83 1110.45 1953.67 1110.45C1994.5 1110.45 1994.51 1065.16 2035.34 1065.16C2076.18 1065.16 2076.18 1110.45 2117.01 1110.45C2157.85 1110.45 2157.85 1065.16 2198.69 1065.16C2239.53 1065.16 2239.53 1110.45 2280.37 1110.45C2321.2 1110.45 2321.2 1065.16 2362.04 1065.16C2402.89 1065.16 2402.89 1110.45 2443.72 1110.45C2484.56 1110.45 2484.57 1065.16 2525.4 1065.16C2566.23 1065.16 2566.24 1110.45 2607.08 1110.45C2647.91 1110.45 2647.92 1065.16 2688.75 1065.16C2729.59 1065.16 2729.6 1110.45 2770.43 1110.45C2811.27 1110.45 2811.28 1065.16 2852.12 1065.16C2892.96 1065.16 2892.96 1110.45 2933.81 1110.45" stroke="black" stroke-width="5" stroke-miterlimit="10"/>
<path d="M-88.2129 1135.07C-47.3789 1135.07 -47.3789 1180.35 -6.5449 1180.35C34.2891 1180.35 34.2891 1135.07 75.1326 1135.07C115.976 1135.07 115.967 1180.35 156.801 1180.35C197.635 1180.35 197.635 1135.07 238.469 1135.07C279.303 1135.07 279.303 1180.35 320.137 1180.35C360.971 1180.35 360.971 1135.07 401.805 1135.07C442.639 1135.07 442.638 1180.35 483.482 1180.35C524.325 1180.35 524.316 1135.07 565.159 1135.07C606.003 1135.07 605.993 1180.35 646.837 1180.35C687.68 1180.35 687.671 1135.07 728.514 1135.07C769.358 1135.07 769.348 1180.35 810.192 1180.35C851.035 1180.35 851.026 1135.07 891.86 1135.07C932.694 1135.07 932.694 1180.35 973.537 1180.35C1014.38 1180.35 1014.37 1135.07 1055.21 1135.07C1096.06 1135.07 1096.05 1180.35 1136.89 1180.35C1177.74 1180.35 1177.73 1135.07 1218.57 1135.07C1259.41 1135.07 1259.4 1180.35 1300.25 1180.35C1341.09 1180.35 1341.08 1135.07 1381.92 1135.07C1422.77 1135.07 1422.76 1180.35 1463.6 1180.35C1504.45 1180.35 1504.44 1135.07 1545.28 1135.07C1586.12 1135.07 1586.11 1180.35 1626.96 1180.35C1667.8 1180.35 1667.8 1135.07 1708.63 1135.07C1749.47 1135.07 1749.47 1180.35 1790.31 1180.35C1831.16 1180.35 1831.15 1135.07 1871.99 1135.07C1912.83 1135.07 1912.83 1180.35 1953.67 1180.35C1994.5 1180.35 1994.51 1135.07 2035.34 1135.07C2076.18 1135.07 2076.18 1180.35 2117.01 1180.35C2157.85 1180.35 2157.85 1135.07 2198.69 1135.07C2239.53 1135.07 2239.53 1180.35 2280.37 1180.35C2321.2 1180.35 2321.2 1135.07 2362.04 1135.07C2402.89 1135.07 2402.89 1180.35 2443.72 1180.35C2484.56 1180.35 2484.57 1135.07 2525.4 1135.07C2566.23 1135.07 2566.24 1180.35 2607.08 1180.35C2647.91 1180.35 2647.92 1135.07 2688.75 1135.07C2729.59 1135.07 2729.6 1180.35 2770.43 1180.35C2811.27 1180.35 2811.28 1135.07 2852.12 1135.07C2892.96 1135.07 2892.96 1180.35 2933.81 1180.35" stroke="black" stroke-width="5" stroke-miterlimit="10"/>
<path d="M-88.2129 1204.97C-47.3789 1204.97 -47.3789 1250.25 -6.5449 1250.25C34.2891 1250.25 34.2891 1204.97 75.1326 1204.97C115.976 1204.97 115.967 1250.25 156.801 1250.25C197.635 1250.25 197.635 1204.97 238.469 1204.97C279.303 1204.97 279.303 1250.25 320.137 1250.25C360.971 1250.25 360.971 1204.97 401.805 1204.97C442.639 1204.97 442.638 1250.25 483.482 1250.25C524.325 1250.25 524.316 1204.97 565.159 1204.97C606.003 1204.97 605.993 1250.25 646.837 1250.25C687.68 1250.25 687.671 1204.97 728.514 1204.97C769.358 1204.97 769.348 1250.25 810.192 1250.25C851.035 1250.25 851.026 1204.97 891.86 1204.97C932.694 1204.97 932.694 1250.25 973.537 1250.25C1014.38 1250.25 1014.37 1204.97 1055.21 1204.97C1096.06 1204.97 1096.05 1250.25 1136.89 1250.25C1177.74 1250.25 1177.73 1204.97 1218.57 1204.97C1259.41 1204.97 1259.4 1250.25 1300.25 1250.25C1341.09 1250.25 1341.08 1204.97 1381.92 1204.97C1422.77 1204.97 1422.76 1250.25 1463.6 1250.25C1504.45 1250.25 1504.44 1204.97 1545.28 1204.97C1586.12 1204.97 1586.11 1250.25 1626.96 1250.25C1667.8 1250.25 1667.8 1204.97 1708.63 1204.97C1749.47 1204.97 1749.47 1250.25 1790.31 1250.25C1831.16 1250.25 1831.15 1204.97 1871.99 1204.97C1912.83 1204.97 1912.83 1250.25 1953.67 1250.25C1994.5 1250.25 1994.51 1204.97 2035.34 1204.97C2076.18 1204.97 2076.18 1250.25 2117.01 1250.25C2157.85 1250.25 2157.85 1204.97 2198.69 1204.97C2239.53 1204.97 2239.53 1250.25 2280.37 1250.25C2321.2 1250.25 2321.2 1204.97 2362.04 1204.97C2402.89 1204.97 2402.89 1250.25 2443.72 1250.25C2484.56 1250.25 2484.57 1204.97 2525.4 1204.97C2566.23 1204.97 2566.24 1250.25 2607.08 1250.25C2647.91 1250.25 2647.92 1204.97 2688.75 1204.97C2729.59 1204.97 2729.6 1250.25 2770.43 1250.25C2811.27 1250.25 2811.28 1204.97 2852.12 1204.97C2892.96 1204.97 2892.96 1250.25 2933.81 1250.25" stroke="black" stroke-width="5" stroke-miterlimit="10"/>
<path d="M-88.2129 1274.86C-47.3789 1274.86 -47.3789 1320.15 -6.5449 1320.15C34.2891 1320.15 34.2891 1274.86 75.1326 1274.86C115.976 1274.86 115.967 1320.15 156.801 1320.15C197.635 1320.15 197.635 1274.86 238.469 1274.86C279.303 1274.86 279.303 1320.15 320.137 1320.15C360.971 1320.15 360.971 1274.86 401.805 1274.86C442.639 1274.86 442.638 1320.15 483.482 1320.15C524.325 1320.15 524.316 1274.86 565.159 1274.86C606.003 1274.86 605.993 1320.15 646.837 1320.15C687.68 1320.15 687.671 1274.86 728.514 1274.86C769.358 1274.86 769.348 1320.15 810.192 1320.15C851.035 1320.15 851.026 1274.86 891.86 1274.86C932.694 1274.86 932.694 1320.15 973.537 1320.15C1014.38 1320.15 1014.37 1274.86 1055.21 1274.86C1096.06 1274.86 1096.05 1320.15 1136.89 1320.15C1177.74 1320.15 1177.73 1274.86 1218.57 1274.86C1259.41 1274.86 1259.4 1320.15 1300.25 1320.15C1341.09 1320.15 1341.08 1274.86 1381.92 1274.86C1422.77 1274.86 1422.76 1320.15 1463.6 1320.15C1504.45 1320.15 1504.44 1274.86 1545.28 1274.86C1586.12 1274.86 1586.11 1320.15 1626.96 1320.15C1667.8 1320.15 1667.8 1274.86 1708.63 1274.86C1749.47 1274.86 1749.47 1320.15 1790.31 1320.15C1831.16 1320.15 1831.15 1274.86 1871.99 1274.86C1912.83 1274.86 1912.83 1320.15 1953.67 1320.15C1994.5 1320.15 1994.51 1274.86 2035.34 1274.86C2076.18 1274.86 2076.18 1320.15 2117.01 1320.15C2157.85 1320.15 2157.85 1274.86 2198.69 1274.86C2239.53 1274.86 2239.53 1320.15 2280.37 1320.15C2321.2 1320.15 2321.2 1274.86 2362.04 1274.86C2402.89 1274.86 2402.89 1320.15 2443.72 1320.15C2484.56 1320.15 2484.57 1274.86 2525.4 1274.86C2566.23 1274.86 2566.24 1320.15 2607.08 1320.15C2647.91 1320.15 2647.92 1274.86 2688.75 1274.86C2729.59 1274.86 2729.6 1320.15 2770.43 1320.15C2811.27 1320.15 2811.28 1274.86 2852.12 1274.86C2892.96 1274.86 2892.96 1320.15 2933.81 1320.15" stroke="black" stroke-width="5" stroke-miterlimit="10"/>
<path d="M-88.2129 1344.77C-47.3789 1344.77 -47.3789 1390.05 -6.5449 1390.05C34.2891 1390.05 34.2891 1344.77 75.1326 1344.77C115.976 1344.77 115.967 1390.05 156.801 1390.05C197.635 1390.05 197.635 1344.77 238.469 1344.77C279.303 1344.77 279.303 1390.05 320.137 1390.05C360.971 1390.05 360.971 1344.77 401.805 1344.77C442.639 1344.77 442.638 1390.05 483.482 1390.05C524.325 1390.05 524.316 1344.77 565.159 1344.77C606.003 1344.77 605.993 1390.05 646.837 1390.05C687.68 1390.05 687.671 1344.77 728.514 1344.77C769.358 1344.77 769.348 1390.05 810.192 1390.05C851.035 1390.05 851.026 1344.77 891.86 1344.77C932.694 1344.77 932.694 1390.05 973.537 1390.05C1014.38 1390.05 1014.37 1344.77 1055.21 1344.77C1096.06 1344.77 1096.05 1390.05 1136.89 1390.05C1177.74 1390.05 1177.73 1344.77 1218.57 1344.77C1259.41 1344.77 1259.4 1390.05 1300.25 1390.05C1341.09 1390.05 1341.08 1344.77 1381.92 1344.77C1422.77 1344.77 1422.76 1390.05 1463.6 1390.05C1504.45 1390.05 1504.44 1344.77 1545.28 1344.77C1586.12 1344.77 1586.11 1390.05 1626.96 1390.05C1667.8 1390.05 1667.8 1344.77 1708.63 1344.77C1749.47 1344.77 1749.47 1390.05 1790.31 1390.05C1831.16 1390.05 1831.15 1344.77 1871.99 1344.77C1912.83 1344.77 1912.83 1390.05 1953.67 1390.05C1994.5 1390.05 1994.51 1344.77 2035.34 1344.77C2076.18 1344.77 2076.18 1390.05 2117.01 1390.05C2157.85 1390.05 2157.85 1344.77 2198.69 1344.77C2239.53 1344.77 2239.53 1390.05 2280.37 1390.05C2321.2 1390.05 2321.2 1344.77 2362.04 1344.77C2402.89 1344.77 2402.89 1390.05 2443.72 1390.05C2484.56 1390.05 2484.57 1344.77 2525.4 1344.77C2566.23 1344.77 2566.24 1390.05 2607.08 1390.05C2647.91 1390.05 2647.92 1344.77 2688.75 1344.77C2729.59 1344.77 2729.6 1390.05 2770.43 1390.05C2811.27 1390.05 2811.28 1344.77 2852.12 1344.77C2892.96 1344.77 2892.96 1390.05 2933.81 1390.05" stroke="black" stroke-width="5" stroke-miterlimit="10"/>
<path d="M-88.2129 1414.66C-47.3789 1414.66 -47.3789 1459.95 -6.5449 1459.95C34.2891 1459.95 34.2891 1414.66 75.1326 1414.66C115.976 1414.66 115.967 1459.95 156.801 1459.95C197.635 1459.95 197.635 1414.66 238.469 1414.66C279.303 1414.66 279.303 1459.95 320.137 1459.95C360.971 1459.95 360.971 1414.66 401.805 1414.66C442.639 1414.66 442.638 1459.95 483.482 1459.95C524.325 1459.95 524.316 1414.66 565.159 1414.66C606.003 1414.66 605.993 1459.95 646.837 1459.95C687.68 1459.95 687.671 1414.66 728.514 1414.66C769.358 1414.66 769.348 1459.95 810.192 1459.95C851.035 1459.95 851.026 1414.66 891.86 1414.66C932.694 1414.66 932.694 1459.95 973.537 1459.95C1014.38 1459.95 1014.37 1414.66 1055.21 1414.66C1096.06 1414.66 1096.05 1459.95 1136.89 1459.95C1177.74 1459.95 1177.73 1414.66 1218.57 1414.66C1259.41 1414.66 1259.4 1459.95 1300.25 1459.95C1341.09 1459.95 1341.08 1414.66 1381.92 1414.66C1422.77 1414.66 1422.76 1459.95 1463.6 1459.95C1504.45 1459.95 1504.44 1414.66 1545.28 1414.66C1586.12 1414.66 1586.11 1459.95 1626.96 1459.95C1667.8 1459.95 1667.8 1414.66 1708.63 1414.66C1749.47 1414.66 1749.47 1459.95 1790.31 1459.95C1831.16 1459.95 1831.15 1414.66 1871.99 1414.66C1912.83 1414.66 1912.83 1459.95 1953.67 1459.95C1994.5 1459.95 1994.51 1414.66 2035.34 1414.66C2076.18 1414.66 2076.18 1459.95 2117.01 1459.95C2157.85 1459.95 2157.85 1414.66 2198.69 1414.66C2239.53 1414.66 2239.53 1459.95 2280.37 1459.95C2321.2 1459.95 2321.2 1414.66 2362.04 1414.66C2402.89 1414.66 2402.89 1459.95 2443.72 1459.95C2484.56 1459.95 2484.57 1414.66 2525.4 1414.66C2566.23 1414.66 2566.24 1459.95 2607.08 1459.95C2647.91 1459.95 2647.92 1414.66 2688.75 1414.66C2729.59 1414.66 2729.6 1459.95 2770.43 1459.95C2811.27 1459.95 2811.28 1414.66 2852.12 1414.66C2892.96 1414.66 2892.96 1459.95 2933.81 1459.95" stroke="black" stroke-width="5" stroke-miterlimit="10"/>
</g>
</svg>
