<?xml version="1.0" encoding="UTF-8"?>
<svg id="Layer_1" data-name="Layer 1" xmlns="http://www.w3.org/2000/svg" xmlns:xlink="http://www.w3.org/1999/xlink" viewBox="0 0 3186 1613.13">
  <defs>
    <style>
      .cls-1, .cls-2 {
        fill: none;
      }

      .cls-3 {
        fill: #fff;
      }

      .cls-2 {
        stroke: #000;
        stroke-miterlimit: 10;
        stroke-width: 5px;
      }

      .cls-4 {
        clip-path: url(#clippath);
      }
    </style>
    <clipPath id="clippath">
      <rect class="cls-1" x="93" y="56.57" width="3000" height="1500"/>
    </clipPath>
  </defs>
  <g class="cls-4">
    <rect class="cls-3" x="93" y="56.57" width="3000" height="1500"/>
    <g>
      <path class="cls-2" d="M0,2.5c43.05,0,43.05,46,86.1,46S129.16,2.5,172.21,2.5s43.05,46,86.1,46S301.36,2.5,344.41,2.5s43.05,46,86.1,46S473.57,2.5,516.62,2.5s43.05,46,86.11,46S645.78,2.5,688.84,2.5s43.05,46,86.11,46S818,2.5,861.05,2.5s43.05,46,86.11,46,43.05-46,86.1-46,43.05,46,86.11,46,43.05-46,86.11-46,43.05,46,86.11,46,43.05-46,86.11-46,43.05,46,86.11,46,43.05-46,86.11-46,43.05,46,86.11,46,43.05-46,86.11-46,43.05,46,86.11,46,43.06-46,86.11-46,43.05,46,86.11,46,43.05-46,86.11-46,43.06,46,86.11,46,43.06-46,86.11-46,43.05,46,86.1,46,43.05-46,86.11-46,43.06,46,86.11,46,43.05-46,86.11-46,43.06,46,86.11,46,43.06-46,86.11-46,43.06,46,86.11,46,43.06-46,86.11-46,43.06,46,86.11,46,43.06-46,86.12-46,43.06,46,86.12,46"/>
      <path class="cls-2" d="M0,73.51c43.05,0,43.05,46,86.1,46s43.05-46,86.11-46,43.05,46,86.1,46,43.05-46,86.1-46,43.05,46,86.1,46,43.05-46,86.1-46,43.05,46,86.11,46,43.05-46,86.11-46,43.05,46,86.11,46,43.05-46,86.11-46,43.05,46,86.11,46,43.05-46,86.1-46,43.05,46,86.11,46,43.05-46,86.11-46,43.05,46,86.11,46,43.05-46,86.11-46,43.05,46,86.11,46,43.05-46,86.11-46,43.05,46,86.11,46,43.05-46,86.11-46,43.05,46,86.11,46,43.06-46,86.11-46,43.05,46,86.11,46,43.05-46,86.11-46,43.06,46,86.11,46,43.06-46,86.11-46,43.05,46,86.1,46,43.05-46,86.11-46,43.06,46,86.11,46,43.05-46,86.11-46,43.06,46,86.11,46,43.06-46,86.11-46,43.06,46,86.11,46,43.06-46,86.11-46,43.06,46,86.11,46,43.06-46,86.12-46,43.06,46,86.12,46"/>
      <path class="cls-2" d="M0,144.51c43.05,0,43.05,46,86.1,46s43.05-46,86.11-46,43.05,46,86.1,46,43.05-46,86.1-46,43.05,46,86.1,46,43.05-46,86.1-46,43.05,46,86.11,46,43.05-46,86.11-46,43.05,46,86.11,46,43.05-46,86.11-46,43.05,46,86.11,46,43.05-46,86.1-46,43.05,46,86.11,46,43.05-46,86.11-46,43.05,46,86.11,46,43.05-46,86.11-46,43.05,46,86.11,46,43.05-46,86.11-46,43.05,46,86.11,46,43.05-46,86.11-46,43.05,46,86.11,46,43.06-46,86.11-46,43.05,46,86.11,46,43.05-46,86.11-46,43.06,46,86.11,46,43.06-46,86.11-46,43.05,46,86.1,46,43.05-46,86.11-46,43.06,46,86.11,46,43.05-46,86.11-46,43.06,46,86.11,46,43.06-46,86.11-46,43.06,46,86.11,46,43.06-46,86.11-46,43.06,46,86.11,46,43.06-46,86.12-46,43.06,46,86.12,46"/>
      <path class="cls-2" d="M0,215.52c43.05,0,43.05,46,86.1,46s43.05-46,86.11-46,43.05,46,86.1,46,43.05-46,86.1-46,43.05,46,86.1,46,43.05-46,86.1-46,43.05,46,86.11,46,43.05-46,86.11-46,43.05,46,86.11,46,43.05-46,86.11-46,43.05,46,86.11,46,43.05-46,86.1-46,43.05,46,86.11,46,43.05-46,86.11-46,43.05,46,86.11,46,43.05-46,86.11-46,43.05,46,86.11,46,43.05-46,86.11-46,43.05,46,86.11,46,43.05-46,86.11-46,43.05,46,86.11,46,43.06-46,86.11-46,43.05,46,86.11,46,43.05-46,86.11-46,43.06,46,86.11,46,43.06-46,86.11-46,43.05,46,86.1,46,43.05-46,86.11-46,43.06,46,86.11,46,43.05-46,86.11-46,43.06,46,86.11,46,43.06-46,86.11-46,43.06,46,86.11,46,43.06-46,86.11-46,43.06,46,86.11,46,43.06-46,86.12-46,43.06,46,86.12,46"/>
      <path class="cls-2" d="M0,286.52c43.05,0,43.05,46,86.1,46s43.05-46,86.11-46,43.05,46,86.1,46,43.05-46,86.1-46,43.05,46,86.1,46,43.05-46,86.1-46,43.05,46,86.11,46,43.05-46,86.11-46,43.05,46,86.11,46,43.05-46,86.11-46,43.05,46,86.11,46,43.05-46,86.1-46,43.05,46,86.11,46,43.05-46,86.11-46,43.05,46,86.11,46,43.05-46,86.11-46,43.05,46,86.11,46,43.05-46,86.11-46,43.05,46,86.11,46,43.05-46,86.11-46,43.05,46,86.11,46,43.06-46,86.11-46,43.05,46,86.11,46,43.05-46,86.11-46,43.06,46,86.11,46,43.06-46,86.11-46,43.05,46,86.1,46,43.05-46,86.11-46,43.06,46,86.11,46,43.05-46,86.11-46,43.06,46,86.11,46,43.06-46,86.11-46,43.06,46,86.11,46,43.06-46,86.11-46,43.06,46,86.11,46,43.06-46,86.12-46,43.06,46,86.12,46"/>
      <path class="cls-2" d="M0,357.53c43.05,0,43.05,46,86.1,46s43.05-46,86.11-46,43.05,46,86.1,46,43.05-46,86.1-46,43.05,46,86.1,46,43.05-46,86.1-46,43.05,46,86.11,46,43.05-46,86.11-46,43.05,46,86.11,46,43.05-46,86.11-46,43.05,46,86.11,46,43.05-46,86.1-46,43.05,46,86.11,46,43.05-46,86.11-46,43.05,46,86.11,46,43.05-46,86.11-46,43.05,46,86.11,46,43.05-46,86.11-46,43.05,46,86.11,46,43.05-46,86.11-46,43.05,46,86.11,46,43.06-46,86.11-46,43.05,46,86.11,46,43.05-46,86.11-46,43.06,46,86.11,46,43.06-46,86.11-46,43.05,46,86.1,46,43.05-46,86.11-46,43.06,46,86.11,46,43.05-46,86.11-46,43.06,46,86.11,46,43.06-46,86.11-46,43.06,46,86.11,46,43.06-46,86.11-46,43.06,46,86.11,46,43.06-46,86.12-46,43.06,46,86.12,46"/>
      <path class="cls-2" d="M0,428.54c43.05,0,43.05,46,86.1,46s43.05-46,86.11-46,43.05,46,86.1,46,43.05-46,86.1-46,43.05,46,86.1,46,43.05-46,86.1-46,43.05,46,86.11,46,43.05-46,86.11-46,43.05,46,86.11,46,43.05-46,86.11-46,43.05,46,86.11,46,43.05-46,86.1-46,43.05,46,86.11,46,43.05-46,86.11-46,43.05,46,86.11,46,43.05-46,86.11-46,43.05,46,86.11,46,43.05-46,86.11-46,43.05,46,86.11,46,43.05-46,86.11-46,43.05,46,86.11,46,43.06-46,86.11-46,43.05,46,86.11,46,43.05-46,86.11-46,43.06,46,86.11,46,43.06-46,86.11-46,43.05,46,86.1,46,43.05-46,86.11-46,43.06,46,86.11,46,43.05-46,86.11-46,43.06,46,86.11,46,43.06-46,86.11-46,43.06,46,86.11,46,43.06-46,86.11-46,43.06,46,86.11,46,43.06-46,86.12-46,43.06,46,86.12,46"/>
      <path class="cls-2" d="M0,499.54c43.05,0,43.05,46,86.1,46s43.05-46,86.11-46,43.05,46,86.1,46,43.05-46,86.1-46,43.05,46,86.1,46,43.05-46,86.1-46,43.05,46,86.11,46,43.05-46,86.11-46,43.05,46,86.11,46,43.05-46,86.11-46,43.05,46,86.11,46,43.05-46,86.1-46,43.05,46,86.11,46,43.05-46,86.11-46,43.05,46,86.11,46,43.05-46,86.11-46,43.05,46,86.11,46,43.05-46,86.11-46,43.05,46,86.11,46,43.05-46,86.11-46,43.05,46,86.11,46,43.06-46,86.11-46,43.05,46,86.11,46,43.05-46,86.11-46,43.06,46,86.11,46,43.06-46,86.11-46,43.05,46,86.1,46,43.05-46,86.11-46,43.06,46,86.11,46,43.05-46,86.11-46,43.06,46,86.11,46,43.06-46,86.11-46,43.06,46,86.11,46,43.06-46,86.11-46,43.06,46,86.11,46,43.06-46,86.12-46,43.06,46,86.12,46"/>
      <path class="cls-2" d="M0,570.55c43.05,0,43.05,46,86.1,46s43.05-46,86.11-46,43.05,46,86.1,46,43.05-46,86.1-46,43.05,46,86.1,46,43.05-46,86.1-46,43.05,46,86.11,46,43.05-46,86.11-46,43.05,46,86.11,46,43.05-46,86.11-46,43.05,46,86.11,46,43.05-46,86.1-46,43.05,46,86.11,46,43.05-46,86.11-46,43.05,46,86.11,46,43.05-46,86.11-46,43.05,46,86.11,46,43.05-46,86.11-46,43.05,46,86.11,46,43.05-46,86.11-46,43.05,46,86.11,46,43.06-46,86.11-46,43.05,46,86.11,46,43.05-46,86.11-46,43.06,46,86.11,46,43.06-46,86.11-46,43.05,46,86.1,46,43.05-46,86.11-46,43.06,46,86.11,46,43.05-46,86.11-46,43.06,46,86.11,46,43.06-46,86.11-46,43.06,46,86.11,46,43.06-46,86.11-46,43.06,46,86.11,46,43.06-46,86.12-46,43.06,46,86.12,46"/>
      <path class="cls-2" d="M0,641.55c43.05,0,43.05,46,86.1,46s43.05-46,86.11-46,43.05,46,86.1,46,43.05-46,86.1-46,43.05,46,86.1,46,43.05-46,86.1-46,43.05,46,86.11,46,43.05-46,86.11-46,43.05,46,86.11,46,43.05-46,86.11-46,43.05,46,86.11,46,43.05-46,86.1-46,43.05,46,86.11,46,43.05-46,86.11-46,43.05,46,86.11,46,43.05-46,86.11-46,43.05,46,86.11,46,43.05-46,86.11-46,43.05,46,86.11,46,43.05-46,86.11-46,43.05,46,86.11,46,43.06-46,86.11-46,43.05,46,86.11,46,43.05-46,86.11-46,43.06,46,86.11,46,43.06-46,86.11-46,43.05,46,86.1,46,43.05-46,86.11-46,43.06,46,86.11,46,43.05-46,86.11-46,43.06,46,86.11,46,43.06-46,86.11-46,43.06,46,86.11,46,43.06-46,86.11-46,43.06,46,86.11,46,43.06-46,86.12-46,43.06,46,86.12,46"/>
      <path class="cls-2" d="M0,712.56c43.05,0,43.05,46,86.1,46s43.05-46,86.11-46,43.05,46,86.1,46,43.05-46,86.1-46,43.05,46,86.1,46,43.05-46,86.1-46,43.05,46,86.11,46,43.05-46,86.11-46,43.05,46,86.11,46,43.05-46,86.11-46,43.05,46,86.11,46,43.05-46,86.1-46,43.05,46,86.11,46,43.05-46,86.11-46,43.05,46,86.11,46,43.05-46,86.11-46,43.05,46,86.11,46,43.05-46,86.11-46,43.05,46,86.11,46,43.05-46,86.11-46,43.05,46,86.11,46,43.06-46,86.11-46,43.05,46,86.11,46,43.05-46,86.11-46,43.06,46,86.11,46,43.06-46,86.11-46,43.05,46,86.1,46,43.05-46,86.11-46,43.06,46,86.11,46,43.05-46,86.11-46,43.06,46,86.11,46,43.06-46,86.11-46,43.06,46,86.11,46,43.06-46,86.11-46,43.06,46,86.11,46,43.06-46,86.12-46,43.06,46,86.12,46"/>
      <path class="cls-2" d="M0,783.57c43.05,0,43.05,46,86.1,46s43.05-46,86.11-46,43.05,46,86.1,46,43.05-46,86.1-46,43.05,46,86.1,46,43.05-46,86.1-46,43.05,46,86.11,46,43.05-46,86.11-46,43.05,46,86.11,46,43.05-46,86.11-46,43.05,46,86.11,46,43.05-46,86.1-46,43.05,46,86.11,46,43.05-46,86.11-46,43.05,46,86.11,46,43.05-46,86.11-46,43.05,46,86.11,46,43.05-46,86.11-46,43.05,46,86.11,46,43.05-46,86.11-46,43.05,46,86.11,46,43.06-46,86.11-46,43.05,46,86.11,46,43.05-46,86.11-46,43.06,46,86.11,46,43.06-46,86.11-46,43.05,46,86.1,46,43.05-46,86.11-46,43.06,46,86.11,46,43.05-46,86.11-46,43.06,46,86.11,46,43.06-46,86.11-46,43.06,46,86.11,46,43.06-46,86.11-46,43.06,46,86.11,46,43.06-46,86.12-46,43.06,46,86.12,46"/>
      <path class="cls-2" d="M0,854.57c43.05,0,43.05,46,86.1,46s43.05-46,86.11-46,43.05,46,86.1,46,43.05-46,86.1-46,43.05,46,86.1,46,43.05-46,86.1-46,43.05,46,86.11,46,43.05-46,86.11-46,43.05,46,86.11,46,43.05-46,86.11-46,43.05,46,86.11,46,43.05-46,86.1-46,43.05,46,86.11,46,43.05-46,86.11-46,43.05,46,86.11,46,43.05-46,86.11-46,43.05,46,86.11,46,43.05-46,86.11-46,43.05,46,86.11,46,43.05-46,86.11-46,43.05,46,86.11,46,43.06-46,86.11-46,43.05,46,86.11,46,43.05-46,86.11-46,43.06,46,86.11,46,43.06-46,86.11-46,43.05,46,86.1,46,43.05-46,86.11-46,43.06,46,86.11,46,43.05-46,86.11-46,43.06,46,86.11,46,43.06-46,86.11-46,43.06,46,86.11,46,43.06-46,86.11-46,43.06,46,86.11,46,43.06-46,86.12-46,43.06,46,86.12,46"/>
      <path class="cls-2" d="M0,925.58c43.05,0,43.05,46,86.1,46s43.05-46,86.11-46,43.05,46,86.1,46,43.05-46,86.1-46,43.05,46,86.1,46,43.05-46,86.1-46,43.05,46,86.11,46,43.05-46,86.11-46,43.05,46,86.11,46,43.05-46,86.11-46,43.05,46,86.11,46,43.05-46,86.1-46,43.05,46,86.11,46,43.05-46,86.11-46,43.05,46,86.11,46,43.05-46,86.11-46,43.05,46,86.11,46,43.05-46,86.11-46,43.05,46,86.11,46,43.05-46,86.11-46,43.05,46,86.11,46,43.06-46,86.11-46,43.05,46,86.11,46,43.05-46,86.11-46,43.06,46,86.11,46,43.06-46,86.11-46,43.05,46,86.1,46,43.05-46,86.11-46,43.06,46,86.11,46,43.05-46,86.11-46,43.06,46,86.11,46,43.06-46,86.11-46,43.06,46,86.11,46,43.06-46,86.11-46,43.06,46,86.11,46,43.06-46,86.12-46,43.06,46,86.12,46"/>
      <path class="cls-2" d="M0,996.58c43.05,0,43.05,46,86.1,46s43.05-46,86.11-46,43.05,46,86.1,46,43.05-46,86.1-46,43.05,46,86.1,46,43.05-46,86.1-46,43.05,46,86.11,46,43.05-46,86.11-46,43.05,46,86.11,46,43.05-46,86.11-46,43.05,46,86.11,46,43.05-46,86.1-46,43.05,46,86.11,46,43.05-46,86.11-46,43.05,46,86.11,46,43.05-46,86.11-46,43.05,46,86.11,46,43.05-46,86.11-46,43.05,46,86.11,46,43.05-46,86.11-46,43.05,46,86.11,46,43.06-46,86.11-46,43.05,46,86.11,46,43.05-46,86.11-46,43.06,46,86.11,46,43.06-46,86.11-46,43.05,46,86.1,46,43.05-46,86.11-46,43.06,46,86.11,46,43.05-46,86.11-46,43.06,46,86.11,46,43.06-46,86.11-46,43.06,46,86.11,46,43.06-46,86.11-46,43.06,46,86.11,46,43.06-46,86.12-46,43.06,46,86.12,46"/>
      <path class="cls-2" d="M0,1067.59c43.05,0,43.05,46,86.1,46s43.05-46,86.11-46,43.05,46,86.1,46,43.05-46,86.1-46,43.05,46,86.1,46,43.05-46,86.1-46,43.05,46,86.11,46,43.05-46,86.11-46,43.05,46,86.11,46,43.05-46,86.11-46,43.05,46,86.11,46,43.05-46,86.1-46,43.05,46,86.11,46,43.05-46,86.11-46,43.05,46,86.11,46,43.05-46,86.11-46,43.05,46,86.11,46,43.05-46,86.11-46,43.05,46,86.11,46,43.05-46,86.11-46,43.05,46,86.11,46,43.06-46,86.11-46,43.05,46,86.11,46,43.05-46,86.11-46,43.06,46,86.11,46,43.06-46,86.11-46,43.05,46,86.1,46,43.05-46,86.11-46,43.06,46,86.11,46,43.05-46,86.11-46,43.06,46,86.11,46,43.06-46,86.11-46,43.06,46,86.11,46,43.06-46,86.11-46,43.06,46,86.11,46,43.06-46,86.12-46,43.06,46,86.12,46"/>
      <path class="cls-2" d="M0,1138.59c43.05,0,43.05,46,86.1,46s43.05-46,86.11-46,43.05,46,86.1,46,43.05-46,86.1-46,43.05,46,86.1,46,43.05-46,86.1-46,43.05,46,86.11,46,43.05-46,86.11-46,43.05,46,86.11,46,43.05-46,86.11-46,43.05,46,86.11,46,43.05-46,86.1-46,43.05,46,86.11,46,43.05-46,86.11-46,43.05,46,86.11,46,43.05-46,86.11-46,43.05,46,86.11,46,43.05-46,86.11-46,43.05,46,86.11,46,43.05-46,86.11-46,43.05,46,86.11,46,43.06-46,86.11-46,43.05,46,86.11,46,43.05-46,86.11-46,43.06,46,86.11,46,43.06-46,86.11-46,43.05,46,86.1,46,43.05-46,86.11-46,43.06,46,86.11,46,43.05-46,86.11-46,43.06,46,86.11,46,43.06-46,86.11-46,43.06,46,86.11,46,43.06-46,86.11-46,43.06,46,86.11,46,43.06-46,86.12-46,43.06,46,86.12,46"/>
      <path class="cls-2" d="M0,1209.6c43.05,0,43.05,46,86.1,46s43.05-46,86.11-46,43.05,46,86.1,46,43.05-46,86.1-46,43.05,46,86.1,46,43.05-46,86.1-46,43.05,46,86.11,46,43.05-46,86.11-46,43.05,46,86.11,46,43.05-46,86.11-46,43.05,46,86.11,46,43.05-46,86.1-46,43.05,46,86.11,46,43.05-46,86.11-46,43.05,46,86.11,46,43.05-46,86.11-46,43.05,46,86.11,46,43.05-46,86.11-46,43.05,46,86.11,46,43.05-46,86.11-46,43.05,46,86.11,46,43.06-46,86.11-46,43.05,46,86.11,46,43.05-46,86.11-46,43.06,46,86.11,46,43.06-46,86.11-46,43.05,46,86.1,46,43.05-46,86.11-46,43.06,46,86.11,46,43.05-46,86.11-46,43.06,46,86.11,46,43.06-46,86.11-46,43.06,46,86.11,46,43.06-46,86.11-46,43.06,46,86.11,46,43.06-46,86.12-46,43.06,46,86.12,46"/>
      <path class="cls-2" d="M0,1280.61c43.05,0,43.05,46,86.1,46s43.05-46,86.11-46,43.05,46,86.1,46,43.05-46,86.1-46,43.05,46,86.1,46,43.05-46,86.1-46,43.05,46,86.11,46,43.05-46,86.11-46,43.05,46,86.11,46,43.05-46,86.11-46,43.05,46,86.11,46,43.05-46,86.1-46,43.05,46,86.11,46,43.05-46,86.11-46,43.05,46,86.11,46,43.05-46,86.11-46,43.05,46,86.11,46,43.05-46,86.11-46,43.05,46,86.11,46,43.05-46,86.11-46,43.05,46,86.11,46,43.06-46,86.11-46,43.05,46,86.11,46,43.05-46,86.11-46,43.06,46,86.11,46,43.06-46,86.11-46,43.05,46,86.1,46,43.05-46,86.11-46,43.06,46,86.11,46,43.05-46,86.11-46,43.06,46,86.11,46,43.06-46,86.11-46,43.06,46,86.11,46,43.06-46,86.11-46,43.06,46,86.11,46,43.06-46,86.12-46,43.06,46,86.12,46"/>
      <path class="cls-2" d="M0,1351.61c43.05,0,43.05,46,86.1,46s43.05-46,86.11-46,43.05,46,86.1,46,43.05-46,86.1-46,43.05,46,86.1,46,43.05-46,86.1-46,43.05,46,86.11,46,43.05-46,86.11-46,43.05,46,86.11,46,43.05-46,86.11-46,43.05,46,86.11,46,43.05-46,86.1-46,43.05,46,86.11,46,43.05-46,86.11-46,43.05,46,86.11,46,43.05-46,86.11-46,43.05,46,86.11,46,43.05-46,86.11-46,43.05,46,86.11,46,43.05-46,86.11-46,43.05,46,86.11,46,43.06-46,86.11-46,43.05,46,86.11,46,43.05-46,86.11-46,43.06,46,86.11,46,43.06-46,86.11-46,43.05,46,86.1,46,43.05-46,86.11-46,43.06,46,86.11,46,43.05-46,86.11-46,43.06,46,86.11,46,43.06-46,86.11-46,43.06,46,86.11,46,43.06-46,86.11-46,43.06,46,86.11,46,43.06-46,86.12-46,43.06,46,86.12,46"/>
      <path class="cls-2" d="M0,1422.62c43.05,0,43.05,46,86.1,46s43.05-46,86.11-46,43.05,46,86.1,46,43.05-46,86.1-46,43.05,46,86.1,46,43.05-46,86.1-46,43.05,46,86.11,46,43.05-46,86.11-46,43.05,46,86.11,46,43.05-46,86.11-46,43.05,46,86.11,46,43.05-46,86.1-46,43.05,46,86.11,46,43.05-46,86.11-46,43.05,46,86.11,46,43.05-46,86.11-46,43.05,46,86.11,46,43.05-46,86.11-46,43.05,46,86.11,46,43.05-46,86.11-46,43.05,46,86.11,46,43.06-46,86.11-46,43.05,46,86.11,46,43.05-46,86.11-46,43.06,46,86.11,46,43.06-46,86.11-46,43.05,46,86.1,46,43.05-46,86.11-46,43.06,46,86.11,46,43.05-46,86.11-46,43.06,46,86.11,46,43.06-46,86.11-46,43.06,46,86.11,46,43.06-46,86.11-46,43.06,46,86.11,46,43.06-46,86.12-46,43.06,46,86.12,46"/>
      <path class="cls-2" d="M0,1493.62c43.05,0,43.05,46,86.1,46s43.05-46,86.11-46,43.05,46,86.1,46,43.05-46,86.1-46,43.05,46,86.1,46,43.05-46,86.1-46,43.05,46,86.11,46,43.05-46,86.11-46,43.05,46,86.11,46,43.05-46,86.11-46,43.05,46,86.11,46,43.05-46,86.1-46,43.05,46,86.11,46,43.05-46,86.11-46,43.05,46,86.11,46,43.05-46,86.11-46,43.05,46,86.11,46,43.05-46,86.11-46,43.05,46,86.11,46,43.05-46,86.11-46,43.05,46,86.11,46,43.06-46,86.11-46,43.05,46,86.11,46,43.05-46,86.11-46,43.06,46,86.11,46,43.06-46,86.11-46,43.05,46,86.1,46,43.05-46,86.11-46,43.06,46,86.11,46,43.05-46,86.11-46,43.06,46,86.11,46,43.06-46,86.11-46,43.06,46,86.11,46,43.06-46,86.11-46,43.06,46,86.11,46,43.06-46,86.12-46,43.06,46,86.12,46"/>
      <path class="cls-2" d="M0,1564.63c43.05,0,43.05,46,86.1,46s43.05-46,86.11-46,43.05,46,86.1,46,43.05-46,86.1-46,43.05,46,86.1,46,43.05-46,86.1-46,43.05,46,86.11,46,43.05-46,86.11-46,43.05,46,86.11,46,43.05-46,86.11-46,43.05,46,86.11,46,43.05-46,86.1-46,43.05,46,86.11,46,43.05-46,86.11-46,43.05,46,86.11,46,43.05-46,86.11-46,43.05,46,86.11,46,43.05-46,86.11-46,43.05,46,86.11,46,43.05-46,86.11-46,43.05,46,86.11,46,43.06-46,86.11-46,43.05,46,86.11,46,43.05-46,86.11-46,43.06,46,86.11,46,43.06-46,86.11-46,43.05,46,86.1,46,43.05-46,86.11-46,43.06,46,86.11,46,43.05-46,86.11-46,43.06,46,86.11,46,43.06-46,86.11-46,43.06,46,86.11,46,43.06-46,86.11-46,43.06,46,86.11,46,43.06-46,86.12-46,43.06,46,86.12,46"/>
    </g>
  </g>
</svg>