<?xml version="1.0" encoding="UTF-8"?>
<svg id="Layer_1" data-name="Layer 1" xmlns="http://www.w3.org/2000/svg" xmlns:xlink="http://www.w3.org/1999/xlink" viewBox="0 0 5000 2000">
  <defs>
    <style>
      .cls-1, .cls-2 {
        fill: none;
      }

      .cls-2 {
        stroke: #5bacbf;
        stroke-miterlimit: 10;
        stroke-width: 12px;
      }

      .cls-3 {
        fill: none;
      }
    </style>
  </defs>
  <g>
    <g>
      <g>
        <g>
          <path class="cls-3" d="M4806.54-2365.04c-44.34,23.68-114.18,57.72-201.96,86.19-153.87,49.9-200.5,30.04-361.08,76.58-141.97,41.15-247.49,97.82-285.21,118.95-124.96,70.01-211.44,145.36-258.21,186.54-87.23,76.82-79.62,86.82-156.41,150.47-35.57,29.49-123.49,98.86-247.85,160.81-126.22,62.88-230.17,88.34-355,118.9-166.63,40.8-171.98,24.55-278.81,61.56-31.89,11.05-150.89,53.89-282.42,141.81-83.12,55.56-142.42,109.87-218.12,179.18-81.63,74.75-77.7,80.25-129.85,123.44-103.93,86.08-204.89,134.94-250.09,156.48-124.88,59.51-227.54,83.79-351.26,113.06-141.56,33.48-141.94,21.03-234.92,50.67-42.8,13.65-153.18,51.5-279.21,128.4-97.24,59.34-163.04,117.05-209.72,158.38-82.91,73.41-82.87,88.19-154.07,148.48-25.59,21.67-102.87,85.2-215.79,146.62C181.61,25.77,47.23,58.41-16.25,73.37c-110.92,26.14-102.8,10.52-204.07,36.32-67.99,17.32-190.89,54.75-328.71,132.78-117.32,66.42-195.25,133.84-234.1,167.83-78.83,68.95-67.69,74.52-141.13,138.67-102.16,89.23-205.67,150.01-280.13,187.66-52.51,26.55-134.71,67.55-243.51,95.08-62.89,15.91-69.62,10.86-179.47,33.82-90.92,19-146.22,30.56-214.95,54.48-110.04,38.3-189.9,85.82-231.01,110.58-114.25,68.8-190.1,137.7-235.85,179.71-81.24,74.58-75.74,84.99-142.26,140.82-88.24,74.06-171.52,117.55-221.01,143.05-147.74,76.11-275.07,107.98-372.06,131.63-149.03,36.34-160.85,21.71-273.16,59.43-43.7,14.68-138.14,49.21-246.26,113.74-93.79,55.98-153.34,107.95-263.69,204.26-128.48,112.13-116.04,116.76-189.79,170.83-26.16,19.18-134.83,97.12-292.16,157.81-91.42,35.27-166.13,51.92-243.39,69.15-114.99,25.64-145.66,22.75-228.13,46.38-96.09,27.53-172.39,65.25-220.45,91.8-79.32-153.73-158.65-307.45-237.97-461.18,55.75-28,138.86-66.03,241.59-98.8,187.03-59.65,211.46-29.26,364.71-76.1,236.77-72.37,416.09-217.56,481.46-275.09,77.31-68.03,58-68.69,142.26-140.82,53.33-45.66,182.07-154.11,373.26-231.8,17.54-7.13,104.72-42.08,219.37-67.73,82.63-18.49,100.59-14.48,174.46-30.45,27.23-5.89,133.54-29.94,262.34-89.12,53.39-24.53,166.43-80.73,285.57-177.14,102.97-83.33,82.94-93.48,190.9-183.95,137.24-115,264.03-177.73,302.74-196.19,107.1-51.09,195.66-76.18,225.49-84.21,111.06-29.93,141.68-21.25,254.82-49.18,119.53-29.52,210.49-70.11,235.79-81.69,185.85-85.08,313.81-199.91,350.63-234.23,73.89-68.86,91.53-103.08,183.11-172.87,65.07-49.59,121.63-82.21,152.22-99.71,49.7-28.44,143.16-81.29,263.53-119.52,105.45-33.49,120.77-20.57,259.51-53.17,73.4-17.25,160.77-37.78,261.98-81.1,216.93-92.85,364.01-233.29,401.89-270.09,45.31-44,54.25-59.76,106.64-105.19,31.36-27.2,112.04-94.31,229.87-158.59,140.37-76.58,260.71-109.45,351.85-133.74,181.57-48.39,201.79-25.5,345.95-79.74,37.9-14.26,121.16-47.7,218.82-105.86,92.54-55.11,155.62-107.16,176.44-124.75,76.18-64.34,79.32-83.3,158.12-153.71,81.51-72.83,154.14-120.45,170.83-131.26,148.03-95.91,281.61-138.76,310.81-147.84,115.71-35.98,119.34-16.51,283.71-58.61,83.19-21.3,162.52-41.62,261.84-85.73,50.45-22.41,182.03-81.93,309.49-191.84,80.09-69.06,76.51-87.26,176.82-171.98,34.33-28.99,95.15-79.94,182.2-133.21,141.89-86.83,267.81-127.41,309.24-139.97,149.26-45.26,183.2-24.32,335.17-67.91,110.17-31.6,197.93-72.9,252.65-101.36,79.32,153.73,158.65,307.45,237.97,461.18Z"/>
          <g>
            <path class="cls-2" d="M-5239.54,2078.03c374.78-193.39,438.66-69.58,813.44-262.97,374.78-193.39,310.89-317.19,685.67-510.58,374.78-193.39,438.66-69.58,813.44-262.97,374.78-193.39,310.89-317.19,685.67-510.58,374.78-193.39,438.66-69.58,813.44-262.97C-1053.11,74.59-1117-49.22-742.22-242.61c374.78-193.39,438.66-69.58,813.44-262.97,374.78-193.39,310.89-317.19,685.67-510.58,374.78-193.39,438.66-69.58,813.44-262.97,374.78-193.39,310.89-317.19,685.67-510.58,374.78-193.39,438.66-69.58,813.44-262.97,374.78-193.39,310.9-317.19,685.67-510.58,374.78-193.39,438.66-69.58,813.44-262.97"/>
            <path class="cls-2" d="M-5180.05,2193.32c374.78-193.39,438.66-69.58,813.44-262.97,374.78-193.39,310.89-317.19,685.67-510.58,374.78-193.39,438.66-69.58,813.44-262.97,374.78-193.39,310.89-317.19,685.67-510.58,374.78-193.39,438.66-69.58,813.44-262.97C-993.62,189.88-1057.5,66.07-682.73-127.31-307.95-320.7-244.06-196.89,130.71-390.28c374.78-193.39,310.89-317.19,685.67-510.58,374.78-193.39,438.66-69.58,813.44-262.97,374.78-193.39,310.89-317.19,685.67-510.58,374.78-193.39,438.66-69.58,813.44-262.97,374.78-193.39,310.9-317.19,685.67-510.58,374.78-193.39,438.66-69.58,813.44-262.97"/>
            <path class="cls-2" d="M-5120.55,2308.62c374.78-193.39,438.66-69.58,813.44-262.97,374.78-193.39,310.89-317.19,685.67-510.58,374.78-193.39,438.66-69.58,813.44-262.97,374.78-193.39,310.89-317.19,685.67-510.58,374.78-193.39,438.66-69.58,813.44-262.97C-934.13,305.18-998.01,181.37-623.23-12.02-248.45-205.4-184.57-81.6,190.21-274.98c374.78-193.39,310.89-317.19,685.67-510.58,374.78-193.39,438.66-69.58,813.44-262.97,374.78-193.39,310.89-317.19,685.67-510.58,374.78-193.39,438.66-69.58,813.44-262.97,374.78-193.39,310.9-317.19,685.67-510.58,374.78-193.39,438.66-69.58,813.44-262.97"/>
            <path class="cls-2" d="M-5061.06,2423.91c374.78-193.39,438.66-69.58,813.44-262.97,374.78-193.39,310.89-317.19,685.67-510.58,374.78-193.39,438.66-69.58,813.44-262.97,374.78-193.39,310.89-317.19,685.67-510.58,374.78-193.39,438.66-69.58,813.44-262.97,374.78-193.39,310.89-317.19,685.67-510.58C-188.96-90.11-125.08,33.7,249.7-159.69c374.78-193.39,310.89-317.19,685.67-510.58,374.78-193.39,438.66-69.58,813.44-262.97,374.78-193.39,310.89-317.19,685.67-510.58,374.78-193.39,438.66-69.58,813.44-262.97,374.78-193.39,310.89-317.19,685.67-510.58,374.78-193.39,438.66-69.58,813.44-262.97"/>
            <path class="cls-2" d="M-5001.57,2539.21c374.78-193.39,438.66-69.58,813.44-262.97,374.78-193.39,310.89-317.19,685.67-510.58,374.78-193.39,438.66-69.58,813.44-262.97,374.78-193.39,310.89-317.19,685.67-510.58,374.78-193.39,438.66-69.58,813.44-262.97,374.78-193.39,310.89-317.19,685.67-510.58C-129.47,25.19-65.58,148.99,309.19-44.39c374.78-193.39,310.89-317.19,685.67-510.58,374.78-193.39,438.66-69.58,813.44-262.97,374.78-193.39,310.89-317.19,685.67-510.58,374.78-193.39,438.66-69.58,813.44-262.97,374.78-193.39,310.9-317.19,685.68-510.58,374.78-193.39,438.66-69.58,813.44-262.97"/>
          </g>
        </g>
        <g>
          <path class="cls-3" d="M5687.54-1919.04c-44.34,23.68-114.18,57.72-201.96,86.19-153.87,49.9-200.5,30.04-361.08,76.58-141.97,41.15-247.49,97.82-285.21,118.95-124.96,70.01-211.44,145.36-258.21,186.54-87.23,76.82-79.62,86.82-156.41,150.47-35.57,29.49-123.49,98.86-247.85,160.81-126.22,62.88-230.17,88.34-355,118.9-166.63,40.8-171.98,24.55-278.81,61.56-31.89,11.05-150.89,53.89-282.42,141.81-83.12,55.56-142.42,109.87-218.12,179.18-81.63,74.75-77.7,80.25-129.85,123.44-103.93,86.08-204.89,134.94-250.09,156.48-124.88,59.51-227.54,83.79-351.26,113.06-141.56,33.48-141.94,21.03-234.92,50.67-42.8,13.65-153.18,51.5-279.21,128.4-97.24,59.34-163.04,117.05-209.72,158.38-82.91,73.41-82.87,88.19-154.07,148.48-25.59,21.67-102.87,85.2-215.79,146.62-154.94,84.28-289.32,116.92-352.8,131.88-110.92,26.14-102.8,10.52-204.07,36.32-67.99,17.32-190.89,54.75-328.71,132.78-117.32,66.42-195.25,133.84-234.1,167.83-78.83,68.95-67.69,74.52-141.13,138.67-102.16,89.23-205.67,150.01-280.13,187.66-52.51,26.55-134.71,67.55-243.51,95.08-62.89,15.91-69.62,10.86-179.47,33.82-90.92,19-146.22,30.56-214.95,54.48-110.04,38.3-189.9,85.82-231.01,110.58-114.25,68.8-190.1,137.7-235.85,179.71-81.24,74.58-75.74,84.99-142.26,140.82-88.24,74.06-171.52,117.55-221.01,143.05-147.74,76.11-275.07,107.98-372.06,131.63-149.03,36.34-160.85,21.71-273.16,59.43-43.7,14.68-138.14,49.21-246.26,113.74-93.79,55.98-153.34,107.95-263.69,204.26-128.48,112.13-116.04,116.76-189.79,170.83-26.16,19.18-134.83,97.12-292.16,157.81-91.42,35.27-166.13,51.92-243.39,69.15-114.99,25.64-145.66,22.75-228.13,46.38-96.09,27.53-172.39,65.25-220.45,91.8-79.32-153.73-158.65-307.45-237.97-461.18,55.75-28,138.86-66.03,241.59-98.8,187.03-59.65,211.46-29.26,364.71-76.1,236.77-72.37,416.09-217.56,481.46-275.09,77.31-68.03,58-68.69,142.26-140.82,53.33-45.66,182.07-154.11,373.26-231.8,17.54-7.13,104.72-42.08,219.37-67.73,82.63-18.49,100.59-14.48,174.46-30.45,27.23-5.89,133.54-29.94,262.34-89.12,53.39-24.53,166.43-80.73,285.56-177.14,102.97-83.33,82.94-93.48,190.9-183.95,137.24-115,264.03-177.73,302.74-196.19,107.1-51.09,195.66-76.18,225.49-84.21,111.06-29.93,141.68-21.25,254.82-49.18,119.53-29.52,210.49-70.11,235.79-81.69,185.85-85.08,313.81-199.91,350.63-234.23,73.89-68.86,91.53-103.08,183.11-172.87C-4.96,285.07,51.6,252.45,82.19,234.94c49.7-28.44,143.16-81.3,263.53-119.52,105.45-33.49,120.77-20.57,259.51-53.17,73.4-17.25,160.77-37.78,261.98-81.1,216.93-92.85,364.01-233.29,401.89-270.09,45.31-44,54.25-59.76,106.64-105.19,31.36-27.2,112.04-94.31,229.87-158.59,140.37-76.58,260.71-109.45,351.85-133.74,181.57-48.39,201.79-25.5,345.95-79.74,37.9-14.26,121.16-47.7,218.82-105.86,92.54-55.11,155.62-107.16,176.44-124.75,76.18-64.34,79.32-83.3,158.12-153.71,81.51-72.83,154.14-120.45,170.83-131.26,148.03-95.91,281.61-138.76,310.81-147.84,115.71-35.98,119.34-16.51,283.71-58.61,83.19-21.3,162.52-41.62,261.84-85.73,50.45-22.41,182.03-81.93,309.49-191.84,80.09-69.06,76.51-87.26,176.82-171.98,34.33-28.99,95.15-79.94,182.2-133.21,141.89-86.83,267.81-127.41,309.24-139.97,149.26-45.26,183.2-24.32,335.17-67.91,110.17-31.6,197.93-72.9,252.65-101.36,79.32,153.73,158.65,307.45,237.97,461.18Z"/>
          <g>
            <path class="cls-2" d="M-4358.54,2524.03c374.78-193.39,438.66-69.58,813.44-262.97,374.78-193.39,310.89-317.19,685.67-510.58,374.78-193.39,438.66-69.58,813.44-262.97,374.78-193.39,310.89-317.19,685.67-510.58,374.78-193.39,438.66-69.58,813.44-262.97C-172.11,520.59-236,396.78,138.78,203.39,513.56,10.01,577.44,133.81,952.22-59.57c374.78-193.39,310.89-317.19,685.67-510.58,374.78-193.39,438.66-69.58,813.44-262.97,374.78-193.39,310.89-317.19,685.67-510.58,374.78-193.39,438.66-69.58,813.44-262.97,374.78-193.39,310.9-317.19,685.67-510.58,374.78-193.39,438.66-69.58,813.44-262.97"/>
            <path class="cls-2" d="M-4299.05,2639.32c374.78-193.39,438.66-69.58,813.44-262.97,374.78-193.39,310.89-317.19,685.67-510.58,374.78-193.39,438.66-69.58,813.44-262.97,374.78-193.39,310.89-317.19,685.67-510.58,374.78-193.39,438.66-69.58,813.44-262.97C-112.62,635.88-176.5,512.07,198.27,318.69,573.05,125.3,636.94,249.11,1011.71,55.72c374.78-193.39,310.89-317.19,685.67-510.58,374.78-193.39,438.66-69.58,813.44-262.97,374.78-193.39,310.89-317.19,685.67-510.58,374.78-193.39,438.66-69.58,813.44-262.97,374.78-193.39,310.9-317.19,685.67-510.58,374.78-193.39,438.66-69.58,813.44-262.97"/>
            <path class="cls-2" d="M-4239.55,2754.62c374.78-193.39,438.66-69.58,813.44-262.97,374.78-193.39,310.89-317.19,685.67-510.58,374.78-193.39,438.66-69.58,813.44-262.97,374.78-193.39,310.89-317.19,685.67-510.58,374.78-193.39,438.66-69.58,813.44-262.97C-53.13,751.18-117.01,627.37,257.77,433.98c374.78-193.39,438.66-69.58,813.44-262.97,374.78-193.39,310.89-317.19,685.67-510.58,374.78-193.39,438.66-69.58,813.44-262.97,374.78-193.39,310.89-317.19,685.67-510.58,374.78-193.39,438.66-69.58,813.44-262.97,374.78-193.39,310.9-317.19,685.67-510.58,374.78-193.39,438.66-69.58,813.44-262.97"/>
            <path class="cls-2" d="M-4180.06,2869.91c374.78-193.39,438.66-69.58,813.44-262.97,374.78-193.39,310.89-317.19,685.67-510.58,374.78-193.39,438.66-69.58,813.44-262.97,374.78-193.39,310.89-317.19,685.67-510.58,374.78-193.39,438.66-69.58,813.44-262.97C6.37,866.47-57.52,742.66,317.26,549.28c374.78-193.39,438.66-69.58,813.44-262.97C1505.48,92.92,1441.59-30.88,1816.37-224.27c374.78-193.39,438.66-69.58,813.44-262.97,374.78-193.39,310.89-317.19,685.67-510.58,374.78-193.39,438.66-69.58,813.44-262.97,374.78-193.39,310.9-317.19,685.67-510.58s438.66-69.58,813.44-262.97"/>
            <path class="cls-2" d="M-4120.57,2985.21c374.78-193.39,438.66-69.58,813.44-262.97,374.78-193.39,310.89-317.19,685.67-510.58,374.78-193.39,438.66-69.58,813.44-262.97,374.78-193.39,310.89-317.19,685.67-510.58,374.78-193.39,438.66-69.58,813.44-262.97C65.86,981.77,1.98,857.96,376.75,664.57c374.78-193.39,438.66-69.58,813.44-262.97,374.78-193.39,310.89-317.19,685.67-510.58,374.78-193.39,438.66-69.58,813.44-262.97,374.78-193.39,310.89-317.19,685.67-510.58,374.78-193.39,438.66-69.58,813.44-262.97,374.78-193.39,310.9-317.19,685.67-510.58,374.78-193.39,438.66-69.58,813.44-262.97"/>
          </g>
        </g>
        <g>
          <path class="cls-3" d="M4302.54-1688.04c-44.34,23.68-114.18,57.72-201.96,86.19-153.87,49.9-200.5,30.04-361.08,76.58-141.97,41.15-247.49,97.82-285.21,118.95-124.96,70.01-211.44,145.36-258.21,186.54-87.23,76.82-79.62,86.82-156.41,150.47-35.57,29.49-123.49,98.86-247.85,160.81-126.22,62.88-230.17,88.34-355,118.9-166.63,40.8-171.98,24.55-278.81,61.56-31.89,11.05-150.89,53.89-282.42,141.81-83.12,55.56-142.42,109.87-218.12,179.18-81.63,74.75-77.7,80.25-129.85,123.44-103.93,86.08-204.89,134.94-250.09,156.48-124.88,59.51-227.54,83.79-351.26,113.06-141.56,33.48-141.94,21.03-234.92,50.67-42.8,13.65-153.18,51.5-279.21,128.4-97.24,59.34-163.04,117.05-209.72,158.38-82.91,73.41-82.87,88.19-154.07,148.48-25.59,21.67-102.87,85.2-215.79,146.62-154.94,84.28-289.32,116.92-352.8,131.88-110.92,26.14-102.8,10.52-204.07,36.32-67.99,17.32-190.89,54.75-328.71,132.78-117.32,66.42-195.25,133.84-234.1,167.83-78.83,68.95-67.69,74.52-141.13,138.67-102.16,89.23-205.67,150.01-280.13,187.66-52.51,26.55-134.71,67.55-243.51,95.08-62.89,15.91-69.62,10.86-179.47,33.82-90.92,19-146.22,30.56-214.95,54.48-110.04,38.3-189.9,85.82-231.01,110.58-114.25,68.8-190.1,137.7-235.85,179.71-81.24,74.58-75.74,84.99-142.26,140.82-88.24,74.06-171.52,117.55-221.01,143.05-147.74,76.11-275.07,107.98-372.06,131.63-149.03,36.34-160.85,21.71-273.16,59.43-43.7,14.68-138.14,49.21-246.26,113.74-93.79,55.98-153.34,107.95-263.69,204.26-128.48,112.13-116.04,116.76-189.79,170.83-26.16,19.18-134.83,97.12-292.16,157.81-91.42,35.27-166.13,51.92-243.39,69.15-114.99,25.64-145.66,22.75-228.13,46.38-96.09,27.53-172.39,65.25-220.45,91.8-79.32-153.73-158.65-307.45-237.97-461.18,55.75-28,138.86-66.03,241.59-98.8,187.03-59.65,211.46-29.26,364.71-76.1,236.77-72.37,416.09-217.56,481.46-275.09,77.31-68.03,58-68.69,142.26-140.82,53.33-45.66,182.07-154.11,373.26-231.8,17.54-7.13,104.72-42.08,219.37-67.73,82.63-18.49,100.59-14.48,174.46-30.45,27.23-5.89,133.54-29.94,262.34-89.12,53.39-24.53,166.43-80.73,285.57-177.14,102.97-83.33,82.94-93.48,190.9-183.95,137.24-115,264.03-177.73,302.74-196.19,107.1-51.09,195.66-76.18,225.49-84.21,111.06-29.93,141.68-21.25,254.82-49.18,119.53-29.52,210.49-70.11,235.79-81.69,185.85-85.08,313.81-199.91,350.63-234.23,73.89-68.86,91.53-103.08,183.11-172.87,65.07-49.59,121.63-82.21,152.22-99.71,49.7-28.44,143.16-81.3,263.53-119.52,105.45-33.49,120.77-20.57,259.51-53.17,73.4-17.25,160.77-37.78,261.98-81.1C-300.86,119.3-153.77-21.14-115.89-57.94c45.31-44,54.25-59.76,106.64-105.19,31.36-27.2,112.04-94.31,229.87-158.59,140.37-76.58,260.71-109.45,351.85-133.74,181.57-48.39,201.79-25.5,345.95-79.74,37.9-14.26,121.16-47.7,218.82-105.86,92.54-55.11,155.62-107.16,176.44-124.75,76.18-64.34,79.32-83.3,158.12-153.71,81.51-72.83,154.14-120.45,170.83-131.26,148.03-95.91,281.61-138.76,310.81-147.84,115.71-35.98,119.34-16.51,283.71-58.61,83.19-21.3,162.52-41.62,261.84-85.73,50.45-22.41,182.03-81.93,309.49-191.84,80.09-69.06,76.51-87.26,176.82-171.98,34.33-28.99,95.15-79.94,182.2-133.21,141.89-86.83,267.81-127.41,309.24-139.97,149.26-45.26,183.2-24.32,335.17-67.91,110.17-31.6,197.93-72.9,252.65-101.36,79.32,153.73,158.65,307.45,237.97,461.18Z"/>
          <g>
            <path class="cls-2" d="M-5743.54,2755.03c374.78-193.39,438.66-69.58,813.44-262.97,374.78-193.39,310.89-317.19,685.67-510.58,374.78-193.39,438.66-69.58,813.44-262.97,374.78-193.39,310.89-317.19,685.67-510.58,374.78-193.39,438.66-69.58,813.44-262.97,374.78-193.39,310.89-317.19,685.67-510.58,374.78-193.39,438.66-69.58,813.44-262.97C-58-21.96-121.89-145.77,252.89-339.15c374.78-193.39,438.66-69.58,813.44-262.97,374.78-193.39,310.89-317.19,685.67-510.58,374.78-193.39,438.66-69.58,813.44-262.97,374.78-193.39,310.9-317.19,685.67-510.58,374.78-193.39,438.66-69.58,813.44-262.97"/>
            <path class="cls-2" d="M-5684.05,2870.32c374.78-193.39,438.66-69.58,813.44-262.97,374.78-193.39,310.89-317.19,685.67-510.58,374.78-193.39,438.66-69.58,813.44-262.97,374.78-193.39,310.89-317.19,685.67-510.58,374.78-193.39,438.66-69.58,813.44-262.97,374.78-193.39,310.89-317.19,685.67-510.58,374.78-193.39,438.66-69.58,813.44-262.97C1.49,93.33-62.39-30.47,312.38-223.86c374.78-193.39,438.66-69.58,813.44-262.97,374.78-193.39,310.89-317.19,685.67-510.58,374.78-193.39,438.66-69.58,813.44-262.97,374.78-193.39,310.9-317.19,685.67-510.58,374.78-193.39,438.66-69.58,813.44-262.97"/>
            <path class="cls-2" d="M-5624.55,2985.62c374.78-193.39,438.66-69.58,813.44-262.97,374.78-193.39,310.89-317.19,685.67-510.58,374.78-193.39,438.66-69.58,813.44-262.97,374.78-193.39,310.89-317.19,685.67-510.58,374.78-193.39,438.66-69.58,813.44-262.97,374.78-193.39,310.89-317.19,685.67-510.58,374.78-193.39,438.66-69.58,813.44-262.97C60.98,208.63-2.9,84.82,371.88-108.56c374.78-193.39,438.66-69.58,813.44-262.97,374.78-193.39,310.89-317.19,685.67-510.58,374.78-193.39,438.66-69.58,813.44-262.97,374.78-193.39,310.9-317.19,685.67-510.58,374.78-193.39,438.66-69.58,813.44-262.97"/>
            <path class="cls-2" d="M-5565.06,3100.91c374.78-193.39,438.66-69.58,813.44-262.97,374.78-193.39,310.89-317.19,685.67-510.58,374.78-193.39,438.66-69.58,813.44-262.97,374.78-193.39,310.89-317.19,685.67-510.58,374.78-193.39,438.66-69.58,813.44-262.97,374.78-193.39,310.89-317.19,685.67-510.58,374.78-193.39,438.66-69.58,813.44-262.97C120.48,323.92,56.59,200.12,431.37,6.73c374.78-193.39,438.66-69.58,813.44-262.97,374.78-193.39,310.89-317.19,685.67-510.58,374.78-193.39,438.66-69.58,813.44-262.97,374.78-193.39,310.89-317.19,685.67-510.58s438.66-69.58,813.44-262.97"/>
            <path class="cls-2" d="M-5505.57,3216.21c374.78-193.39,438.66-69.58,813.44-262.97,374.78-193.39,310.89-317.19,685.67-510.58,374.78-193.39,438.66-69.58,813.44-262.97,374.78-193.39,310.89-317.19,685.67-510.58,374.78-193.39,438.66-69.58,813.44-262.97,374.78-193.39,310.89-317.19,685.67-510.58,374.78-193.39,438.66-69.58,813.44-262.97C179.97,439.22,116.08,315.41,490.86,122.03c374.78-193.39,438.66-69.58,813.44-262.97,374.78-193.39,310.89-317.19,685.67-510.58,374.78-193.39,438.66-69.58,813.44-262.97,374.78-193.39,310.9-317.19,685.68-510.58,374.78-193.39,438.66-69.58,813.44-262.97"/>
          </g>
        </g>
      </g>
      <g>
        <g>
          <path class="cls-3" d="M6070.54-1796.04c-44.34,23.68-114.18,57.72-201.96,86.19-153.87,49.9-200.5,30.04-361.08,76.58-141.97,41.15-247.49,97.82-285.21,118.95-124.96,70.01-211.44,145.36-258.21,186.54-87.23,76.82-79.62,86.82-156.41,150.47-35.57,29.49-123.49,98.86-247.85,160.81-126.22,62.88-230.17,88.34-355,118.9-166.63,40.8-171.98,24.55-278.81,61.56-31.89,11.05-150.89,53.89-282.42,141.81-83.12,55.56-142.42,109.87-218.12,179.18-81.63,74.75-77.7,80.25-129.85,123.44-103.93,86.08-204.89,134.94-250.09,156.48-124.88,59.51-227.54,83.79-351.26,113.06-141.56,33.48-141.94,21.03-234.92,50.67-42.8,13.65-153.18,51.5-279.21,128.4-97.24,59.34-163.04,117.05-209.72,158.38-82.91,73.41-82.87,88.19-154.07,148.48-25.59,21.67-102.87,85.2-215.79,146.62-154.94,84.28-289.32,116.92-352.8,131.88-110.92,26.14-102.8,10.52-204.07,36.32-67.99,17.32-190.89,54.75-328.71,132.78-117.32,66.42-195.25,133.84-234.1,167.83-78.83,68.95-67.69,74.52-141.13,138.67-102.16,89.23-205.67,150.01-280.13,187.66-52.51,26.55-134.71,67.55-243.51,95.08-62.89,15.91-69.62,10.86-179.47,33.82-90.92,19-146.22,30.56-214.95,54.48-110.04,38.3-189.9,85.82-231.01,110.58-114.25,68.8-190.1,137.7-235.85,179.71-81.24,74.58-75.74,84.99-142.26,140.82-88.24,74.06-171.52,117.55-221.01,143.05-147.74,76.11-275.07,107.98-372.06,131.63-149.03,36.34-160.85,21.71-273.16,59.43-43.7,14.68-138.14,49.21-246.26,113.74-93.79,55.98-153.34,107.95-263.69,204.26-128.48,112.13-116.04,116.76-189.79,170.83-26.16,19.18-134.83,97.12-292.16,157.81-91.42,35.27-166.13,51.92-243.39,69.15-114.99,25.64-145.66,22.75-228.13,46.38-96.09,27.53-172.39,65.25-220.45,91.8-79.32-153.73-158.65-307.45-237.97-461.18,55.75-28,138.86-66.03,241.59-98.8,187.03-59.65,211.46-29.26,364.71-76.1,236.77-72.37,416.09-217.56,481.46-275.09,77.31-68.03,58-68.69,142.26-140.82,53.33-45.66,182.07-154.11,373.26-231.8,17.54-7.13,104.72-42.08,219.37-67.73,82.63-18.49,100.59-14.48,174.46-30.45,27.23-5.89,133.54-29.94,262.34-89.12,53.39-24.53,166.43-80.73,285.56-177.14,102.97-83.33,82.94-93.48,190.9-183.95,137.24-115,264.03-177.73,302.74-196.19,107.1-51.09,195.66-76.18,225.49-84.21,111.06-29.93,141.68-21.25,254.82-49.18,119.53-29.52,210.49-70.11,235.79-81.69,185.85-85.08,313.81-199.91,350.63-234.23,73.89-68.86,91.53-103.08,183.11-172.87,65.07-49.59,121.63-82.21,152.22-99.71,49.7-28.44,143.16-81.3,263.53-119.52,105.45-33.49,120.77-20.57,259.51-53.17,73.4-17.25,160.77-37.78,261.98-81.1,216.93-92.85,364.01-233.29,401.89-270.09,45.31-44,54.25-59.76,106.64-105.19,31.36-27.2,112.04-94.31,229.87-158.59,140.37-76.58,260.71-109.45,351.85-133.74,181.57-48.39,201.79-25.5,345.95-79.74,37.9-14.26,121.16-47.7,218.82-105.86,92.54-55.11,155.62-107.16,176.44-124.75,76.18-64.34,79.32-83.3,158.12-153.71,81.51-72.83,154.14-120.45,170.83-131.26,148.03-95.91,281.61-138.76,310.81-147.84,115.71-35.98,119.34-16.51,283.71-58.61,83.19-21.3,162.52-41.62,261.84-85.73,50.45-22.41,182.03-81.93,309.49-191.84,80.09-69.06,76.51-87.26,176.82-171.98,34.33-28.99,95.15-79.94,182.2-133.21,141.89-86.83,267.81-127.41,309.24-139.97,149.26-45.26,183.2-24.32,335.17-67.91,110.17-31.6,197.93-72.9,252.65-101.36,79.32,153.73,158.65,307.45,237.97,461.18Z"/>
          <g>
            <path class="cls-2" d="M-3975.54,2647.03c374.78-193.39,438.66-69.58,813.44-262.97,374.78-193.39,310.89-317.19,685.67-510.58,374.78-193.39,438.66-69.58,813.44-262.97,374.78-193.39,310.89-317.19,685.67-510.58,374.78-193.39,438.66-69.58,813.44-262.97,374.78-193.39,310.89-317.19,685.67-510.58,374.78-193.39,438.66-69.58,813.44-262.97,374.78-193.39,310.89-317.19,685.67-510.58,374.78-193.39,438.66-69.58,813.44-262.97,374.78-193.39,310.89-317.19,685.67-510.58,374.78-193.39,438.66-69.58,813.44-262.97,374.78-193.39,310.9-317.19,685.67-510.58,374.78-193.39,438.66-69.58,813.44-262.97"/>
            <path class="cls-2" d="M-3916.05,2762.32c374.78-193.39,438.66-69.58,813.44-262.97,374.78-193.39,310.89-317.19,685.67-510.58,374.78-193.39,438.66-69.58,813.44-262.97,374.78-193.39,310.89-317.19,685.67-510.58,374.78-193.39,438.66-69.58,813.44-262.97,374.78-193.39,310.89-317.19,685.67-510.58,374.78-193.39,438.66-69.58,813.44-262.97,374.78-193.39,310.89-317.19,685.67-510.58,374.78-193.39,438.66-69.58,813.44-262.97,374.78-193.39,310.89-317.19,685.67-510.58,374.78-193.39,438.66-69.58,813.44-262.97,374.78-193.39,310.9-317.19,685.67-510.58,374.78-193.39,438.66-69.58,813.44-262.97"/>
            <path class="cls-2" d="M-3856.55,2877.62c374.78-193.39,438.66-69.58,813.44-262.97,374.78-193.39,310.89-317.19,685.67-510.58,374.78-193.39,438.66-69.58,813.44-262.97,374.78-193.39,310.89-317.19,685.67-510.58,374.78-193.39,438.66-69.58,813.44-262.97,374.78-193.39,310.89-317.19,685.67-510.58,374.78-193.39,438.66-69.58,813.44-262.97,374.78-193.39,310.89-317.19,685.67-510.58,374.78-193.39,438.66-69.58,813.44-262.97,374.78-193.39,310.89-317.19,685.67-510.58,374.78-193.39,438.66-69.58,813.44-262.97,374.78-193.39,310.9-317.19,685.68-510.58,374.78-193.39,438.66-69.58,813.44-262.97"/>
            <path class="cls-2" d="M-3797.06,2992.91c374.78-193.39,438.66-69.58,813.44-262.97,374.78-193.39,310.89-317.19,685.67-510.58,374.78-193.39,438.66-69.58,813.44-262.97,374.78-193.39,310.89-317.19,685.67-510.58,374.78-193.39,438.66-69.58,813.44-262.97,374.78-193.39,310.89-317.19,685.67-510.58,374.78-193.39,438.66-69.58,813.44-262.97,374.78-193.39,310.89-317.19,685.67-510.58,374.78-193.39,438.66-69.58,813.44-262.97,374.78-193.39,310.89-317.19,685.67-510.58,374.78-193.39,438.66-69.58,813.44-262.97,374.78-193.39,310.9-317.19,685.67-510.58s438.66-69.58,813.44-262.97"/>
            <path class="cls-2" d="M-3737.57,3108.21c374.78-193.39,438.66-69.58,813.44-262.97,374.78-193.39,310.89-317.19,685.67-510.58,374.78-193.39,438.66-69.58,813.44-262.97,374.78-193.39,310.89-317.19,685.67-510.58,374.78-193.39,438.66-69.58,813.44-262.97,374.78-193.39,310.89-317.19,685.67-510.58,374.78-193.39,438.66-69.58,813.44-262.97,374.78-193.39,310.89-317.19,685.67-510.58,374.78-193.39,438.66-69.58,813.44-262.97,374.78-193.39,310.89-317.19,685.67-510.58,374.78-193.39,438.66-69.58,813.44-262.97,374.78-193.39,310.9-317.19,685.67-510.58,374.78-193.39,438.66-69.58,813.44-262.97"/>
          </g>
        </g>
        <g>
          <path class="cls-3" d="M6951.54-1350.04c-44.34,23.68-114.18,57.72-201.96,86.19-153.87,49.9-200.5,30.04-361.08,76.58-141.97,41.15-247.49,97.82-285.21,118.95-124.96,70.01-211.44,145.36-258.21,186.54-87.23,76.82-79.62,86.82-156.41,150.47-35.57,29.49-123.49,98.86-247.85,160.81-126.22,62.88-230.17,88.34-355,118.9-166.63,40.8-171.98,24.55-278.81,61.56-31.89,11.05-150.89,53.89-282.42,141.81-83.12,55.56-142.42,109.87-218.12,179.18-81.63,74.75-77.7,80.25-129.85,123.44-103.93,86.08-204.89,134.94-250.09,156.48-124.88,59.51-227.54,83.79-351.26,113.06-141.56,33.48-141.94,21.03-234.92,50.67-42.8,13.65-153.18,51.5-279.21,128.4-97.24,59.34-163.04,117.05-209.72,158.38-82.91,73.41-82.87,88.19-154.07,148.48-25.59,21.67-102.87,85.2-215.79,146.62-154.94,84.28-289.32,116.92-352.8,131.88-110.92,26.14-102.8,10.52-204.07,36.32-67.99,17.32-190.89,54.75-328.71,132.78-117.32,66.42-195.25,133.84-234.1,167.83-78.83,68.95-67.69,74.52-141.13,138.67-102.16,89.23-205.67,150.01-280.13,187.66-52.51,26.55-134.71,67.55-243.51,95.08-62.89,15.91-69.62,10.86-179.47,33.82-90.92,19-146.22,30.56-214.95,54.48-110.04,38.3-189.9,85.82-231.01,110.58-114.25,68.8-190.1,137.7-235.85,179.71-81.24,74.58-75.74,84.99-142.26,140.82-88.24,74.06-171.52,117.55-221.01,143.05-147.74,76.11-275.07,107.98-372.06,131.63-149.03,36.34-160.85,21.71-273.16,59.43-43.7,14.68-138.14,49.21-246.26,113.74-93.79,55.98-153.34,107.95-263.69,204.26-128.48,112.13-116.04,116.76-189.79,170.83-26.16,19.18-134.83,97.12-292.16,157.81-91.42,35.27-166.13,51.92-243.39,69.15-114.99,25.64-145.66,22.75-228.13,46.38-96.09,27.53-172.39,65.25-220.45,91.8-79.32-153.73-158.65-307.45-237.97-461.18,55.75-28,138.86-66.03,241.59-98.8,187.03-59.65,211.46-29.26,364.71-76.1,236.77-72.37,416.09-217.56,481.46-275.09,77.31-68.03,58-68.69,142.26-140.82,53.33-45.66,182.07-154.11,373.26-231.8,17.54-7.13,104.72-42.08,219.37-67.73,82.63-18.49,100.59-14.48,174.46-30.45,27.23-5.89,133.54-29.94,262.34-89.12,53.39-24.53,166.43-80.73,285.56-177.14,102.97-83.33,82.94-93.48,190.9-183.95,137.24-115,264.03-177.73,302.74-196.19,107.1-51.09,195.66-76.18,225.49-84.21,111.06-29.93,141.68-21.25,254.82-49.18,119.53-29.52,210.49-70.11,235.79-81.69,185.85-85.08,313.81-199.91,350.63-234.23,73.89-68.86,91.53-103.08,183.11-172.87,65.07-49.59,121.63-82.21,152.22-99.71,49.7-28.44,143.16-81.3,263.53-119.52,105.45-33.49,120.77-20.57,259.51-53.17,73.4-17.25,160.77-37.78,261.98-81.1,216.93-92.85,364.01-233.29,401.89-270.09,45.31-44,54.25-59.76,106.64-105.19,31.36-27.2,112.04-94.31,229.87-158.59,140.37-76.58,260.71-109.45,351.85-133.74,181.57-48.39,201.79-25.5,345.95-79.74,37.9-14.26,121.16-47.7,218.82-105.86,92.54-55.11,155.62-107.16,176.44-124.75,76.18-64.34,79.32-83.3,158.12-153.71,81.51-72.83,154.14-120.45,170.83-131.26,148.03-95.91,281.61-138.76,310.81-147.84,115.71-35.98,119.34-16.51,283.71-58.61,83.19-21.3,162.52-41.62,261.84-85.73,50.45-22.41,182.03-81.93,309.49-191.84,80.09-69.06,76.51-87.26,176.82-171.98,34.33-28.99,95.15-79.94,182.2-133.21,141.89-86.83,267.81-127.41,309.24-139.97,149.26-45.26,183.2-24.32,335.17-67.91,110.17-31.6,197.93-72.9,252.65-101.36,79.32,153.73,158.65,307.45,237.97,461.18Z"/>
          <g>
            <path class="cls-2" d="M-3094.54,3093.03c374.78-193.39,438.66-69.58,813.44-262.97,374.78-193.39,310.89-317.19,685.67-510.58,374.78-193.39,438.66-69.58,813.44-262.97,374.78-193.39,310.89-317.19,685.67-510.58,374.78-193.39,438.66-69.58,813.44-262.97,374.78-193.39,310.89-317.19,685.67-510.58,374.78-193.39,438.66-69.58,813.44-262.97,374.78-193.39,310.89-317.19,685.67-510.58,374.78-193.39,438.66-69.58,813.44-262.97,374.78-193.39,310.89-317.19,685.67-510.58,374.78-193.39,438.66-69.58,813.44-262.97,374.78-193.39,310.9-317.19,685.67-510.58,374.78-193.39,438.66-69.58,813.44-262.97"/>
            <path class="cls-2" d="M-3035.05,3208.32c374.78-193.39,438.66-69.58,813.44-262.97,374.78-193.39,310.89-317.19,685.67-510.58,374.78-193.39,438.66-69.58,813.44-262.97,374.78-193.39,310.89-317.19,685.67-510.58,374.78-193.39,438.66-69.58,813.44-262.97,374.78-193.39,310.89-317.19,685.67-510.58,374.78-193.39,438.66-69.58,813.44-262.97,374.78-193.39,310.89-317.19,685.67-510.58,374.78-193.39,438.66-69.58,813.44-262.97,374.78-193.39,310.89-317.19,685.67-510.58,374.78-193.39,438.66-69.58,813.44-262.97,374.78-193.39,310.9-317.19,685.67-510.58,374.78-193.39,438.66-69.58,813.44-262.97"/>
            <path class="cls-2" d="M-2975.55,3323.62c374.78-193.39,438.66-69.58,813.44-262.97,374.78-193.39,310.89-317.19,685.67-510.58,374.78-193.39,438.66-69.58,813.44-262.97,374.78-193.39,310.89-317.19,685.67-510.58,374.78-193.39,438.66-69.58,813.44-262.97,374.78-193.39,310.89-317.19,685.67-510.58,374.78-193.39,438.66-69.58,813.44-262.97,374.78-193.39,310.89-317.19,685.67-510.58,374.78-193.39,438.66-69.58,813.44-262.97,374.78-193.39,310.89-317.19,685.67-510.58,374.78-193.39,438.66-69.58,813.44-262.97,374.78-193.39,310.9-317.19,685.67-510.58,374.78-193.39,438.66-69.58,813.44-262.97"/>
            <path class="cls-2" d="M-2916.06,3438.91c374.78-193.39,438.66-69.58,813.44-262.97,374.78-193.39,310.89-317.19,685.67-510.58,374.78-193.39,438.66-69.58,813.44-262.97,374.78-193.39,310.89-317.19,685.67-510.58,374.78-193.39,438.66-69.58,813.44-262.97,374.78-193.39,310.89-317.19,685.67-510.58,374.78-193.39,438.66-69.58,813.44-262.97,374.78-193.39,310.89-317.19,685.67-510.58,374.78-193.39,438.66-69.58,813.44-262.97,374.78-193.39,310.89-317.19,685.67-510.58,374.78-193.39,438.66-69.58,813.44-262.97,374.78-193.39,310.89-317.19,685.67-510.58s438.66-69.58,813.44-262.97"/>
            <path class="cls-2" d="M-2856.57,3554.21c374.78-193.39,438.66-69.58,813.44-262.97,374.78-193.39,310.89-317.19,685.67-510.58,374.78-193.39,438.66-69.58,813.44-262.97,374.78-193.39,310.89-317.19,685.67-510.58,374.78-193.39,438.66-69.58,813.44-262.97,374.78-193.39,310.89-317.19,685.67-510.58,374.78-193.39,438.66-69.58,813.44-262.97,374.78-193.39,310.89-317.19,685.67-510.58,374.78-193.39,438.66-69.58,813.44-262.97,374.78-193.39,310.89-317.19,685.67-510.58,374.78-193.39,438.66-69.58,813.44-262.97,374.78-193.39,310.9-317.19,685.67-510.58,374.78-193.39,438.66-69.58,813.44-262.97"/>
          </g>
        </g>
        <g>
          <path class="cls-3" d="M5566.54-1119.04c-44.34,23.68-114.18,57.72-201.96,86.19-153.87,49.9-200.5,30.04-361.08,76.58-141.97,41.15-247.49,97.82-285.21,118.95-124.96,70.01-211.44,145.36-258.21,186.54-87.23,76.82-79.62,86.82-156.41,150.47-35.57,29.49-123.49,98.86-247.85,160.81-126.22,62.88-230.17,88.34-355,118.9-166.63,40.8-171.98,24.55-278.81,61.56-31.89,11.05-150.89,53.89-282.42,141.81-83.12,55.56-142.42,109.87-218.12,179.18-81.63,74.75-77.7,80.25-129.85,123.44-103.93,86.08-204.89,134.94-250.09,156.48-124.88,59.51-227.54,83.79-351.26,113.06-141.56,33.48-141.94,21.03-234.92,50.67-42.8,13.65-153.18,51.5-279.21,128.4-97.24,59.34-163.04,117.05-209.72,158.38-82.91,73.41-82.87,88.19-154.07,148.48-25.59,21.67-102.87,85.2-215.79,146.62-154.94,84.28-289.32,116.92-352.8,131.88-110.92,26.14-102.8,10.52-204.07,36.32-67.99,17.32-190.89,54.75-328.71,132.78-117.32,66.42-195.25,133.84-234.1,167.83-78.83,68.95-67.69,74.52-141.13,138.67-102.16,89.23-205.67,150.01-280.13,187.66-52.51,26.55-134.71,67.55-243.51,95.08-62.89,15.91-69.62,10.86-179.47,33.82-90.92,19-146.22,30.56-214.95,54.48-110.04,38.3-189.9,85.82-231.01,110.58-114.25,68.8-190.1,137.7-235.85,179.71-81.24,74.58-75.74,84.99-142.26,140.82-88.24,74.06-171.52,117.55-221.01,143.05-147.74,76.11-275.07,107.98-372.06,131.63-149.03,36.34-160.85,21.71-273.16,59.43-43.7,14.68-138.14,49.21-246.26,113.74-93.79,55.98-153.34,107.95-263.69,204.26-128.48,112.13-116.04,116.76-189.79,170.83-26.16,19.18-134.83,97.12-292.16,157.81-91.42,35.27-166.13,51.92-243.39,69.15-114.99,25.64-145.66,22.75-228.13,46.38-96.09,27.53-172.39,65.25-220.45,91.8-79.32-153.73-158.65-307.45-237.97-461.18,55.75-28,138.86-66.03,241.59-98.8,187.03-59.65,211.46-29.26,364.71-76.1,236.77-72.37,416.09-217.56,481.46-275.09,77.31-68.03,58-68.69,142.26-140.82,53.33-45.66,182.07-154.11,373.26-231.8,17.54-7.13,104.72-42.08,219.37-67.73,82.63-18.49,100.59-14.48,174.46-30.45,27.23-5.89,133.54-29.94,262.34-89.12,53.39-24.53,166.43-80.73,285.56-177.14,102.97-83.33,82.94-93.48,190.9-183.95,137.24-115,264.03-177.73,302.74-196.19,107.1-51.09,195.66-76.18,225.49-84.21,111.06-29.93,141.68-21.25,254.82-49.18,119.53-29.52,210.49-70.11,235.79-81.69,185.85-85.08,313.81-199.91,350.63-234.23,73.89-68.86,91.53-103.08,183.11-172.87,65.07-49.59,121.63-82.21,152.22-99.71,49.7-28.44,143.16-81.3,263.53-119.52,105.45-33.49,120.77-20.57,259.51-53.17,73.4-17.25,160.77-37.78,261.98-81.1,216.93-92.85,364.01-233.29,401.89-270.09,45.31-44,54.25-59.76,106.64-105.19,31.36-27.2,112.04-94.31,229.87-158.59,140.37-76.58,260.71-109.45,351.85-133.74,181.57-48.39,201.79-25.5,345.95-79.74,37.9-14.26,121.16-47.7,218.82-105.86,92.54-55.11,155.62-107.16,176.44-124.75,76.18-64.34,79.32-83.3,158.12-153.71,81.51-72.83,154.14-120.45,170.83-131.26,148.03-95.91,281.61-138.76,310.81-147.84,115.71-35.98,119.34-16.51,283.71-58.61,83.19-21.3,162.52-41.62,261.84-85.73,50.45-22.41,182.03-81.93,309.49-191.84,80.09-69.06,76.51-87.26,176.82-171.98,34.33-28.99,95.15-79.94,182.2-133.21,141.89-86.83,267.81-127.41,309.24-139.97,149.26-45.26,183.2-24.32,335.17-67.91,110.17-31.6,197.93-72.9,252.65-101.36,79.32,153.73,158.65,307.45,237.97,461.18Z"/>
          <g>
            <path class="cls-2" d="M-4479.54,3324.03c374.78-193.39,438.66-69.58,813.44-262.97,374.78-193.39,310.89-317.19,685.67-510.58,374.78-193.39,438.66-69.58,813.44-262.97,374.78-193.39,310.89-317.19,685.67-510.58,374.78-193.39,438.66-69.58,813.44-262.97,374.78-193.39,310.89-317.19,685.67-510.58,374.78-193.39,438.66-69.58,813.44-262.97,374.78-193.39,310.89-317.19,685.67-510.58,374.78-193.39,438.66-69.58,813.44-262.97,374.78-193.39,310.89-317.19,685.67-510.58,374.78-193.39,438.66-69.58,813.44-262.97,374.78-193.39,310.9-317.19,685.67-510.58,374.78-193.39,438.66-69.58,813.44-262.97"/>
            <path class="cls-2" d="M-4420.05,3439.32c374.78-193.39,438.66-69.58,813.44-262.97,374.78-193.39,310.89-317.19,685.67-510.58,374.78-193.39,438.66-69.58,813.44-262.97,374.78-193.39,310.89-317.19,685.67-510.58,374.78-193.39,438.66-69.58,813.44-262.97,374.78-193.39,310.89-317.19,685.67-510.58,374.78-193.39,438.66-69.58,813.44-262.97,374.78-193.39,310.89-317.19,685.67-510.58,374.78-193.39,438.66-69.58,813.44-262.97,374.78-193.39,310.89-317.19,685.67-510.58,374.78-193.39,438.66-69.58,813.44-262.97,374.78-193.39,310.9-317.19,685.67-510.58,374.78-193.39,438.66-69.58,813.44-262.97"/>
            <path class="cls-2" d="M-4360.55,3554.62c374.78-193.39,438.66-69.58,813.44-262.97,374.78-193.39,310.89-317.19,685.67-510.58,374.78-193.39,438.66-69.58,813.44-262.97,374.78-193.39,310.89-317.19,685.67-510.58,374.78-193.39,438.66-69.58,813.44-262.97,374.78-193.39,310.89-317.19,685.67-510.58,374.78-193.39,438.66-69.58,813.44-262.97,374.78-193.39,310.89-317.19,685.67-510.58,374.78-193.39,438.66-69.58,813.44-262.97,374.78-193.39,310.89-317.19,685.67-510.58,374.78-193.39,438.66-69.58,813.44-262.97,374.78-193.39,310.9-317.19,685.67-510.58,374.78-193.39,438.66-69.58,813.44-262.97"/>
            <path class="cls-2" d="M-4301.06,3669.91c374.78-193.39,438.66-69.58,813.44-262.97,374.78-193.39,310.89-317.19,685.67-510.58,374.78-193.39,438.66-69.58,813.44-262.97,374.78-193.39,310.89-317.19,685.67-510.58,374.78-193.39,438.66-69.58,813.44-262.97,374.78-193.39,310.89-317.19,685.67-510.58,374.78-193.39,438.66-69.58,813.44-262.97,374.78-193.39,310.89-317.19,685.67-510.58,374.78-193.39,438.66-69.58,813.44-262.97,374.78-193.39,310.89-317.19,685.67-510.58,374.78-193.39,438.66-69.58,813.44-262.97,374.78-193.39,310.89-317.19,685.67-510.58,374.78-193.39,438.66-69.58,813.44-262.97"/>
            <path class="cls-2" d="M-4241.57,3785.21c374.78-193.39,438.66-69.58,813.44-262.97,374.78-193.39,310.89-317.19,685.67-510.58,374.78-193.39,438.66-69.58,813.44-262.97,374.78-193.39,310.89-317.19,685.67-510.58,374.78-193.39,438.66-69.58,813.44-262.97,374.78-193.39,310.89-317.19,685.67-510.58,374.78-193.39,438.66-69.58,813.44-262.97,374.78-193.39,310.89-317.19,685.67-510.58,374.78-193.39,438.66-69.58,813.44-262.97,374.78-193.39,310.89-317.19,685.67-510.58,374.78-193.39,438.66-69.58,813.44-262.97,374.78-193.39,310.9-317.19,685.68-510.58,374.78-193.39,438.66-69.58,813.44-262.97"/>
          </g>
        </g>
      </g>
      <g>
        <g>
          <path class="cls-3" d="M7334.54-1227.04c-44.34,23.68-114.18,57.72-201.96,86.19-153.87,49.9-200.5,30.04-361.08,76.58-141.97,41.15-247.49,97.82-285.21,118.95-124.96,70.01-211.44,145.36-258.21,186.54-87.23,76.82-79.62,86.82-156.41,150.47-35.57,29.49-123.49,98.86-247.85,160.81-126.22,62.88-230.17,88.34-355,118.9-166.63,40.8-171.98,24.55-278.81,61.56-31.89,11.05-150.89,53.89-282.42,141.81-83.12,55.56-142.42,109.87-218.12,179.18-81.63,74.75-77.7,80.25-129.85,123.44-103.93,86.08-204.89,134.94-250.09,156.48-124.88,59.51-227.54,83.79-351.26,113.06-141.56,33.48-141.94,21.03-234.92,50.67-42.8,13.65-153.18,51.5-279.21,128.4-97.24,59.34-163.04,117.05-209.72,158.38-82.91,73.41-82.87,88.19-154.07,148.48-25.59,21.67-102.87,85.2-215.79,146.62-154.94,84.28-289.32,116.92-352.8,131.88-110.92,26.14-102.8,10.52-204.07,36.32-67.99,17.32-190.89,54.75-328.71,132.78-117.32,66.42-195.25,133.84-234.1,167.83-78.83,68.95-67.69,74.52-141.13,138.67-102.16,89.23-205.67,150.01-280.13,187.66-52.51,26.55-134.71,67.55-243.51,95.08-62.89,15.91-69.62,10.86-179.47,33.82-90.92,19-146.22,30.56-214.95,54.48-110.04,38.3-189.9,85.82-231.01,110.58-114.25,68.8-190.1,137.7-235.85,179.71-81.24,74.58-75.74,84.99-142.26,140.82-88.24,74.06-171.52,117.55-221.01,143.05-147.74,76.11-275.07,107.98-372.06,131.63-149.03,36.34-160.85,21.71-273.16,59.43-43.7,14.68-138.14,49.21-246.26,113.74-93.79,55.98-153.34,107.95-263.69,204.26-128.48,112.13-116.04,116.76-189.79,170.83-26.16,19.18-134.83,97.12-292.16,157.81-91.42,35.27-166.13,51.92-243.39,69.15-114.99,25.64-145.66,22.75-228.13,46.38-96.09,27.53-172.39,65.25-220.45,91.8-79.32-153.73-158.65-307.45-237.97-461.18,55.75-28,138.86-66.03,241.59-98.8,187.03-59.65,211.46-29.26,364.71-76.1,236.77-72.37,416.09-217.56,481.46-275.09,77.31-68.03,58-68.69,142.26-140.82,53.33-45.66,182.07-154.11,373.26-231.8,17.54-7.13,104.72-42.08,219.37-67.73,82.63-18.49,100.59-14.48,174.46-30.45,27.23-5.89,133.54-29.94,262.34-89.12,53.39-24.53,166.43-80.73,285.56-177.14,102.97-83.33,82.94-93.48,190.9-183.95,137.24-115,264.03-177.73,302.74-196.19,107.1-51.09,195.66-76.18,225.49-84.21,111.06-29.93,141.68-21.25,254.82-49.18,119.53-29.52,210.49-70.11,235.79-81.69,185.85-85.08,313.81-199.91,350.63-234.23,73.89-68.86,91.53-103.08,183.11-172.87,65.07-49.59,121.63-82.21,152.22-99.71,49.7-28.44,143.16-81.3,263.53-119.52,105.45-33.49,120.77-20.57,259.51-53.17,73.4-17.25,160.77-37.78,261.98-81.1,216.93-92.85,364.01-233.29,401.89-270.09,45.31-44,54.25-59.76,106.64-105.19,31.36-27.2,112.04-94.31,229.87-158.59,140.37-76.58,260.71-109.45,351.85-133.74,181.57-48.39,201.79-25.5,345.95-79.74,37.9-14.26,121.16-47.7,218.82-105.86,92.54-55.11,155.62-107.16,176.44-124.75,76.18-64.34,79.32-83.3,158.12-153.71,81.51-72.83,154.14-120.45,170.83-131.26,148.03-95.91,281.61-138.76,310.81-147.84,115.71-35.98,119.34-16.51,283.71-58.61,83.19-21.3,162.52-41.62,261.84-85.73,50.45-22.41,182.03-81.93,309.49-191.84,80.09-69.06,76.51-87.26,176.82-171.98,34.33-28.99,95.15-79.94,182.2-133.21,141.89-86.83,267.81-127.41,309.24-139.97,149.26-45.26,183.2-24.32,335.17-67.91,110.17-31.6,197.93-72.9,252.65-101.36,79.32,153.73,158.65,307.45,237.97,461.18Z"/>
          <g>
            <path class="cls-2" d="M-2711.54,3216.03c374.78-193.39,438.66-69.58,813.44-262.97,374.78-193.39,310.89-317.19,685.67-510.58,374.78-193.39,438.66-69.58,813.44-262.97,374.78-193.39,310.89-317.19,685.67-510.58,374.78-193.39,438.66-69.58,813.44-262.97,374.78-193.39,310.89-317.19,685.67-510.58,374.78-193.39,438.66-69.58,813.44-262.97,374.78-193.39,310.89-317.19,685.67-510.58,374.78-193.39,438.66-69.58,813.44-262.97,374.78-193.39,310.89-317.19,685.67-510.58,374.78-193.39,438.66-69.58,813.44-262.97,374.78-193.39,310.9-317.19,685.67-510.58,374.78-193.39,438.66-69.58,813.44-262.97"/>
            <path class="cls-2" d="M-2652.05,3331.32c374.78-193.39,438.66-69.58,813.44-262.97,374.78-193.39,310.89-317.19,685.67-510.58,374.78-193.39,438.66-69.58,813.44-262.97,374.78-193.39,310.89-317.19,685.67-510.58,374.78-193.39,438.66-69.58,813.44-262.97,374.78-193.39,310.89-317.19,685.67-510.58,374.78-193.39,438.66-69.58,813.44-262.97,374.78-193.39,310.89-317.19,685.67-510.58,374.78-193.39,438.66-69.58,813.44-262.97,374.78-193.39,310.89-317.19,685.67-510.58,374.78-193.39,438.66-69.58,813.44-262.97,374.78-193.39,310.9-317.19,685.67-510.58,374.78-193.39,438.66-69.58,813.44-262.97"/>
            <path class="cls-2" d="M-2592.55,3446.62c374.78-193.39,438.66-69.58,813.44-262.97,374.78-193.39,310.89-317.19,685.67-510.58,374.78-193.39,438.66-69.58,813.44-262.97,374.78-193.39,310.89-317.19,685.67-510.58,374.78-193.39,438.66-69.58,813.44-262.97,374.78-193.39,310.89-317.19,685.67-510.58,374.78-193.39,438.66-69.58,813.44-262.97,374.78-193.39,310.89-317.19,685.67-510.58,374.78-193.39,438.66-69.58,813.44-262.97,374.78-193.39,310.89-317.19,685.67-510.58,374.78-193.39,438.66-69.58,813.44-262.97,374.78-193.39,310.9-317.19,685.67-510.58,374.78-193.39,438.66-69.58,813.44-262.97"/>
            <path class="cls-2" d="M-2533.06,3561.91c374.78-193.39,438.66-69.58,813.44-262.97,374.78-193.39,310.89-317.19,685.67-510.58,374.78-193.39,438.66-69.58,813.44-262.97,374.78-193.39,310.89-317.19,685.67-510.58,374.78-193.39,438.66-69.58,813.44-262.97,374.78-193.39,310.89-317.19,685.67-510.58,374.78-193.39,438.66-69.58,813.44-262.97,374.78-193.39,310.89-317.19,685.67-510.58,374.78-193.39,438.66-69.58,813.44-262.97,374.78-193.39,310.89-317.19,685.67-510.58,374.78-193.39,438.66-69.58,813.44-262.97,374.78-193.39,310.89-317.19,685.67-510.58,374.78-193.39,438.66-69.58,813.44-262.97"/>
            <path class="cls-2" d="M-2473.57,3677.21c374.78-193.39,438.66-69.58,813.44-262.97,374.78-193.39,310.89-317.19,685.67-510.58,374.78-193.39,438.66-69.58,813.44-262.97,374.78-193.39,310.89-317.19,685.67-510.58,374.78-193.39,438.66-69.58,813.44-262.97,374.78-193.39,310.89-317.19,685.67-510.58,374.78-193.39,438.66-69.58,813.44-262.97,374.78-193.39,310.89-317.19,685.67-510.58,374.78-193.39,438.66-69.58,813.44-262.97,374.78-193.39,310.89-317.19,685.67-510.58,374.78-193.39,438.66-69.58,813.44-262.97,374.78-193.39,310.9-317.19,685.67-510.58,374.78-193.39,438.66-69.58,813.44-262.97"/>
          </g>
        </g>
        <g>
          <path class="cls-3" d="M8215.54-781.04c-44.34,23.68-114.18,57.72-201.96,86.19-153.87,49.9-200.5,30.04-361.08,76.58-141.97,41.15-247.49,97.82-285.21,118.95-124.96,70.01-211.44,145.36-258.21,186.54-87.23,76.82-79.62,86.82-156.41,150.47-35.57,29.49-123.49,98.86-247.85,160.81-126.22,62.88-230.17,88.34-355,118.9-166.63,40.8-171.98,24.55-278.81,61.56-31.89,11.05-150.89,53.89-282.42,141.81-83.12,55.56-142.42,109.87-218.12,179.18-81.63,74.75-77.7,80.25-129.85,123.44-103.93,86.08-204.89,134.94-250.09,156.48-124.88,59.51-227.54,83.79-351.26,113.06-141.56,33.48-141.94,21.03-234.92,50.67-42.8,13.65-153.18,51.5-279.21,128.4-97.24,59.34-163.04,117.05-209.72,158.38-82.91,73.41-82.87,88.19-154.07,148.48-25.59,21.67-102.87,85.2-215.79,146.62-154.94,84.28-289.32,116.92-352.8,131.88-110.92,26.14-102.8,10.52-204.07,36.32-67.99,17.32-190.89,54.75-328.71,132.78-117.32,66.42-195.25,133.84-234.1,167.83-78.83,68.95-67.69,74.52-141.13,138.67-102.16,89.23-205.67,150.01-280.13,187.66-52.51,26.55-134.71,67.55-243.51,95.08-62.89,15.91-69.62,10.86-179.47,33.82-90.92,19-146.22,30.56-214.95,54.48-110.04,38.3-189.9,85.82-231.01,110.58-114.25,68.8-190.1,137.7-235.85,179.71-81.24,74.58-75.74,84.99-142.26,140.82-88.24,74.06-171.52,117.55-221.01,143.05-147.74,76.11-275.07,107.98-372.06,131.63-149.03,36.34-160.85,21.71-273.16,59.43-43.7,14.68-138.14,49.21-246.26,113.74-93.79,55.98-153.34,107.95-263.69,204.26-128.48,112.13-116.04,116.76-189.79,170.83-26.16,19.18-134.83,97.12-292.16,157.81-91.42,35.27-166.13,51.92-243.39,69.15-114.99,25.64-145.66,22.75-228.13,46.38-96.09,27.53-172.39,65.25-220.45,91.8-79.32-153.73-158.65-307.45-237.97-461.18,55.75-28,138.86-66.03,241.59-98.8,187.03-59.65,211.46-29.26,364.71-76.1,236.77-72.37,416.09-217.56,481.46-275.09,77.31-68.03,58-68.69,142.26-140.82,53.33-45.66,182.07-154.11,373.26-231.8,17.54-7.13,104.72-42.08,219.37-67.73,82.63-18.49,100.59-14.48,174.46-30.45,27.23-5.89,133.54-29.94,262.34-89.12,53.39-24.53,166.43-80.73,285.56-177.14,102.97-83.33,82.94-93.48,190.9-183.95,137.24-115,264.03-177.73,302.74-196.19,107.1-51.09,195.66-76.18,225.49-84.21,111.06-29.93,141.68-21.25,254.82-49.18,119.53-29.52,210.49-70.11,235.79-81.69,185.85-85.08,313.81-199.91,350.63-234.23,73.89-68.86,91.53-103.08,183.11-172.87,65.07-49.59,121.63-82.21,152.22-99.71,49.7-28.44,143.16-81.3,263.53-119.52,105.45-33.49,120.77-20.57,259.51-53.17,73.4-17.25,160.77-37.78,261.98-81.1,216.93-92.85,364.01-233.29,401.89-270.09,45.31-44,54.25-59.76,106.64-105.19,31.36-27.2,112.04-94.31,229.87-158.59,140.37-76.58,260.71-109.45,351.85-133.74,181.57-48.39,201.79-25.5,345.95-79.74,37.9-14.26,121.16-47.7,218.82-105.86,92.54-55.11,155.62-107.16,176.44-124.75,76.18-64.34,79.32-83.3,158.12-153.71,81.51-72.83,154.14-120.45,170.83-131.26,148.03-95.91,281.61-138.76,310.81-147.84,115.71-35.98,119.34-16.51,283.71-58.61,83.19-21.3,162.52-41.62,261.84-85.73,50.45-22.41,182.03-81.93,309.49-191.84,80.09-69.06,76.51-87.26,176.82-171.98,34.33-28.99,95.15-79.94,182.2-133.21,141.89-86.83,267.81-127.41,309.24-139.97,149.26-45.26,183.2-24.32,335.17-67.91,110.17-31.6,197.93-72.9,252.65-101.36,79.32,153.73,158.65,307.45,237.97,461.18Z"/>
          <g>
            <path class="cls-2" d="M-1830.54,3662.03c374.78-193.39,438.66-69.58,813.44-262.97,374.78-193.39,310.89-317.19,685.67-510.58,374.78-193.39,438.66-69.58,813.44-262.97,374.78-193.39,310.89-317.19,685.67-510.58,374.78-193.39,438.66-69.58,813.44-262.97,374.78-193.39,310.89-317.19,685.67-510.58,374.78-193.39,438.66-69.58,813.44-262.97,374.78-193.39,310.89-317.19,685.67-510.58,374.78-193.39,438.66-69.58,813.44-262.97,374.78-193.39,310.89-317.19,685.67-510.58,374.78-193.39,438.66-69.58,813.44-262.97,374.78-193.39,310.9-317.19,685.67-510.58,374.78-193.39,438.66-69.58,813.44-262.97"/>
            <path class="cls-2" d="M-1771.05,3777.32c374.78-193.39,438.66-69.58,813.44-262.97,374.78-193.39,310.89-317.19,685.67-510.58,374.78-193.39,438.66-69.58,813.44-262.97,374.78-193.39,310.89-317.19,685.67-510.58,374.78-193.39,438.66-69.58,813.44-262.97,374.78-193.39,310.89-317.19,685.67-510.58,374.78-193.39,438.66-69.58,813.44-262.97,374.78-193.39,310.89-317.19,685.67-510.58,374.78-193.39,438.66-69.58,813.44-262.97,374.78-193.39,310.89-317.19,685.67-510.58,374.78-193.39,438.66-69.58,813.44-262.97,374.78-193.39,310.9-317.19,685.67-510.58,374.78-193.39,438.66-69.58,813.44-262.97"/>
            <path class="cls-2" d="M-1711.55,3892.62c374.78-193.39,438.66-69.58,813.44-262.97,374.78-193.39,310.89-317.19,685.67-510.58,374.78-193.39,438.66-69.58,813.44-262.97,374.78-193.39,310.89-317.19,685.67-510.58,374.78-193.39,438.66-69.58,813.44-262.97,374.78-193.39,310.89-317.19,685.67-510.58,374.78-193.39,438.66-69.58,813.44-262.97,374.78-193.39,310.89-317.19,685.67-510.58,374.78-193.39,438.66-69.58,813.44-262.97,374.78-193.39,310.89-317.19,685.67-510.58,374.78-193.39,438.66-69.58,813.44-262.97,374.78-193.39,310.9-317.19,685.67-510.58,374.78-193.39,438.66-69.58,813.44-262.97"/>
            <path class="cls-2" d="M-1652.06,4007.91c374.78-193.39,438.66-69.58,813.44-262.97,374.78-193.39,310.89-317.19,685.67-510.58,374.78-193.39,438.66-69.58,813.44-262.97,374.78-193.39,310.89-317.19,685.67-510.58,374.78-193.39,438.66-69.58,813.44-262.97,374.78-193.39,310.89-317.19,685.67-510.58,374.78-193.39,438.66-69.58,813.44-262.97,374.78-193.39,310.89-317.19,685.67-510.58,374.78-193.39,438.66-69.58,813.44-262.97,374.78-193.39,310.89-317.19,685.67-510.58,374.78-193.39,438.66-69.58,813.44-262.97,374.78-193.39,310.89-317.19,685.67-510.58,374.78-193.39,438.66-69.58,813.44-262.97"/>
            <path class="cls-2" d="M-1592.57,4123.21c374.78-193.39,438.66-69.58,813.44-262.97,374.78-193.39,310.89-317.19,685.67-510.58,374.78-193.39,438.66-69.58,813.44-262.97,374.78-193.39,310.89-317.19,685.67-510.58,374.78-193.39,438.66-69.58,813.44-262.97,374.78-193.39,310.89-317.19,685.67-510.58,374.78-193.39,438.66-69.58,813.44-262.97,374.78-193.39,310.89-317.19,685.67-510.58,374.78-193.39,438.66-69.58,813.44-262.97,374.78-193.39,310.89-317.19,685.67-510.58,374.78-193.39,438.66-69.58,813.44-262.97,374.78-193.39,310.9-317.19,685.67-510.58,374.78-193.39,438.66-69.58,813.44-262.97"/>
          </g>
        </g>
        <g>
          <path class="cls-3" d="M6830.54-550.04c-44.34,23.68-114.18,57.72-201.96,86.19-153.87,49.9-200.5,30.04-361.08,76.58-141.97,41.15-247.49,97.82-285.21,118.95-124.96,70.01-211.44,145.36-258.21,186.54-87.23,76.82-79.62,86.82-156.41,150.47-35.57,29.49-123.49,98.86-247.85,160.81-126.22,62.88-230.17,88.34-355,118.9-166.63,40.8-171.98,24.55-278.81,61.56-31.89,11.05-150.89,53.89-282.42,141.81-83.12,55.56-142.42,109.87-218.12,179.18-81.63,74.75-77.7,80.25-129.85,123.44-103.93,86.08-204.89,134.94-250.09,156.48-124.88,59.51-227.54,83.79-351.26,113.06-141.56,33.48-141.94,21.03-234.92,50.67-42.8,13.65-153.18,51.5-279.21,128.4-97.24,59.34-163.04,117.05-209.72,158.38-82.91,73.41-82.87,88.19-154.07,148.48-25.59,21.67-102.87,85.2-215.79,146.62-154.94,84.28-289.32,116.92-352.8,131.88-110.92,26.14-102.8,10.52-204.07,36.32-67.99,17.32-190.89,54.75-328.71,132.78-117.32,66.42-195.25,133.84-234.1,167.83-78.83,68.95-67.69,74.52-141.13,138.67-102.16,89.23-205.67,150.01-280.13,187.66-52.51,26.55-134.71,67.55-243.51,95.08-62.89,15.91-69.62,10.86-179.47,33.82-90.92,19-146.22,30.56-214.95,54.48-110.04,38.3-189.9,85.82-231.01,110.58-114.25,68.8-190.1,137.7-235.85,179.71-81.24,74.58-75.74,84.99-142.26,140.82-88.24,74.06-171.52,117.55-221.01,143.05-147.74,76.11-275.07,107.98-372.06,131.63-149.03,36.34-160.85,21.71-273.16,59.43-43.7,14.68-138.14,49.21-246.26,113.74-93.79,55.98-153.34,107.95-263.69,204.26-128.48,112.13-116.04,116.76-189.79,170.83-26.16,19.18-134.83,97.12-292.16,157.81-91.42,35.27-166.13,51.92-243.39,69.15-114.99,25.64-145.66,22.75-228.13,46.38-96.09,27.53-172.39,65.25-220.45,91.8-79.32-153.73-158.65-307.45-237.97-461.18,55.75-28,138.86-66.03,241.59-98.8,187.03-59.65,211.46-29.26,364.71-76.1,236.77-72.37,416.09-217.56,481.46-275.09,77.31-68.03,58-68.69,142.26-140.82,53.33-45.66,182.07-154.11,373.26-231.8,17.54-7.13,104.72-42.08,219.37-67.73,82.63-18.49,100.59-14.48,174.46-30.45,27.23-5.89,133.54-29.94,262.34-89.12,53.39-24.53,166.43-80.73,285.56-177.14,102.97-83.33,82.94-93.48,190.9-183.95,137.24-115,264.03-177.73,302.74-196.19,107.1-51.09,195.66-76.18,225.49-84.21,111.06-29.93,141.68-21.25,254.82-49.18,119.53-29.52,210.49-70.11,235.79-81.69,185.85-85.08,313.81-199.91,350.63-234.23,73.89-68.86,91.53-103.08,183.11-172.87,65.07-49.59,121.63-82.21,152.22-99.71,49.7-28.44,143.16-81.3,263.53-119.52,105.45-33.49,120.77-20.57,259.51-53.17,73.4-17.25,160.77-37.78,261.98-81.1,216.93-92.85,364.01-233.29,401.89-270.09,45.31-44,54.25-59.76,106.64-105.19,31.36-27.2,112.04-94.31,229.87-158.59,140.37-76.58,260.71-109.45,351.85-133.74,181.57-48.39,201.79-25.5,345.95-79.74,37.9-14.26,121.16-47.7,218.82-105.86,92.54-55.11,155.62-107.16,176.44-124.75,76.18-64.34,79.32-83.3,158.12-153.71,81.51-72.83,154.14-120.45,170.83-131.26,148.03-95.91,281.61-138.76,310.81-147.84,115.71-35.98,119.34-16.51,283.71-58.61,83.19-21.3,162.52-41.62,261.84-85.73,50.45-22.41,182.03-81.93,309.49-191.84,80.09-69.06,76.51-87.26,176.82-171.98,34.33-28.99,95.15-79.94,182.2-133.21,141.89-86.83,267.81-127.41,309.24-139.97,149.26-45.26,183.2-24.32,335.17-67.91,110.17-31.6,197.93-72.9,252.65-101.36,79.32,153.73,158.65,307.45,237.97,461.18Z"/>
          <g>
            <path class="cls-2" d="M-3215.54,3893.03c374.78-193.39,438.66-69.58,813.44-262.97,374.78-193.39,310.89-317.19,685.67-510.58,374.78-193.39,438.66-69.58,813.44-262.97,374.78-193.39,310.89-317.19,685.67-510.58,374.78-193.39,438.66-69.58,813.44-262.97,374.78-193.39,310.89-317.19,685.67-510.58,374.78-193.39,438.66-69.58,813.44-262.97,374.78-193.39,310.89-317.19,685.67-510.58,374.78-193.39,438.66-69.58,813.44-262.97,374.78-193.39,310.89-317.19,685.67-510.58,374.78-193.39,438.66-69.58,813.44-262.97,374.78-193.39,310.9-317.19,685.67-510.58,374.78-193.39,438.66-69.58,813.44-262.97"/>
            <path class="cls-2" d="M-3156.05,4008.32c374.78-193.39,438.66-69.58,813.44-262.97,374.78-193.39,310.89-317.19,685.67-510.58,374.78-193.39,438.66-69.58,813.44-262.97,374.78-193.39,310.89-317.19,685.67-510.58,374.78-193.39,438.66-69.58,813.44-262.97,374.78-193.39,310.89-317.19,685.67-510.58,374.78-193.39,438.66-69.58,813.44-262.97,374.78-193.39,310.89-317.19,685.67-510.58,374.78-193.39,438.66-69.58,813.44-262.97,374.78-193.39,310.89-317.19,685.67-510.58,374.78-193.39,438.66-69.58,813.44-262.97,374.78-193.39,310.9-317.19,685.67-510.58s438.66-69.58,813.44-262.97"/>
            <path class="cls-2" d="M-3096.55,4123.62c374.78-193.39,438.66-69.58,813.44-262.97,374.78-193.39,310.89-317.19,685.67-510.58,374.78-193.39,438.66-69.58,813.44-262.97,374.78-193.39,310.89-317.19,685.67-510.58,374.78-193.39,438.66-69.58,813.44-262.97,374.78-193.39,310.89-317.19,685.67-510.58,374.78-193.39,438.66-69.58,813.44-262.97,374.78-193.39,310.89-317.19,685.67-510.58,374.78-193.39,438.66-69.58,813.44-262.97,374.78-193.39,310.89-317.19,685.67-510.58,374.78-193.39,438.66-69.58,813.44-262.97,374.78-193.39,310.9-317.19,685.67-510.58,374.78-193.39,438.66-69.58,813.44-262.97"/>
            <path class="cls-2" d="M-3037.06,4238.91c374.78-193.39,438.66-69.58,813.44-262.97,374.78-193.39,310.89-317.19,685.67-510.58,374.78-193.39,438.66-69.58,813.44-262.97,374.78-193.39,310.89-317.19,685.67-510.58,374.78-193.39,438.66-69.58,813.44-262.97,374.78-193.39,310.89-317.19,685.67-510.58,374.78-193.39,438.66-69.58,813.44-262.97,374.78-193.39,310.89-317.19,685.67-510.58,374.78-193.39,438.66-69.58,813.44-262.97,374.78-193.39,310.89-317.19,685.67-510.58,374.78-193.39,438.66-69.58,813.44-262.97,374.78-193.39,310.89-317.19,685.67-510.58,374.78-193.39,438.66-69.58,813.44-262.97"/>
            <path class="cls-2" d="M-2977.57,4354.21c374.78-193.39,438.66-69.58,813.44-262.97,374.78-193.39,310.89-317.19,685.67-510.58,374.78-193.39,438.66-69.58,813.44-262.97,374.78-193.39,310.89-317.19,685.67-510.58,374.78-193.39,438.66-69.58,813.44-262.97,374.78-193.39,310.89-317.19,685.67-510.58,374.78-193.39,438.66-69.58,813.44-262.97,374.78-193.39,310.89-317.19,685.67-510.58,374.78-193.39,438.66-69.58,813.44-262.97,374.78-193.39,310.89-317.19,685.67-510.58,374.78-193.39,438.66-69.58,813.44-262.97,374.78-193.39,310.9-317.19,685.67-510.58,374.78-193.39,438.66-69.58,813.44-262.97"/>
          </g>
        </g>
      </g>
      <g>
        <g>
          <path class="cls-3" d="M8598.54-658.04c-44.34,23.68-114.18,57.72-201.96,86.19-153.87,49.9-200.5,30.04-361.08,76.58-141.97,41.15-247.49,97.82-285.21,118.95-124.96,70.01-211.44,145.36-258.21,186.54-87.23,76.82-79.62,86.82-156.41,150.47-35.57,29.49-123.49,98.86-247.85,160.81-126.22,62.88-230.17,88.34-355,118.9-166.63,40.8-171.98,24.55-278.81,61.56-31.89,11.05-150.89,53.89-282.42,141.81-83.12,55.56-142.42,109.87-218.12,179.18-81.63,74.75-77.7,80.25-129.85,123.44-103.93,86.08-204.89,134.94-250.09,156.48-124.88,59.51-227.54,83.79-351.26,113.06-141.56,33.48-141.94,21.03-234.92,50.67-42.8,13.65-153.18,51.5-279.21,128.4-97.24,59.34-163.04,117.05-209.72,158.38-82.91,73.41-82.87,88.19-154.07,148.48-25.59,21.67-102.87,85.2-215.79,146.62-154.94,84.28-289.32,116.92-352.8,131.88-110.92,26.14-102.8,10.52-204.07,36.32-67.99,17.32-190.89,54.75-328.71,132.78-117.32,66.42-195.25,133.84-234.1,167.83-78.83,68.95-67.69,74.52-141.13,138.67-102.16,89.23-205.67,150.01-280.13,187.66-52.51,26.55-134.71,67.55-243.51,95.08-62.89,15.91-69.62,10.86-179.47,33.82-90.92,19-146.22,30.56-214.95,54.48-110.04,38.3-189.9,85.82-231.01,110.58-114.25,68.8-190.1,137.7-235.85,179.71-81.24,74.58-75.74,84.99-142.26,140.82-88.24,74.06-171.52,117.55-221.01,143.05-147.74,76.11-275.07,107.98-372.06,131.63-149.03,36.34-160.85,21.71-273.16,59.43-43.7,14.68-138.14,49.21-246.26,113.74-93.79,55.98-153.34,107.95-263.69,204.26-128.48,112.13-116.04,116.76-189.79,170.83-26.16,19.18-134.83,97.12-292.16,157.81-91.42,35.27-166.13,51.92-243.39,69.15-114.99,25.64-145.66,22.75-228.13,46.38-96.09,27.53-172.39,65.25-220.45,91.8-79.32-153.73-158.65-307.45-237.97-461.18,55.75-28,138.86-66.03,241.59-98.8,187.03-59.65,211.46-29.26,364.71-76.1,236.77-72.37,416.09-217.56,481.46-275.09,77.31-68.03,58-68.69,142.26-140.82,53.33-45.66,182.07-154.11,373.26-231.8,17.54-7.13,104.72-42.08,219.37-67.73,82.63-18.49,100.59-14.48,174.46-30.45,27.23-5.89,133.54-29.94,262.34-89.12,53.39-24.53,166.43-80.73,285.57-177.14,102.97-83.33,82.94-93.48,190.9-183.95,137.24-115,264.03-177.73,302.74-196.19,107.1-51.09,195.66-76.18,225.49-84.21,111.06-29.93,141.68-21.25,254.82-49.18,119.53-29.52,210.49-70.11,235.79-81.69,185.85-85.08,313.81-199.91,350.63-234.23,73.89-68.86,91.53-103.08,183.11-172.87,65.07-49.59,121.63-82.21,152.22-99.71,49.7-28.44,143.16-81.3,263.53-119.52,105.45-33.49,120.77-20.57,259.51-53.17,73.4-17.25,160.77-37.78,261.98-81.1,216.93-92.85,364.01-233.29,401.89-270.09,45.31-44,54.25-59.76,106.64-105.19,31.36-27.2,112.04-94.31,229.87-158.59,140.37-76.58,260.71-109.45,351.85-133.74,181.57-48.39,201.79-25.5,345.95-79.74,37.9-14.26,121.16-47.7,218.82-105.86,92.54-55.11,155.62-107.16,176.44-124.75,76.18-64.34,79.32-83.3,158.12-153.71,81.51-72.83,154.14-120.45,170.83-131.26,148.03-95.91,281.61-138.76,310.81-147.84,115.71-35.98,119.34-16.51,283.71-58.61,83.19-21.3,162.52-41.62,261.84-85.73,50.45-22.41,182.03-81.93,309.49-191.84,80.09-69.06,76.51-87.26,176.82-171.98,34.33-28.99,95.15-79.94,182.2-133.21,141.89-86.83,267.81-127.41,309.24-139.97,149.26-45.26,183.2-24.32,335.17-67.91,110.17-31.6,197.93-72.9,252.65-101.36,79.32,153.73,158.65,307.45,237.97,461.18Z"/>
          <g>
            <path class="cls-2" d="M-1447.54,3785.03c374.78-193.39,438.66-69.58,813.44-262.97,374.78-193.39,310.89-317.19,685.67-510.58,374.78-193.39,438.66-69.58,813.44-262.97,374.78-193.39,310.89-317.19,685.67-510.58,374.78-193.39,438.66-69.58,813.44-262.97,374.78-193.39,310.89-317.19,685.67-510.58,374.78-193.39,438.66-69.58,813.44-262.97,374.78-193.39,310.89-317.19,685.67-510.58,374.78-193.39,438.66-69.58,813.44-262.97,374.78-193.39,310.89-317.19,685.67-510.58,374.78-193.39,438.66-69.58,813.44-262.97,374.78-193.39,310.9-317.19,685.67-510.58,374.78-193.39,438.66-69.58,813.44-262.97"/>
            <path class="cls-2" d="M-1388.05,3900.32c374.78-193.39,438.66-69.58,813.44-262.97,374.78-193.39,310.89-317.19,685.67-510.58,374.78-193.39,438.66-69.58,813.44-262.97,374.78-193.39,310.89-317.19,685.67-510.58,374.78-193.39,438.66-69.58,813.44-262.97,374.78-193.39,310.89-317.19,685.67-510.58,374.78-193.39,438.66-69.58,813.44-262.97,374.78-193.39,310.89-317.19,685.67-510.58,374.78-193.39,438.66-69.58,813.44-262.97,374.78-193.39,310.89-317.19,685.67-510.58,374.78-193.39,438.66-69.58,813.44-262.97,374.78-193.39,310.9-317.19,685.67-510.58s438.66-69.58,813.44-262.97"/>
            <path class="cls-2" d="M-1328.55,4015.62c374.78-193.39,438.66-69.58,813.44-262.97,374.78-193.39,310.89-317.19,685.67-510.58,374.78-193.39,438.66-69.58,813.44-262.97,374.78-193.39,310.89-317.19,685.67-510.58,374.78-193.39,438.66-69.58,813.44-262.97,374.78-193.39,310.89-317.19,685.67-510.58,374.78-193.39,438.66-69.58,813.44-262.97,374.78-193.39,310.89-317.19,685.67-510.58,374.78-193.39,438.66-69.58,813.44-262.97,374.78-193.39,310.89-317.19,685.67-510.58,374.78-193.39,438.66-69.58,813.44-262.97,374.78-193.39,310.9-317.19,685.67-510.58,374.78-193.39,438.66-69.58,813.44-262.97"/>
            <path class="cls-2" d="M-1269.06,4130.91c374.78-193.39,438.66-69.58,813.44-262.97,374.78-193.39,310.89-317.19,685.67-510.58,374.78-193.39,438.66-69.58,813.44-262.97,374.78-193.39,310.89-317.19,685.67-510.58,374.78-193.39,438.66-69.58,813.44-262.97,374.78-193.39,310.89-317.19,685.67-510.58,374.78-193.39,438.66-69.58,813.44-262.97,374.78-193.39,310.89-317.19,685.67-510.58,374.78-193.39,438.66-69.58,813.44-262.97,374.78-193.39,310.89-317.19,685.67-510.58,374.78-193.39,438.66-69.58,813.44-262.97,374.78-193.39,310.89-317.19,685.67-510.58,374.78-193.39,438.66-69.58,813.44-262.97"/>
            <path class="cls-2" d="M-1209.57,4246.21c374.78-193.39,438.66-69.58,813.44-262.97,374.78-193.39,310.89-317.19,685.67-510.58,374.78-193.39,438.66-69.58,813.44-262.97,374.78-193.39,310.89-317.19,685.67-510.58,374.78-193.39,438.66-69.58,813.44-262.97,374.78-193.39,310.89-317.19,685.67-510.58,374.78-193.39,438.66-69.58,813.44-262.97,374.78-193.39,310.89-317.19,685.67-510.58,374.78-193.39,438.66-69.58,813.44-262.97,374.78-193.39,310.89-317.19,685.67-510.58,374.78-193.39,438.66-69.58,813.44-262.97,374.78-193.39,310.9-317.19,685.67-510.58,374.78-193.39,438.66-69.58,813.44-262.97"/>
          </g>
        </g>
        <g>
          <path class="cls-3" d="M9479.54-212.04c-44.34,23.68-114.18,57.72-201.96,86.19-153.87,49.9-200.5,30.04-361.08,76.58-141.97,41.15-247.49,97.82-285.21,118.95-124.96,70.01-211.44,145.36-258.21,186.54-87.23,76.82-79.62,86.82-156.41,150.47-35.57,29.49-123.49,98.86-247.85,160.81-126.22,62.88-230.17,88.34-355,118.9-166.63,40.8-171.98,24.55-278.81,61.56-31.89,11.05-150.89,53.89-282.42,141.81-83.12,55.56-142.42,109.87-218.12,179.18-81.63,74.75-77.7,80.25-129.85,123.44-103.93,86.08-204.89,134.94-250.09,156.48-124.88,59.51-227.54,83.79-351.26,113.06-141.56,33.48-141.94,21.03-234.92,50.67-42.8,13.65-153.18,51.5-279.21,128.4-97.24,59.34-163.04,117.05-209.72,158.38-82.91,73.41-82.87,88.19-154.07,148.48-25.59,21.67-102.87,85.2-215.79,146.62-154.94,84.28-289.32,116.92-352.8,131.88-110.92,26.14-102.8,10.52-204.07,36.32-67.99,17.32-190.89,54.75-328.71,132.78-117.32,66.42-195.25,133.84-234.1,167.83-78.83,68.95-67.69,74.52-141.13,138.67-102.16,89.23-205.67,150.01-280.13,187.66-52.51,26.55-134.71,67.55-243.51,95.08-62.89,15.91-69.62,10.86-179.47,33.82-90.92,19-146.22,30.56-214.95,54.48-110.04,38.3-189.9,85.82-231.01,110.58-114.25,68.8-190.1,137.7-235.85,179.71-81.24,74.58-75.74,84.99-142.26,140.82-88.24,74.06-171.52,117.55-221.01,143.05-147.74,76.11-275.07,107.98-372.06,131.63-149.03,36.34-160.85,21.71-273.16,59.43-43.7,14.68-138.14,49.21-246.26,113.74-93.79,55.98-153.34,107.95-263.69,204.26-128.48,112.13-116.04,116.76-189.79,170.83-26.16,19.18-134.83,97.12-292.16,157.81-91.42,35.27-166.13,51.92-243.39,69.15-114.99,25.64-145.66,22.75-228.13,46.38-96.09,27.53-172.39,65.25-220.45,91.8-79.32-153.73-158.65-307.45-237.97-461.18,55.75-28,138.86-66.03,241.59-98.8,187.03-59.65,211.46-29.26,364.71-76.1,236.77-72.37,416.09-217.56,481.46-275.09,77.31-68.03,58-68.69,142.26-140.82,53.33-45.66,182.07-154.11,373.26-231.8,17.54-7.13,104.72-42.08,219.37-67.73,82.63-18.49,100.59-14.48,174.46-30.45,27.23-5.89,133.54-29.94,262.34-89.12,53.39-24.53,166.43-80.73,285.57-177.14,102.97-83.33,82.94-93.48,190.9-183.95,137.24-115,264.03-177.73,302.74-196.19,107.1-51.09,195.66-76.18,225.49-84.21,111.06-29.93,141.68-21.25,254.82-49.18,119.53-29.52,210.49-70.11,235.79-81.69,185.85-85.08,313.81-199.91,350.63-234.23,73.89-68.86,91.53-103.08,183.11-172.87,65.07-49.59,121.63-82.21,152.22-99.71,49.7-28.44,143.16-81.3,263.53-119.52,105.45-33.49,120.77-20.57,259.51-53.17,73.4-17.25,160.77-37.78,261.98-81.1,216.93-92.85,364.01-233.29,401.89-270.09,45.31-44,54.25-59.76,106.64-105.19,31.36-27.2,112.04-94.31,229.87-158.59,140.37-76.58,260.71-109.45,351.85-133.74,181.57-48.39,201.79-25.5,345.95-79.74,37.9-14.26,121.16-47.7,218.82-105.86,92.54-55.11,155.62-107.16,176.44-124.75,76.18-64.34,79.32-83.3,158.12-153.71,81.51-72.83,154.14-120.45,170.83-131.26,148.03-95.91,281.61-138.76,310.81-147.84,115.71-35.98,119.34-16.51,283.71-58.61,83.19-21.3,162.52-41.62,261.84-85.73,50.45-22.41,182.03-81.93,309.49-191.84,80.09-69.06,76.51-87.26,176.82-171.98,34.33-28.99,95.15-79.94,182.2-133.21,141.89-86.83,267.81-127.41,309.24-139.97,149.26-45.26,183.2-24.32,335.17-67.91,110.17-31.6,197.93-72.9,252.65-101.36,79.32,153.73,158.65,307.45,237.97,461.18Z"/>
          <g>
            <path class="cls-2" d="M-566.54,4231.03c374.78-193.39,438.66-69.58,813.44-262.97,374.78-193.39,310.89-317.19,685.67-510.58,374.78-193.39,438.66-69.58,813.44-262.97,374.78-193.39,310.89-317.19,685.67-510.58,374.78-193.39,438.66-69.58,813.44-262.97,374.78-193.39,310.89-317.19,685.67-510.58,374.78-193.39,438.66-69.58,813.44-262.97,374.78-193.39,310.89-317.19,685.67-510.58,374.78-193.39,438.66-69.58,813.44-262.97,374.78-193.39,310.89-317.19,685.67-510.58,374.78-193.39,438.66-69.58,813.44-262.97,374.78-193.39,310.9-317.19,685.67-510.58,374.78-193.39,438.66-69.58,813.44-262.97"/>
            <path class="cls-2" d="M-507.05,4346.32c374.78-193.39,438.66-69.58,813.44-262.97,374.78-193.39,310.89-317.19,685.67-510.58,374.78-193.39,438.66-69.58,813.44-262.97,374.78-193.39,310.89-317.19,685.67-510.58,374.78-193.39,438.66-69.58,813.44-262.97s310.89-317.19,685.67-510.58c374.78-193.39,438.66-69.58,813.44-262.97,374.78-193.39,310.89-317.19,685.67-510.58,374.78-193.39,438.66-69.58,813.44-262.97,374.78-193.39,310.89-317.19,685.67-510.58,374.78-193.39,438.66-69.58,813.44-262.97,374.78-193.39,310.9-317.19,685.67-510.58s438.66-69.58,813.44-262.97"/>
            <path class="cls-2" d="M-447.55,4461.62c374.78-193.39,438.66-69.58,813.44-262.97,374.78-193.39,310.89-317.19,685.67-510.58,374.78-193.39,438.66-69.58,813.44-262.97,374.78-193.39,310.89-317.19,685.67-510.58,374.78-193.39,438.66-69.58,813.44-262.97,374.78-193.39,310.89-317.19,685.67-510.58,374.78-193.39,438.66-69.58,813.44-262.97,374.78-193.39,310.89-317.19,685.67-510.58,374.78-193.39,438.66-69.58,813.44-262.97,374.78-193.39,310.89-317.19,685.67-510.58,374.78-193.39,438.66-69.58,813.44-262.97,374.78-193.39,310.9-317.19,685.67-510.58,374.78-193.39,438.66-69.58,813.44-262.97"/>
            <path class="cls-2" d="M-388.06,4576.91c374.78-193.39,438.66-69.58,813.44-262.97,374.78-193.39,310.89-317.19,685.67-510.58,374.78-193.39,438.66-69.58,813.44-262.97,374.78-193.39,310.89-317.19,685.67-510.58,374.78-193.39,438.66-69.58,813.44-262.97,374.78-193.39,310.89-317.19,685.67-510.58,374.78-193.39,438.66-69.58,813.44-262.97,374.78-193.39,310.89-317.19,685.67-510.58,374.78-193.39,438.66-69.58,813.44-262.97,374.78-193.39,310.89-317.19,685.67-510.58,374.78-193.39,438.66-69.58,813.44-262.97,374.78-193.39,310.9-317.19,685.67-510.58,374.78-193.39,438.66-69.58,813.44-262.97"/>
            <path class="cls-2" d="M-328.57,4692.21c374.78-193.39,438.66-69.58,813.44-262.97,374.78-193.39,310.89-317.19,685.67-510.58,374.78-193.39,438.66-69.58,813.44-262.97,374.78-193.39,310.89-317.19,685.67-510.58,374.78-193.39,438.66-69.58,813.44-262.97,374.78-193.39,310.89-317.19,685.67-510.58,374.78-193.39,438.66-69.58,813.44-262.97,374.78-193.39,310.89-317.19,685.67-510.58,374.78-193.39,438.66-69.58,813.44-262.97,374.78-193.39,310.89-317.19,685.67-510.58,374.78-193.39,438.66-69.58,813.44-262.97,374.78-193.39,310.9-317.19,685.67-510.58,374.78-193.39,438.66-69.58,813.44-262.97"/>
          </g>
        </g>
        <g>
          <path class="cls-3" d="M8094.54,18.96c-44.34,23.68-114.18,57.72-201.96,86.19-153.87,49.9-200.5,30.04-361.08,76.58-141.97,41.15-247.49,97.82-285.21,118.95-124.96,70.01-211.44,145.36-258.21,186.54-87.23,76.82-79.62,86.82-156.41,150.47-35.57,29.49-123.49,98.86-247.85,160.81-126.22,62.88-230.17,88.34-355,118.9-166.63,40.8-171.98,24.55-278.81,61.56-31.89,11.05-150.89,53.89-282.42,141.81-83.12,55.56-142.42,109.87-218.12,179.18-81.63,74.75-77.7,80.25-129.85,123.44-103.93,86.08-204.89,134.94-250.09,156.48-124.88,59.51-227.54,83.79-351.26,113.06-141.56,33.48-141.94,21.03-234.92,50.67-42.8,13.65-153.18,51.5-279.21,128.4-97.24,59.34-163.04,117.05-209.72,158.38-82.91,73.41-82.87,88.19-154.07,148.48-25.59,21.67-102.87,85.2-215.79,146.62-154.94,84.28-289.32,116.92-352.8,131.88-110.92,26.14-102.8,10.52-204.07,36.32-67.99,17.32-190.89,54.75-328.71,132.78-117.32,66.42-195.25,133.84-234.1,167.83-78.83,68.95-67.69,74.52-141.13,138.67-102.16,89.23-205.67,150.01-280.13,187.66-52.51,26.55-134.71,67.55-243.51,95.08-62.89,15.91-69.62,10.86-179.47,33.82-90.92,19-146.22,30.56-214.95,54.48-110.04,38.3-189.9,85.82-231.01,110.58-114.25,68.8-190.1,137.7-235.85,179.71-81.24,74.58-75.74,84.99-142.26,140.82-88.24,74.06-171.52,117.55-221.01,143.05-147.74,76.11-275.07,107.98-372.06,131.63-149.03,36.34-160.85,21.71-273.16,59.43-43.7,14.68-138.14,49.21-246.26,113.74-93.79,55.98-153.34,107.95-263.69,204.26-128.48,112.13-116.04,116.76-189.79,170.83-26.16,19.18-134.83,97.12-292.16,157.81-91.42,35.27-166.13,51.92-243.39,69.15-114.99,25.64-145.66,22.75-228.13,46.38-96.09,27.53-172.39,65.25-220.45,91.8-79.32-153.73-158.65-307.45-237.97-461.18,55.75-28,138.86-66.03,241.59-98.8,187.03-59.65,211.46-29.26,364.71-76.1,236.77-72.37,416.09-217.56,481.46-275.09,77.31-68.03,58-68.69,142.26-140.82,53.33-45.66,182.07-154.11,373.26-231.8,17.54-7.13,104.72-42.08,219.37-67.73,82.63-18.49,100.59-14.48,174.46-30.45,27.23-5.89,133.54-29.94,262.34-89.12,53.39-24.53,166.43-80.73,285.56-177.14,102.97-83.33,82.94-93.48,190.9-183.95,137.24-115,264.03-177.73,302.74-196.19,107.1-51.09,195.66-76.18,225.49-84.21,111.06-29.93,141.68-21.25,254.82-49.18,119.53-29.52,210.49-70.11,235.79-81.69,185.85-85.08,313.81-199.91,350.63-234.23,73.89-68.86,91.53-103.08,183.11-172.87,65.07-49.59,121.63-82.21,152.22-99.71,49.7-28.44,143.16-81.3,263.53-119.52,105.45-33.49,120.77-20.57,259.51-53.17,73.4-17.25,160.77-37.78,261.98-81.1,216.93-92.85,364.01-233.29,401.89-270.09,45.31-44,54.25-59.76,106.64-105.19,31.36-27.2,112.04-94.31,229.87-158.59,140.37-76.58,260.71-109.45,351.85-133.74,181.57-48.39,201.79-25.5,345.95-79.74,37.9-14.26,121.16-47.7,218.82-105.86,92.54-55.11,155.62-107.16,176.44-124.75,76.18-64.34,79.32-83.3,158.12-153.71,81.51-72.83,154.14-120.45,170.83-131.26,148.03-95.91,281.61-138.76,310.81-147.84,115.71-35.98,119.34-16.51,283.71-58.61,83.19-21.3,162.52-41.62,261.84-85.73,50.45-22.41,182.03-81.93,309.49-191.84,80.09-69.06,76.51-87.26,176.82-171.98,34.33-28.99,95.15-79.94,182.2-133.21,141.89-86.83,267.81-127.41,309.24-139.97,149.26-45.26,183.2-24.32,335.17-67.91,110.17-31.6,197.93-72.9,252.65-101.36,79.32,153.73,158.65,307.45,237.97,461.18Z"/>
          <g>
            <path class="cls-2" d="M-1951.54,4462.03c374.78-193.39,438.66-69.58,813.44-262.97,374.78-193.39,310.89-317.19,685.67-510.58,374.78-193.39,438.66-69.58,813.44-262.97,374.78-193.39,310.89-317.19,685.67-510.58,374.78-193.39,438.66-69.58,813.44-262.97,374.78-193.39,310.89-317.19,685.67-510.58,374.78-193.39,438.66-69.58,813.44-262.97,374.78-193.39,310.89-317.19,685.67-510.58,374.78-193.39,438.66-69.58,813.44-262.97,374.78-193.39,310.89-317.19,685.67-510.58,374.78-193.39,438.66-69.58,813.44-262.97,374.78-193.39,310.9-317.19,685.67-510.58,374.78-193.39,438.66-69.58,813.44-262.97"/>
            <path class="cls-2" d="M-1892.05,4577.32c374.78-193.39,438.66-69.58,813.44-262.97,374.78-193.39,310.89-317.19,685.67-510.58,374.78-193.39,438.66-69.58,813.44-262.97,374.78-193.39,310.89-317.19,685.67-510.58,374.78-193.39,438.66-69.58,813.44-262.97,374.78-193.39,310.89-317.19,685.67-510.58,374.78-193.39,438.66-69.58,813.44-262.97,374.78-193.39,310.89-317.19,685.67-510.58,374.78-193.39,438.66-69.58,813.44-262.97,374.78-193.39,310.89-317.19,685.67-510.58,374.78-193.39,438.66-69.58,813.44-262.97,374.78-193.39,310.9-317.19,685.67-510.58,374.78-193.39,438.66-69.58,813.44-262.97"/>
            <path class="cls-2" d="M-1832.55,4692.62c374.78-193.39,438.66-69.58,813.44-262.97,374.78-193.39,310.89-317.19,685.67-510.58,374.78-193.39,438.66-69.58,813.44-262.97,374.78-193.39,310.89-317.19,685.67-510.58,374.78-193.39,438.66-69.58,813.44-262.97,374.78-193.39,310.89-317.19,685.67-510.58,374.78-193.39,438.66-69.58,813.44-262.97,374.78-193.39,310.89-317.19,685.67-510.58,374.78-193.39,438.66-69.58,813.44-262.97,374.78-193.39,310.89-317.19,685.67-510.58,374.78-193.39,438.66-69.58,813.44-262.97,374.78-193.39,310.9-317.19,685.67-510.58,374.78-193.39,438.66-69.58,813.44-262.97"/>
            <path class="cls-2" d="M-1773.06,4807.91c374.78-193.39,438.66-69.58,813.44-262.97,374.78-193.39,310.89-317.19,685.67-510.58,374.78-193.39,438.66-69.58,813.44-262.97,374.78-193.39,310.89-317.19,685.67-510.58,374.78-193.39,438.66-69.58,813.44-262.97,374.78-193.39,310.89-317.19,685.67-510.58,374.78-193.39,438.66-69.58,813.44-262.97,374.78-193.39,310.89-317.19,685.67-510.58,374.78-193.39,438.66-69.58,813.44-262.97,374.78-193.39,310.89-317.19,685.67-510.58,374.78-193.39,438.66-69.58,813.44-262.97,374.78-193.39,310.89-317.19,685.67-510.58s438.66-69.58,813.44-262.97"/>
            <path class="cls-2" d="M-1713.57,4923.21c374.78-193.39,438.66-69.58,813.44-262.97,374.78-193.39,310.89-317.19,685.67-510.58,374.78-193.39,438.66-69.58,813.44-262.97,374.78-193.39,310.89-317.19,685.67-510.58,374.78-193.39,438.66-69.58,813.44-262.97,374.78-193.39,310.89-317.19,685.67-510.58,374.78-193.39,438.66-69.58,813.44-262.97,374.78-193.39,310.89-317.19,685.67-510.58,374.78-193.39,438.66-69.58,813.44-262.97,374.78-193.39,310.89-317.19,685.67-510.58,374.78-193.39,438.66-69.58,813.44-262.97,374.78-193.39,310.9-317.19,685.67-510.58,374.78-193.39,438.66-69.58,813.44-262.97"/>
          </g>
        </g>
      </g>
      <g>
        <g>
          <path class="cls-3" d="M9862.54-89.04c-44.34,23.68-114.18,57.72-201.96,86.19-153.87,49.9-200.5,30.04-361.08,76.58-141.97,41.15-247.49,97.82-285.21,118.95-124.96,70.01-211.44,145.36-258.21,186.54-87.23,76.82-79.62,86.82-156.41,150.47-35.57,29.49-123.49,98.86-247.85,160.81-126.22,62.88-230.17,88.34-355,118.9-166.63,40.8-171.98,24.55-278.81,61.56-31.89,11.05-150.89,53.89-282.42,141.81-83.12,55.56-142.42,109.87-218.12,179.18-81.63,74.75-77.7,80.25-129.85,123.44-103.93,86.08-204.89,134.94-250.09,156.48-124.88,59.51-227.54,83.79-351.26,113.06-141.56,33.48-141.94,21.03-234.92,50.67-42.8,13.65-153.18,51.5-279.21,128.4-97.24,59.34-163.04,117.05-209.72,158.38-82.91,73.41-82.87,88.19-154.07,148.48-25.59,21.67-102.87,85.2-215.79,146.62-154.94,84.28-289.32,116.92-352.8,131.88-110.92,26.14-102.8,10.52-204.07,36.32-67.99,17.32-190.89,54.75-328.71,132.78-117.32,66.42-195.25,133.84-234.1,167.83-78.83,68.95-67.69,74.52-141.13,138.67-102.16,89.23-205.67,150.01-280.13,187.66-52.51,26.55-134.71,67.55-243.51,95.08-62.89,15.91-69.62,10.86-179.47,33.82-90.92,19-146.22,30.56-214.95,54.48-110.04,38.3-189.9,85.82-231.01,110.58-114.25,68.8-190.1,137.7-235.85,179.71-81.24,74.58-75.74,84.99-142.26,140.82-88.24,74.06-171.52,117.55-221.01,143.05-147.74,76.11-275.07,107.98-372.06,131.63-149.03,36.34-160.85,21.71-273.16,59.43-43.7,14.68-138.14,49.21-246.26,113.74-93.79,55.98-153.34,107.95-263.69,204.26-128.48,112.13-116.04,116.76-189.79,170.83-26.16,19.18-134.83,97.12-292.16,157.81-91.42,35.27-166.13,51.92-243.39,69.15-114.99,25.64-145.66,22.75-228.13,46.38-96.09,27.53-172.39,65.25-220.45,91.8-79.32-153.73-158.65-307.45-237.97-461.18,55.75-28,138.86-66.03,241.59-98.8,187.03-59.65,211.46-29.26,364.71-76.1,236.77-72.37,416.09-217.56,481.46-275.09,77.31-68.03,58-68.69,142.26-140.82,53.33-45.66,182.07-154.11,373.26-231.8,17.54-7.13,104.72-42.08,219.37-67.73,82.63-18.49,100.59-14.48,174.46-30.45,27.23-5.89,133.54-29.94,262.34-89.12,53.39-24.53,166.43-80.73,285.57-177.14,102.97-83.33,82.94-93.48,190.9-183.95,137.24-115,264.03-177.73,302.74-196.19,107.1-51.09,195.66-76.18,225.49-84.21,111.06-29.93,141.68-21.25,254.82-49.18,119.53-29.52,210.49-70.11,235.79-81.69,185.85-85.08,313.81-199.91,350.63-234.23,73.89-68.86,91.53-103.08,183.11-172.87,65.07-49.59,121.63-82.21,152.22-99.71,49.7-28.44,143.16-81.3,263.53-119.52,105.45-33.49,120.77-20.57,259.51-53.17,73.4-17.25,160.77-37.78,261.98-81.1,216.93-92.85,364.01-233.29,401.89-270.09,45.31-44,54.25-59.76,106.64-105.19,31.36-27.2,112.04-94.31,229.87-158.59,140.37-76.58,260.71-109.45,351.85-133.74,181.57-48.39,201.79-25.5,345.95-79.74,37.9-14.26,121.16-47.7,218.82-105.86,92.54-55.11,155.62-107.16,176.44-124.75,76.18-64.34,79.32-83.3,158.12-153.71,81.51-72.83,154.14-120.45,170.83-131.26,148.03-95.91,281.61-138.76,310.81-147.84,115.71-35.98,119.34-16.51,283.71-58.61,83.19-21.3,162.52-41.62,261.84-85.73,50.45-22.41,182.03-81.93,309.49-191.84,80.09-69.06,76.51-87.26,176.82-171.98,34.33-28.99,95.15-79.94,182.2-133.21,141.89-86.83,267.81-127.41,309.24-139.97,149.26-45.26,183.2-24.32,335.17-67.91,110.17-31.6,197.93-72.9,252.65-101.36,79.32,153.73,158.65,307.45,237.97,461.18Z"/>
          <g>
            <path class="cls-2" d="M-183.54,4354.03c374.78-193.39,438.66-69.58,813.44-262.97,374.78-193.39,310.89-317.19,685.67-510.58,374.78-193.39,438.66-69.58,813.44-262.97,374.78-193.39,310.89-317.19,685.67-510.58,374.78-193.39,438.66-69.58,813.44-262.97,374.78-193.39,310.89-317.19,685.67-510.58,374.78-193.39,438.66-69.58,813.44-262.97,374.78-193.39,310.89-317.19,685.67-510.58,374.78-193.39,438.66-69.58,813.44-262.97,374.78-193.39,310.89-317.19,685.67-510.58,374.78-193.39,438.66-69.58,813.44-262.97,374.78-193.39,310.9-317.19,685.67-510.58,374.78-193.39,438.66-69.58,813.44-262.97"/>
            <path class="cls-2" d="M-124.05,4469.32c374.78-193.39,438.66-69.58,813.44-262.97,374.78-193.39,310.89-317.19,685.67-510.58,374.78-193.39,438.66-69.58,813.44-262.97,374.78-193.39,310.89-317.19,685.67-510.58,374.78-193.39,438.66-69.58,813.44-262.97s310.89-317.19,685.67-510.58c374.78-193.39,438.66-69.58,813.44-262.97,374.78-193.39,310.89-317.19,685.67-510.58,374.78-193.39,438.66-69.58,813.44-262.97,374.78-193.39,310.89-317.19,685.67-510.58,374.78-193.39,438.66-69.58,813.44-262.97,374.78-193.39,310.9-317.19,685.67-510.58,374.78-193.39,438.66-69.58,813.44-262.97"/>
            <path class="cls-2" d="M-64.55,4584.62c374.78-193.39,438.66-69.58,813.44-262.97,374.78-193.39,310.89-317.19,685.67-510.58,374.78-193.39,438.66-69.58,813.44-262.97,374.78-193.39,310.89-317.19,685.67-510.58,374.78-193.39,438.66-69.58,813.44-262.97,374.78-193.39,310.89-317.19,685.67-510.58,374.78-193.39,438.66-69.58,813.44-262.97,374.78-193.39,310.89-317.19,685.67-510.58,374.78-193.39,438.66-69.58,813.44-262.97,374.78-193.39,310.89-317.19,685.67-510.58,374.78-193.39,438.66-69.58,813.44-262.97,374.78-193.39,310.9-317.19,685.67-510.58,374.78-193.39,438.66-69.58,813.44-262.97"/>
            <path class="cls-2" d="M-5.06,4699.91c374.78-193.39,438.66-69.58,813.44-262.97,374.78-193.39,310.89-317.19,685.67-510.58,374.78-193.39,438.66-69.58,813.44-262.97,374.78-193.39,310.89-317.19,685.67-510.58,374.78-193.39,438.66-69.58,813.44-262.97,374.78-193.39,310.89-317.19,685.67-510.58,374.78-193.39,438.66-69.58,813.44-262.97,374.78-193.39,310.89-317.19,685.67-510.58,374.78-193.39,438.66-69.58,813.44-262.97,374.78-193.39,310.89-317.19,685.67-510.58,374.78-193.39,438.66-69.58,813.44-262.97,374.78-193.39,310.9-317.19,685.67-510.58,374.78-193.39,438.66-69.58,813.44-262.97"/>
            <path class="cls-2" d="M54.43,4815.21c374.78-193.39,438.66-69.58,813.44-262.97,374.78-193.39,310.89-317.19,685.67-510.58,374.78-193.39,438.66-69.58,813.44-262.97,374.78-193.39,310.89-317.19,685.67-510.58,374.78-193.39,438.66-69.58,813.44-262.97,374.78-193.39,310.89-317.19,685.67-510.58,374.78-193.39,438.66-69.58,813.44-262.97,374.78-193.39,310.89-317.19,685.67-510.58,374.78-193.39,438.66-69.58,813.44-262.97,374.78-193.39,310.89-317.19,685.67-510.58,374.78-193.39,438.66-69.58,813.44-262.97,374.78-193.39,310.9-317.19,685.68-510.58,374.78-193.39,438.66-69.58,813.44-262.97"/>
          </g>
        </g>
        <g>
          <path class="cls-3" d="M10743.54,356.96c-44.34,23.68-114.18,57.72-201.96,86.19-153.87,49.9-200.5,30.04-361.08,76.58-141.97,41.15-247.49,97.82-285.21,118.95-124.96,70.01-211.44,145.36-258.21,186.54-87.23,76.82-79.62,86.82-156.41,150.47-35.57,29.49-123.49,98.86-247.85,160.81-126.22,62.88-230.17,88.34-355,118.9-166.63,40.8-171.98,24.55-278.81,61.56-31.89,11.05-150.89,53.89-282.42,141.81-83.12,55.56-142.42,109.87-218.12,179.18-81.63,74.75-77.7,80.25-129.85,123.44-103.93,86.08-204.89,134.94-250.09,156.48-124.88,59.51-227.54,83.79-351.26,113.06-141.56,33.48-141.94,21.03-234.92,50.67-42.8,13.65-153.18,51.5-279.21,128.4-97.24,59.34-163.04,117.05-209.72,158.38-82.91,73.41-82.87,88.19-154.07,148.48-25.59,21.67-102.87,85.2-215.79,146.62-154.94,84.28-289.32,116.92-352.8,131.88-110.92,26.14-102.8,10.52-204.07,36.32-67.99,17.32-190.89,54.75-328.71,132.78-117.32,66.42-195.25,133.84-234.1,167.83-78.83,68.95-67.69,74.52-141.13,138.67-102.16,89.23-205.67,150.01-280.13,187.66-52.51,26.55-134.71,67.55-243.51,95.08-62.89,15.91-69.62,10.86-179.47,33.82-90.92,19-146.22,30.56-214.95,54.48-110.04,38.3-189.9,85.82-231.01,110.58-114.25,68.8-190.1,137.7-235.85,179.71-81.24,74.58-75.74,84.99-142.26,140.82-88.24,74.06-171.52,117.55-221.01,143.05-147.74,76.11-275.07,107.98-372.06,131.63-149.03,36.34-160.85,21.71-273.16,59.43-43.7,14.68-138.14,49.21-246.26,113.74-93.79,55.98-153.34,107.95-263.69,204.26-128.48,112.13-116.04,116.76-189.79,170.83-26.16,19.18-134.83,97.12-292.16,157.81-91.42,35.27-166.13,51.92-243.39,69.15-114.99,25.64-145.66,22.75-228.13,46.38-96.09,27.53-172.39,65.25-220.45,91.8-79.32-153.73-158.65-307.45-237.97-461.18,55.75-28,138.86-66.03,241.59-98.8,187.03-59.65,211.46-29.26,364.71-76.1,236.77-72.37,416.09-217.56,481.46-275.09,77.31-68.03,58-68.69,142.26-140.82,53.33-45.66,182.07-154.11,373.26-231.8,17.54-7.13,104.72-42.08,219.37-67.73,82.63-18.49,100.59-14.48,174.46-30.45,27.23-5.89,133.54-29.94,262.34-89.12,53.39-24.53,166.43-80.73,285.57-177.14,102.97-83.33,82.94-93.48,190.9-183.95,137.24-115,264.03-177.73,302.74-196.19,107.1-51.09,195.66-76.18,225.49-84.21,111.06-29.93,141.68-21.25,254.82-49.18,119.53-29.52,210.49-70.11,235.79-81.69,185.85-85.08,313.81-199.91,350.63-234.23,73.89-68.86,91.53-103.08,183.11-172.87,65.07-49.59,121.63-82.21,152.22-99.71,49.7-28.44,143.16-81.3,263.53-119.52,105.45-33.49,120.77-20.57,259.51-53.17,73.4-17.25,160.77-37.78,261.98-81.1,216.93-92.85,364.01-233.29,401.89-270.09,45.31-44,54.25-59.76,106.64-105.19,31.36-27.2,112.04-94.31,229.87-158.59,140.37-76.58,260.71-109.45,351.85-133.74,181.57-48.39,201.79-25.5,345.95-79.74,37.9-14.26,121.16-47.7,218.82-105.86,92.54-55.11,155.62-107.16,176.44-124.75,76.18-64.34,79.32-83.3,158.12-153.71,81.51-72.83,154.14-120.45,170.83-131.26,148.03-95.91,281.61-138.76,310.81-147.84,115.71-35.98,119.34-16.51,283.71-58.61,83.19-21.3,162.52-41.62,261.84-85.73,50.45-22.41,182.03-81.93,309.49-191.84,80.09-69.06,76.51-87.26,176.82-171.98,34.33-28.99,95.15-79.94,182.2-133.21,141.89-86.83,267.81-127.41,309.24-139.97,149.26-45.26,183.2-24.32,335.17-67.91,110.17-31.6,197.93-72.9,252.65-101.36,79.32,153.73,158.65,307.45,237.97,461.18Z"/>
          <g>
            <path class="cls-2" d="M697.46,4800.03c374.78-193.39,438.66-69.58,813.44-262.97,374.78-193.39,310.89-317.19,685.67-510.58,374.78-193.39,438.66-69.58,813.44-262.97,374.78-193.39,310.89-317.19,685.67-510.58,374.78-193.39,438.66-69.58,813.44-262.97,374.78-193.39,310.89-317.19,685.67-510.58,374.78-193.39,438.66-69.58,813.44-262.97,374.78-193.39,310.89-317.19,685.67-510.58,374.78-193.39,438.66-69.58,813.44-262.97,374.78-193.39,310.89-317.19,685.67-510.58,374.78-193.39,438.66-69.58,813.44-262.97,374.78-193.39,310.9-317.19,685.67-510.58,374.78-193.39,438.66-69.58,813.44-262.97"/>
            <path class="cls-2" d="M756.95,4915.32c374.78-193.39,438.66-69.58,813.44-262.97,374.78-193.39,310.89-317.19,685.67-510.58,374.78-193.39,438.66-69.58,813.44-262.97,374.78-193.39,310.89-317.19,685.67-510.58,374.78-193.39,438.66-69.58,813.44-262.97s310.89-317.19,685.67-510.58c374.78-193.39,438.66-69.58,813.44-262.97,374.78-193.39,310.89-317.19,685.67-510.58,374.78-193.39,438.66-69.58,813.44-262.97,374.78-193.39,310.89-317.19,685.67-510.58,374.78-193.39,438.66-69.58,813.44-262.97,374.78-193.39,310.9-317.19,685.67-510.58,374.78-193.39,438.66-69.58,813.44-262.97"/>
            <path class="cls-2" d="M816.45,5030.62c374.78-193.39,438.66-69.58,813.44-262.97,374.78-193.39,310.89-317.19,685.67-510.58,374.78-193.39,438.66-69.58,813.44-262.97,374.78-193.39,310.89-317.19,685.67-510.58,374.78-193.39,438.66-69.58,813.44-262.97,374.78-193.39,310.89-317.19,685.67-510.58,374.78-193.39,438.66-69.58,813.44-262.97,374.78-193.39,310.89-317.19,685.67-510.58,374.78-193.39,438.66-69.58,813.44-262.97,374.78-193.39,310.89-317.19,685.67-510.58,374.78-193.39,438.66-69.58,813.44-262.97,374.78-193.39,310.9-317.19,685.67-510.58,374.78-193.39,438.66-69.58,813.44-262.97"/>
            <path class="cls-2" d="M875.94,5145.91c374.78-193.39,438.66-69.58,813.44-262.97,374.78-193.39,310.89-317.19,685.67-510.58,374.78-193.39,438.66-69.58,813.44-262.97,374.78-193.39,310.89-317.19,685.67-510.58,374.78-193.39,438.66-69.58,813.44-262.97,374.78-193.39,310.89-317.19,685.67-510.58,374.78-193.39,438.66-69.58,813.44-262.97,374.78-193.39,310.89-317.19,685.67-510.58,374.78-193.39,438.66-69.58,813.44-262.97,374.78-193.39,310.89-317.19,685.67-510.58,374.78-193.39,438.66-69.58,813.44-262.97,374.78-193.39,310.9-317.19,685.67-510.58,374.78-193.39,438.66-69.58,813.44-262.97"/>
            <path class="cls-2" d="M935.43,5261.21c374.78-193.39,438.66-69.58,813.44-262.97,374.78-193.39,310.89-317.19,685.67-510.58,374.78-193.39,438.66-69.58,813.44-262.97,374.78-193.39,310.89-317.19,685.67-510.58,374.78-193.39,438.66-69.58,813.44-262.97,374.78-193.39,310.89-317.19,685.67-510.58,374.78-193.39,438.66-69.58,813.44-262.97,374.78-193.39,310.89-317.19,685.67-510.58,374.78-193.39,438.66-69.58,813.44-262.97,374.78-193.39,310.89-317.19,685.67-510.58s438.66-69.58,813.44-262.97c374.78-193.39,310.9-317.19,685.68-510.58,374.78-193.39,438.66-69.58,813.44-262.97"/>
          </g>
        </g>
        <g>
          <path class="cls-3" d="M9358.54,587.96c-44.34,23.68-114.18,57.72-201.96,86.19-153.87,49.9-200.5,30.04-361.08,76.58-141.97,41.15-247.49,97.82-285.21,118.95-124.96,70.01-211.44,145.36-258.21,186.54-87.23,76.82-79.62,86.82-156.41,150.47-35.57,29.49-123.49,98.86-247.85,160.81-126.22,62.88-230.17,88.34-355,118.9-166.63,40.8-171.98,24.55-278.81,61.56-31.89,11.05-150.89,53.89-282.42,141.81-83.12,55.56-142.42,109.87-218.12,179.18-81.63,74.75-77.7,80.25-129.85,123.44-103.93,86.08-204.89,134.94-250.09,156.48-124.88,59.51-227.54,83.79-351.26,113.06-141.56,33.48-141.94,21.03-234.92,50.67-42.8,13.65-153.18,51.5-279.21,128.4-97.24,59.34-163.04,117.05-209.72,158.38-82.91,73.41-82.87,88.19-154.07,148.48-25.59,21.67-102.87,85.2-215.79,146.62-154.94,84.28-289.32,116.92-352.8,131.88-110.92,26.14-102.8,10.52-204.07,36.32-67.99,17.32-190.89,54.75-328.71,132.78-117.32,66.42-195.25,133.84-234.1,167.83-78.83,68.95-67.69,74.52-141.13,138.67-102.16,89.23-205.67,150.01-280.13,187.66-52.51,26.55-134.71,67.55-243.51,95.08-62.89,15.91-69.62,10.86-179.47,33.82-90.92,19-146.22,30.56-214.95,54.48-110.04,38.3-189.9,85.82-231.01,110.58-114.25,68.8-190.1,137.7-235.85,179.71-81.24,74.58-75.74,84.99-142.26,140.82-88.24,74.06-171.52,117.55-221.01,143.05-147.74,76.11-275.07,107.98-372.06,131.63-149.03,36.34-160.85,21.71-273.16,59.43-43.7,14.68-138.14,49.21-246.26,113.74-93.79,55.98-153.34,107.95-263.69,204.26-128.48,112.13-116.04,116.76-189.79,170.83-26.16,19.18-134.83,97.12-292.16,157.81-91.42,35.27-166.13,51.92-243.39,69.15-114.99,25.64-145.66,22.75-228.13,46.38-96.09,27.53-172.39,65.25-220.45,91.8-79.32-153.73-158.65-307.45-237.97-461.18,55.75-28,138.86-66.03,241.59-98.8,187.03-59.65,211.46-29.26,364.71-76.1,236.77-72.37,416.09-217.56,481.46-275.09,77.31-68.03,58-68.69,142.26-140.82,53.33-45.66,182.07-154.11,373.26-231.8,17.54-7.13,104.72-42.08,219.37-67.73,82.63-18.49,100.59-14.48,174.46-30.45,27.23-5.89,133.54-29.94,262.34-89.12,53.39-24.53,166.43-80.73,285.57-177.14,102.97-83.33,82.94-93.48,190.9-183.95,137.24-115,264.03-177.73,302.74-196.19,107.1-51.09,195.66-76.18,225.49-84.21,111.06-29.93,141.68-21.25,254.82-49.18,119.53-29.52,210.49-70.11,235.79-81.69,185.85-85.08,313.81-199.91,350.63-234.23,73.89-68.86,91.53-103.08,183.11-172.87,65.07-49.59,121.63-82.21,152.22-99.71,49.7-28.44,143.16-81.3,263.53-119.52,105.45-33.49,120.77-20.57,259.51-53.17,73.4-17.25,160.77-37.78,261.98-81.1,216.93-92.85,364.01-233.29,401.89-270.09,45.31-44,54.25-59.76,106.64-105.19,31.36-27.2,112.04-94.31,229.87-158.59,140.37-76.58,260.71-109.45,351.85-133.74,181.57-48.39,201.79-25.5,345.95-79.74,37.9-14.26,121.16-47.7,218.82-105.86,92.54-55.11,155.62-107.16,176.44-124.75,76.18-64.34,79.32-83.3,158.12-153.71,81.51-72.83,154.14-120.45,170.83-131.26,148.03-95.91,281.61-138.76,310.81-147.84,115.71-35.98,119.34-16.51,283.71-58.61,83.19-21.3,162.52-41.62,261.84-85.73,50.45-22.41,182.03-81.93,309.49-191.84,80.09-69.06,76.51-87.26,176.82-171.98,34.33-28.99,95.15-79.94,182.2-133.21,141.89-86.83,267.81-127.41,309.24-139.97,149.26-45.26,183.2-24.32,335.17-67.91,110.17-31.6,197.93-72.9,252.65-101.36,79.32,153.73,158.65,307.45,237.97,461.18Z"/>
          <g>
            <path class="cls-2" d="M-687.54,5031.03c374.78-193.39,438.66-69.58,813.44-262.97,374.78-193.39,310.89-317.19,685.67-510.58,374.78-193.39,438.66-69.58,813.44-262.97,374.78-193.39,310.89-317.19,685.67-510.58,374.78-193.39,438.66-69.58,813.44-262.97,374.78-193.39,310.89-317.19,685.67-510.58,374.78-193.39,438.66-69.58,813.44-262.97,374.78-193.39,310.89-317.19,685.67-510.58,374.78-193.39,438.66-69.58,813.44-262.97,374.78-193.39,310.89-317.19,685.67-510.58,374.78-193.39,438.66-69.58,813.44-262.97,374.78-193.39,310.9-317.19,685.67-510.58,374.78-193.39,438.66-69.58,813.44-262.97"/>
            <path class="cls-2" d="M-628.05,5146.32c374.78-193.39,438.66-69.58,813.44-262.97,374.78-193.39,310.89-317.19,685.67-510.58,374.78-193.39,438.66-69.58,813.44-262.97,374.78-193.39,310.89-317.19,685.67-510.58,374.78-193.39,438.66-69.58,813.44-262.97s310.89-317.19,685.67-510.58c374.78-193.39,438.66-69.58,813.44-262.97,374.78-193.39,310.89-317.19,685.67-510.58,374.78-193.39,438.66-69.58,813.44-262.97,374.78-193.39,310.89-317.19,685.67-510.58,374.78-193.39,438.66-69.58,813.44-262.97,374.78-193.39,310.9-317.19,685.67-510.58,374.78-193.39,438.66-69.58,813.44-262.97"/>
            <path class="cls-2" d="M-568.55,5261.62c374.78-193.39,438.66-69.58,813.44-262.97,374.78-193.39,310.89-317.19,685.67-510.58,374.78-193.39,438.66-69.58,813.44-262.97,374.78-193.39,310.89-317.19,685.67-510.58,374.78-193.39,438.66-69.58,813.44-262.97,374.78-193.39,310.89-317.19,685.67-510.58,374.78-193.39,438.66-69.58,813.44-262.97,374.78-193.39,310.89-317.19,685.67-510.58,374.78-193.39,438.66-69.58,813.44-262.97,374.78-193.39,310.89-317.19,685.67-510.58,374.78-193.39,438.66-69.58,813.44-262.97,374.78-193.39,310.9-317.19,685.67-510.58,374.78-193.39,438.66-69.58,813.44-262.97"/>
            <path class="cls-2" d="M-509.06,5376.91c374.78-193.39,438.66-69.58,813.44-262.97,374.78-193.39,310.89-317.19,685.67-510.58,374.78-193.39,438.66-69.58,813.44-262.97,374.78-193.39,310.89-317.19,685.67-510.58,374.78-193.39,438.66-69.58,813.44-262.97,374.78-193.39,310.89-317.19,685.67-510.58,374.78-193.39,438.66-69.58,813.44-262.97,374.78-193.39,310.89-317.19,685.67-510.58,374.78-193.39,438.66-69.58,813.44-262.97,374.78-193.39,310.89-317.19,685.67-510.58,374.78-193.39,438.66-69.58,813.44-262.97,374.78-193.39,310.89-317.19,685.67-510.58,374.78-193.39,438.66-69.58,813.44-262.97"/>
            <path class="cls-2" d="M-449.57,5492.21c374.78-193.39,438.66-69.58,813.44-262.97,374.78-193.39,310.89-317.19,685.67-510.58,374.78-193.39,438.66-69.58,813.44-262.97,374.78-193.39,310.89-317.19,685.67-510.58,374.78-193.39,438.66-69.58,813.44-262.97,374.78-193.39,310.89-317.19,685.67-510.58,374.78-193.39,438.66-69.58,813.44-262.97,374.78-193.39,310.89-317.19,685.67-510.58,374.78-193.39,438.66-69.58,813.44-262.97,374.78-193.39,310.89-317.19,685.67-510.58,374.78-193.39,438.66-69.58,813.44-262.97,374.78-193.39,310.9-317.19,685.67-510.58,374.78-193.39,438.66-69.58,813.44-262.97"/>
          </g>
        </g>
      </g>
    </g>
  </g>
</svg>